<svg xmlns="http://www.w3.org/2000/svg" xmlns:xlink="http://www.w3.org/1999/xlink" contentStyleType="text/css" height="375px" preserveAspectRatio="none" style="width:521px;height:375px;background:#FFFFFF;" version="1.1" viewBox="0 0 521 375" width="521px" zoomAndPan="magnify"><title>Finance - Dynamic</title><defs/><g><text fill="#000000" font-family="sans-serif" font-size="14" font-weight="bold" lengthAdjust="spacing" textLength="144.9424" x="189.9219" y="27.9951">Finance - Dynamic</text><line style="stroke:#181818;stroke-width:0.5;stroke-dasharray:5.0,5.0;" x1="95" x2="95" y1="116.2344" y2="285.3594"/><line style="stroke:#181818;stroke-width:0.5;stroke-dasharray:5.0,5.0;" x1="286.9785" x2="286.9785" y1="116.2344" y2="285.3594"/><line style="stroke:#181818;stroke-width:0.5;stroke-dasharray:5.0,5.0;" x1="453.957" x2="453.957" y1="116.2344" y2="285.3594"/><rect fill="#27AE60" height="41.9375" rx="2.5" ry="2.5" style="stroke:#1B7943;stroke-width:0.5;" width="181.9785" x="5" y="73.2969"/><text fill="#FFFFFF" font-family="sans-serif" font-size="14" lengthAdjust="spacing" textLength="122.1855" x="34.8965" y="93.292">Cart Microservice</text><text fill="#FFFFFF" font-family="sans-serif" font-size="10" lengthAdjust="spacing" textLength="167.9785" x="12" y="105.876">[Container: Java and Spring Boot]</text><rect fill="#27AE60" height="41.9375" rx="2.5" ry="2.5" style="stroke:#1B7943;stroke-width:0.5;" width="181.9785" x="5" y="284.3594"/><text fill="#FFFFFF" font-family="sans-serif" font-size="14" lengthAdjust="spacing" textLength="122.1855" x="34.8965" y="304.3545">Cart Microservice</text><text fill="#FFFFFF" font-family="sans-serif" font-size="10" lengthAdjust="spacing" textLength="167.9785" x="12" y="316.9385">[Container: Java and Spring Boot]</text><rect fill="#27AE60" height="41.9375" rx="2.5" ry="2.5" style="stroke:#1B7943;stroke-width:0.5;" width="181.9785" x="196.9785" y="73.2969"/><text fill="#FFFFFF" font-family="sans-serif" font-size="14" lengthAdjust="spacing" textLength="147.1641" x="214.3857" y="93.292">Finance Microservice</text><text fill="#FFFFFF" font-family="sans-serif" font-size="10" lengthAdjust="spacing" textLength="167.9785" x="203.9785" y="105.876">[Container: Java and Spring Boot]</text><rect fill="#27AE60" height="41.9375" rx="2.5" ry="2.5" style="stroke:#1B7943;stroke-width:0.5;" width="181.9785" x="196.9785" y="284.3594"/><text fill="#FFFFFF" font-family="sans-serif" font-size="14" lengthAdjust="spacing" textLength="147.1641" x="214.3857" y="304.3545">Finance Microservice</text><text fill="#FFFFFF" font-family="sans-serif" font-size="10" lengthAdjust="spacing" textLength="167.9785" x="203.9785" y="316.9385">[Container: Java and Spring Boot]</text><text fill="#000000" font-family="sans-serif" font-size="14" lengthAdjust="spacing" textLength="125.8291" x="388.957" y="101.292">Finance Database</text><text fill="#000000" font-family="sans-serif" font-size="10" lengthAdjust="spacing" textLength="120.8984" x="391.4224" y="113.876">[Container: PostgreSQL]</text><path d="M436.8716,52.2969 C436.8716,42.2969 454.8716,42.2969 454.8716,42.2969 C454.8716,42.2969 472.8716,42.2969 472.8716,52.2969 L472.8716,78.2969 C472.8716,88.2969 454.8716,88.2969 454.8716,88.2969 C454.8716,88.2969 436.8716,88.2969 436.8716,78.2969 L436.8716,52.2969 " fill="#8E44AD" style="stroke:#181818;stroke-width:1.5;"/><path d="M436.8716,52.2969 C436.8716,62.2969 454.8716,62.2969 454.8716,62.2969 C454.8716,62.2969 472.8716,62.2969 472.8716,52.2969 " fill="none" style="stroke:#181818;stroke-width:1.5;"/><text fill="#000000" font-family="sans-serif" font-size="14" lengthAdjust="spacing" textLength="125.8291" x="388.957" y="297.3545">Finance Database</text><text fill="#000000" font-family="sans-serif" font-size="10" lengthAdjust="spacing" textLength="120.8984" x="391.4224" y="309.9385">[Container: PostgreSQL]</text><path d="M436.8716,322.2969 C436.8716,312.2969 454.8716,312.2969 454.8716,312.2969 C454.8716,312.2969 472.8716,312.2969 472.8716,322.2969 L472.8716,348.2969 C472.8716,358.2969 454.8716,358.2969 454.8716,358.2969 C454.8716,358.2969 436.8716,358.2969 436.8716,348.2969 L436.8716,322.2969 " fill="#8E44AD" style="stroke:#181818;stroke-width:1.5;"/><path d="M436.8716,322.2969 C436.8716,332.2969 454.8716,332.2969 454.8716,332.2969 C454.8716,332.2969 472.8716,332.2969 472.8716,322.2969 " fill="none" style="stroke:#181818;stroke-width:1.5;"/><polygon fill="#2980B9" points="275.9678,151.5156,285.9678,155.5156,275.9678,159.5156,279.9678,155.5156" style="stroke:#2980B9;stroke-width:1.0;"/><line style="stroke:#2980B9;stroke-width:1.0;" x1="95.9893" x2="281.9678" y1="155.5156" y2="155.5156"/><text fill="#000000" font-family="sans-serif" font-size="10" lengthAdjust="spacing" textLength="46.2793" x="144.9766" y="139.5166">Requests</text><text fill="#000000" font-family="sans-serif" font-size="10" lengthAdjust="spacing" textLength="3.1787" x="191.2559" y="139.5166">&#160;</text><text fill="#000000" font-family="sans-serif" font-size="10" lengthAdjust="spacing" textLength="44.5459" x="194.4346" y="139.5166">payment</text><text fill="#000000" font-family="sans-serif" font-size="10" lengthAdjust="spacing" textLength="17.6855" x="183.1357" y="151.1572">link</text><polygon fill="#2980B9" points="442.8716,188.7969,452.8716,192.7969,442.8716,196.7969,446.8716,192.7969" style="stroke:#2980B9;stroke-width:1.0;"/><line style="stroke:#2980B9;stroke-width:1.0;" x1="287.9678" x2="448.8716" y1="192.7969" y2="192.7969"/><text fill="#000000" font-family="sans-serif" font-size="10" lengthAdjust="spacing" textLength="38.6572" x="328.2288" y="176.7979">Creates</text><text fill="#000000" font-family="sans-serif" font-size="10" lengthAdjust="spacing" textLength="3.1787" x="366.886" y="176.7979">&#160;</text><text fill="#000000" font-family="sans-serif" font-size="10" lengthAdjust="spacing" textLength="44.5459" x="370.0647" y="176.7979">payment</text><text fill="#000000" font-family="sans-serif" font-size="10" lengthAdjust="spacing" textLength="26.4404" x="358.1995" y="188.4385">entry</text><polygon fill="#2980B9" points="298.9678,226.0781,288.9678,230.0781,298.9678,234.0781,294.9678,230.0781" style="stroke:#2980B9;stroke-width:1.0;"/><line style="stroke:#2980B9;stroke-width:1.0;stroke-dasharray:2.0,2.0;" x1="292.9678" x2="453.8716" y1="230.0781" y2="230.0781"/><text fill="#000000" font-family="sans-serif" font-size="10" lengthAdjust="spacing" textLength="44.7998" x="325.1575" y="214.0791">Confirms</text><text fill="#000000" font-family="sans-serif" font-size="10" lengthAdjust="spacing" textLength="3.1787" x="369.9573" y="214.0791">&#160;</text><text fill="#000000" font-family="sans-serif" font-size="10" lengthAdjust="spacing" textLength="44.5459" x="373.136" y="214.0791">payment</text><text fill="#000000" font-family="sans-serif" font-size="10" lengthAdjust="spacing" textLength="17.6855" x="362.5769" y="225.7197">link</text><polygon fill="#2980B9" points="106.9893,263.3594,96.9893,267.3594,106.9893,271.3594,102.9893,267.3594" style="stroke:#2980B9;stroke-width:1.0;"/><line style="stroke:#2980B9;stroke-width:1.0;stroke-dasharray:2.0,2.0;" x1="100.9893" x2="286.9678" y1="267.3594" y2="267.3594"/><text fill="#000000" font-family="sans-serif" font-size="10" lengthAdjust="spacing" textLength="39.0186" x="148.6069" y="251.3604">Returns</text><text fill="#000000" font-family="sans-serif" font-size="10" lengthAdjust="spacing" textLength="3.1787" x="187.6255" y="251.3604">&#160;</text><text fill="#000000" font-family="sans-serif" font-size="10" lengthAdjust="spacing" textLength="44.5459" x="190.8042" y="251.3604">payment</text><text fill="#000000" font-family="sans-serif" font-size="10" lengthAdjust="spacing" textLength="17.6855" x="183.1357" y="263.001">link</text></g></svg>