<svg xmlns="http://www.w3.org/2000/svg" xmlns:xlink="http://www.w3.org/1999/xlink" contentStyleType="text/css" height="603px" preserveAspectRatio="none" style="width:892px;height:603px;background:#FFFFFF;" version="1.1" viewBox="0 0 892 603" width="892px" zoomAndPan="magnify"><title>Finance - Dynamic</title><defs/><g><text fill="#000000" font-family="sans-serif" font-size="14" font-weight="bold" lengthAdjust="spacing" textLength="144.9424" x="375.2241" y="27.9951">Finance - Dynamic</text><line style="stroke:#181818;stroke-width:0.5;stroke-dasharray:5.0,5.0;" x1="33" x2="33" y1="130.2344" y2="511.4063"/><line style="stroke:#181818;stroke-width:0.5;stroke-dasharray:5.0,5.0;" x1="154.1758" x2="154.1758" y1="130.2344" y2="511.4063"/><line style="stroke:#181818;stroke-width:0.5;stroke-dasharray:5.0,5.0;" x1="338.2764" x2="338.2764" y1="130.2344" y2="511.4063"/><line style="stroke:#181818;stroke-width:0.5;stroke-dasharray:5.0,5.0;" x1="505.2549" x2="505.2549" y1="130.2344" y2="511.4063"/><line style="stroke:#181818;stroke-width:0.5;stroke-dasharray:5.0,5.0;" x1="672.084" x2="672.084" y1="130.2344" y2="511.4063"/><line style="stroke:#181818;stroke-width:0.5;stroke-dasharray:5.0,5.0;" x1="832.0625" x2="832.0625" y1="130.2344" y2="511.4063"/><text fill="#000000" font-family="sans-serif" font-size="14" lengthAdjust="spacing" textLength="50.1758" x="5" y="115.292">Reader</text><text fill="#000000" font-family="sans-serif" font-size="10" lengthAdjust="spacing" textLength="41.7627" x="9.2065" y="127.876">[Person]</text><ellipse cx="33.0879" cy="50.7969" fill="#28B463" rx="8" ry="8" style="stroke:#181818;stroke-width:0.5;"/><path d="M33.0879,58.7969 L33.0879,85.7969 M20.0879,66.7969 L46.0879,66.7969 M33.0879,85.7969 L20.0879,100.7969 M33.0879,85.7969 L46.0879,100.7969 " fill="none" style="stroke:#181818;stroke-width:0.5;"/><text fill="#000000" font-family="sans-serif" font-size="14" lengthAdjust="spacing" textLength="50.1758" x="5" y="523.4014">Reader</text><text fill="#000000" font-family="sans-serif" font-size="10" lengthAdjust="spacing" textLength="41.7627" x="9.2065" y="535.9854">[Person]</text><ellipse cx="33.0879" cy="546.8438" fill="#28B463" rx="8" ry="8" style="stroke:#181818;stroke-width:0.5;"/><path d="M33.0879,554.8438 L33.0879,581.8438 M20.0879,562.8438 L46.0879,562.8438 M33.0879,581.8438 L20.0879,596.8438 M33.0879,581.8438 L46.0879,596.8438 " fill="none" style="stroke:#181818;stroke-width:0.5;"/><rect fill="#27AE60" height="41.9375" rx="2.5" ry="2.5" style="stroke:#1B7943;stroke-width:0.5;" width="167.1006" x="71.1758" y="87.2969"/><text fill="#FFFFFF" font-family="sans-serif" font-size="14" lengthAdjust="spacing" textLength="85.9346" x="111.7588" y="107.292">Finance SPA</text><text fill="#FFFFFF" font-family="sans-serif" font-size="10" lengthAdjust="spacing" textLength="153.1006" x="78.1758" y="119.876">[Container: React Component]</text><rect fill="#27AE60" height="41.9375" rx="2.5" ry="2.5" style="stroke:#1B7943;stroke-width:0.5;" width="167.1006" x="71.1758" y="510.4063"/><text fill="#FFFFFF" font-family="sans-serif" font-size="14" lengthAdjust="spacing" textLength="85.9346" x="111.7588" y="530.4014">Finance SPA</text><text fill="#FFFFFF" font-family="sans-serif" font-size="10" lengthAdjust="spacing" textLength="153.1006" x="78.1758" y="542.9854">[Container: React Component]</text><rect fill="#27AE60" height="41.9375" rx="2.5" ry="2.5" style="stroke:#1B7943;stroke-width:0.5;" width="181.9785" x="248.2764" y="87.2969"/><text fill="#FFFFFF" font-family="sans-serif" font-size="14" lengthAdjust="spacing" textLength="147.1641" x="265.6836" y="107.292">Finance Microservice</text><text fill="#FFFFFF" font-family="sans-serif" font-size="10" lengthAdjust="spacing" textLength="167.9785" x="255.2764" y="119.876">[Container: Java and Spring Boot]</text><rect fill="#27AE60" height="41.9375" rx="2.5" ry="2.5" style="stroke:#1B7943;stroke-width:0.5;" width="181.9785" x="248.2764" y="510.4063"/><text fill="#FFFFFF" font-family="sans-serif" font-size="14" lengthAdjust="spacing" textLength="147.1641" x="265.6836" y="530.4014">Finance Microservice</text><text fill="#FFFFFF" font-family="sans-serif" font-size="10" lengthAdjust="spacing" textLength="167.9785" x="255.2764" y="542.9854">[Container: Java and Spring Boot]</text><text fill="#000000" font-family="sans-serif" font-size="14" lengthAdjust="spacing" textLength="125.8291" x="440.2549" y="115.292">Finance Database</text><text fill="#000000" font-family="sans-serif" font-size="10" lengthAdjust="spacing" textLength="120.8984" x="442.7202" y="127.876">[Container: PostgreSQL]</text><path d="M488.1694,66.2969 C488.1694,56.2969 506.1694,56.2969 506.1694,56.2969 C506.1694,56.2969 524.1694,56.2969 524.1694,66.2969 L524.1694,92.2969 C524.1694,102.2969 506.1694,102.2969 506.1694,102.2969 C506.1694,102.2969 488.1694,102.2969 488.1694,92.2969 L488.1694,66.2969 " fill="#8E44AD" style="stroke:#181818;stroke-width:1.5;"/><path d="M488.1694,66.2969 C488.1694,76.2969 506.1694,76.2969 506.1694,76.2969 C506.1694,76.2969 524.1694,76.2969 524.1694,66.2969 " fill="none" style="stroke:#181818;stroke-width:1.5;"/><text fill="#000000" font-family="sans-serif" font-size="14" lengthAdjust="spacing" textLength="125.8291" x="440.2549" y="523.4014">Finance Database</text><text fill="#000000" font-family="sans-serif" font-size="10" lengthAdjust="spacing" textLength="120.8984" x="442.7202" y="535.9854">[Container: PostgreSQL]</text><path d="M488.1694,548.3438 C488.1694,538.3438 506.1694,538.3438 506.1694,538.3438 C506.1694,538.3438 524.1694,538.3438 524.1694,548.3438 L524.1694,574.3438 C524.1694,584.3438 506.1694,584.3438 506.1694,584.3438 C506.1694,584.3438 488.1694,584.3438 488.1694,574.3438 L488.1694,548.3438 " fill="#8E44AD" style="stroke:#181818;stroke-width:1.5;"/><path d="M488.1694,548.3438 C488.1694,558.3438 506.1694,558.3438 506.1694,558.3438 C506.1694,558.3438 524.1694,558.3438 524.1694,548.3438 " fill="none" style="stroke:#181818;stroke-width:1.5;"/><rect fill="#27AE60" height="41.9375" rx="2.5" ry="2.5" style="stroke:#1B7943;stroke-width:0.5;" width="181.9785" x="582.084" y="87.2969"/><text fill="#FFFFFF" font-family="sans-serif" font-size="14" lengthAdjust="spacing" textLength="122.1855" x="611.9805" y="107.292">Cart Microservice</text><text fill="#FFFFFF" font-family="sans-serif" font-size="10" lengthAdjust="spacing" textLength="167.9785" x="589.084" y="119.876">[Container: Java and Spring Boot]</text><rect fill="#27AE60" height="41.9375" rx="2.5" ry="2.5" style="stroke:#1B7943;stroke-width:0.5;" width="181.9785" x="582.084" y="510.4063"/><text fill="#FFFFFF" font-family="sans-serif" font-size="14" lengthAdjust="spacing" textLength="122.1855" x="611.9805" y="530.4014">Cart Microservice</text><text fill="#FFFFFF" font-family="sans-serif" font-size="10" lengthAdjust="spacing" textLength="167.9785" x="589.084" y="542.9854">[Container: Java and Spring Boot]</text><text fill="#000000" font-family="sans-serif" font-size="14" lengthAdjust="spacing" textLength="100.8506" x="779.3013" y="115.292">Cart Database</text><text fill="#000000" font-family="sans-serif" font-size="10" lengthAdjust="spacing" textLength="111.3281" x="774.0625" y="127.876">[Container: MongoDB]</text><path d="M814.7266,66.2969 C814.7266,56.2969 832.7266,56.2969 832.7266,56.2969 C832.7266,56.2969 850.7266,56.2969 850.7266,66.2969 L850.7266,92.2969 C850.7266,102.2969 832.7266,102.2969 832.7266,102.2969 C832.7266,102.2969 814.7266,102.2969 814.7266,92.2969 L814.7266,66.2969 " fill="#8E44AD" style="stroke:#181818;stroke-width:1.5;"/><path d="M814.7266,66.2969 C814.7266,76.2969 832.7266,76.2969 832.7266,76.2969 C832.7266,76.2969 850.7266,76.2969 850.7266,66.2969 " fill="none" style="stroke:#181818;stroke-width:1.5;"/><text fill="#000000" font-family="sans-serif" font-size="14" lengthAdjust="spacing" textLength="100.8506" x="779.3013" y="523.4014">Cart Database</text><text fill="#000000" font-family="sans-serif" font-size="10" lengthAdjust="spacing" textLength="111.3281" x="774.0625" y="535.9854">[Container: MongoDB]</text><path d="M814.7266,548.3438 C814.7266,538.3438 832.7266,538.3438 832.7266,538.3438 C832.7266,538.3438 850.7266,538.3438 850.7266,548.3438 L850.7266,574.3438 C850.7266,584.3438 832.7266,584.3438 832.7266,584.3438 C832.7266,584.3438 814.7266,584.3438 814.7266,574.3438 L814.7266,548.3438 " fill="#8E44AD" style="stroke:#181818;stroke-width:1.5;"/><path d="M814.7266,548.3438 C814.7266,558.3438 832.7266,558.3438 832.7266,558.3438 C832.7266,558.3438 850.7266,558.3438 850.7266,548.3438 " fill="none" style="stroke:#181818;stroke-width:1.5;"/><polygon fill="#2980B9" points="142.7261,153.875,152.7261,157.875,142.7261,161.875,146.7261,157.875" style="stroke:#2980B9;stroke-width:1.0;"/><line style="stroke:#2980B9;stroke-width:1.0;" x1="33.0879" x2="148.7261" y1="157.875" y2="157.875"/><text fill="#000000" font-family="sans-serif" font-size="10" lengthAdjust="spacing" textLength="40.1758" x="49.9568" y="153.5166">Initiates</text><text fill="#000000" font-family="sans-serif" font-size="10" lengthAdjust="spacing" textLength="3.1787" x="90.1326" y="153.5166">&#160;</text><text fill="#000000" font-family="sans-serif" font-size="10" lengthAdjust="spacing" textLength="44.5459" x="93.3113" y="153.5166">payment</text><polygon fill="#2980B9" points="327.2656,191.1563,337.2656,195.1563,327.2656,199.1563,331.2656,195.1563" style="stroke:#2980B9;stroke-width:1.0;"/><line style="stroke:#2980B9;stroke-width:1.0;" x1="154.7261" x2="333.2656" y1="195.1563" y2="195.1563"/><text fill="#000000" font-family="sans-serif" font-size="10" lengthAdjust="spacing" textLength="49.6924" x="198.2874" y="179.1572">Processes</text><text fill="#000000" font-family="sans-serif" font-size="10" lengthAdjust="spacing" textLength="3.1787" x="247.9797" y="179.1572">&#160;</text><text fill="#000000" font-family="sans-serif" font-size="10" lengthAdjust="spacing" textLength="44.5459" x="251.1584" y="179.1572">payment</text><text fill="#000000" font-family="sans-serif" font-size="10" lengthAdjust="spacing" textLength="38.2324" x="227.8796" y="190.7979">request</text><polygon fill="#2980B9" points="494.1694,228.4375,504.1694,232.4375,494.1694,236.4375,498.1694,232.4375" style="stroke:#2980B9;stroke-width:1.0;"/><line style="stroke:#2980B9;stroke-width:1.0;" x1="339.2656" x2="500.1694" y1="232.4375" y2="232.4375"/><text fill="#000000" font-family="sans-serif" font-size="10" lengthAdjust="spacing" textLength="31.8604" x="382.925" y="216.4385">Stores</text><text fill="#000000" font-family="sans-serif" font-size="10" lengthAdjust="spacing" textLength="3.1787" x="414.7854" y="216.4385">&#160;</text><text fill="#000000" font-family="sans-serif" font-size="10" lengthAdjust="spacing" textLength="44.5459" x="417.9641" y="216.4385">payment</text><text fill="#000000" font-family="sans-serif" font-size="10" lengthAdjust="spacing" textLength="33.3154" x="406.0598" y="228.0791">details</text><polygon fill="#2980B9" points="350.2656,265.7188,340.2656,269.7188,350.2656,273.7188,346.2656,269.7188" style="stroke:#2980B9;stroke-width:1.0;"/><line style="stroke:#2980B9;stroke-width:1.0;stroke-dasharray:2.0,2.0;" x1="344.2656" x2="505.1694" y1="269.7188" y2="269.7188"/><text fill="#000000" font-family="sans-serif" font-size="10" lengthAdjust="spacing" textLength="44.7998" x="376.4553" y="253.7197">Confirms</text><text fill="#000000" font-family="sans-serif" font-size="10" lengthAdjust="spacing" textLength="3.1787" x="421.2551" y="253.7197">&#160;</text><text fill="#000000" font-family="sans-serif" font-size="10" lengthAdjust="spacing" textLength="44.5459" x="424.4338" y="253.7197">payment</text><text fill="#000000" font-family="sans-serif" font-size="10" lengthAdjust="spacing" textLength="37.9883" x="403.7234" y="265.3604">storage</text><polygon fill="#2980B9" points="661.0732,303,671.0732,307,661.0732,311,665.0732,307" style="stroke:#2980B9;stroke-width:1.0;"/><line style="stroke:#2980B9;stroke-width:1.0;stroke-dasharray:2.0,2.0;" x1="339.2656" x2="667.0732" y1="307" y2="307"/><text fill="#000000" font-family="sans-serif" font-size="10" lengthAdjust="spacing" textLength="37.959" x="468.5132" y="291.001">Notifies</text><text fill="#000000" font-family="sans-serif" font-size="10" lengthAdjust="spacing" textLength="3.1787" x="506.4722" y="291.001">&#160;</text><text fill="#000000" font-family="sans-serif" font-size="10" lengthAdjust="spacing" textLength="19.6582" x="509.6509" y="291.001">cart</text><text fill="#000000" font-family="sans-serif" font-size="10" lengthAdjust="spacing" textLength="3.1787" x="529.3091" y="291.001">&#160;</text><text fill="#000000" font-family="sans-serif" font-size="10" lengthAdjust="spacing" textLength="11.3379" x="532.4878" y="291.001">as</text><text fill="#000000" font-family="sans-serif" font-size="10" lengthAdjust="spacing" textLength="21.6016" x="495.3687" y="302.6416">paid</text><polygon fill="#2980B9" points="350.2656,351.9219,340.2656,355.9219,350.2656,359.9219,346.2656,355.9219" style="stroke:#2980B9;stroke-width:1.0;"/><line style="stroke:#2980B9;stroke-width:1.0;" x1="344.2656" x2="672.0732" y1="355.9219" y2="355.9219"/><text fill="#000000" font-family="sans-serif" font-size="10" lengthAdjust="spacing" textLength="71.7529" x="470.293" y="328.2822">Acknowledges</text><text fill="#000000" font-family="sans-serif" font-size="10" lengthAdjust="spacing" textLength="44.5459" x="483.8965" y="339.9229">payment</text><text fill="#000000" font-family="sans-serif" font-size="10" lengthAdjust="spacing" textLength="56.2354" x="478.0518" y="351.5635">notification</text><polygon fill="#2980B9" points="165.7261,389.2031,155.7261,393.2031,165.7261,397.2031,161.7261,393.2031" style="stroke:#2980B9;stroke-width:1.0;"/><line style="stroke:#2980B9;stroke-width:1.0;stroke-dasharray:2.0,2.0;" x1="159.7261" x2="338.2656" y1="393.2031" y2="393.2031"/><text fill="#000000" font-family="sans-serif" font-size="10" lengthAdjust="spacing" textLength="39.0186" x="203.6243" y="377.2041">Returns</text><text fill="#000000" font-family="sans-serif" font-size="10" lengthAdjust="spacing" textLength="3.1787" x="242.6428" y="377.2041">&#160;</text><text fill="#000000" font-family="sans-serif" font-size="10" lengthAdjust="spacing" textLength="44.5459" x="245.8215" y="377.2041">payment</text><text fill="#000000" font-family="sans-serif" font-size="10" lengthAdjust="spacing" textLength="30.7275" x="231.6321" y="388.8447">status</text><polygon fill="#2980B9" points="820.7266,426.4844,830.7266,430.4844,820.7266,434.4844,824.7266,430.4844" style="stroke:#2980B9;stroke-width:1.0;"/><line style="stroke:#2980B9;stroke-width:1.0;" x1="673.0732" x2="826.7266" y1="430.4844" y2="430.4844"/><text fill="#000000" font-family="sans-serif" font-size="10" lengthAdjust="spacing" textLength="41.4258" x="714.1597" y="414.4854">Updates</text><text fill="#000000" font-family="sans-serif" font-size="10" lengthAdjust="spacing" textLength="3.1787" x="755.5854" y="414.4854">&#160;</text><text fill="#000000" font-family="sans-serif" font-size="10" lengthAdjust="spacing" textLength="19.6582" x="758.7642" y="414.4854">cart</text><text fill="#000000" font-family="sans-serif" font-size="10" lengthAdjust="spacing" textLength="3.1787" x="778.4224" y="414.4854">&#160;</text><text fill="#000000" font-family="sans-serif" font-size="10" lengthAdjust="spacing" textLength="10.0391" x="781.6011" y="414.4854">to</text><text fill="#000000" font-family="sans-serif" font-size="10" lengthAdjust="spacing" textLength="21.6016" x="725.146" y="426.126">paid</text><text fill="#000000" font-family="sans-serif" font-size="10" lengthAdjust="spacing" textLength="3.1787" x="746.7476" y="426.126">&#160;</text><text fill="#000000" font-family="sans-serif" font-size="10" lengthAdjust="spacing" textLength="30.7275" x="749.9263" y="426.126">status</text><polygon fill="#2980B9" points="684.0732,452.125,674.0732,456.125,684.0732,460.125,680.0732,456.125" style="stroke:#2980B9;stroke-width:1.0;"/><line style="stroke:#2980B9;stroke-width:1.0;stroke-dasharray:2.0,2.0;" x1="678.0732" x2="831.7266" y1="456.125" y2="456.125"/><text fill="#000000" font-family="sans-serif" font-size="10" lengthAdjust="spacing" textLength="44.7998" x="711.2935" y="451.7666">Confirms</text><text fill="#000000" font-family="sans-serif" font-size="10" lengthAdjust="spacing" textLength="3.1787" x="756.0933" y="451.7666">&#160;</text><text fill="#000000" font-family="sans-serif" font-size="10" lengthAdjust="spacing" textLength="35.2344" x="759.272" y="451.7666">update</text><polygon fill="#2980B9" points="44.0879,489.4063,34.0879,493.4063,44.0879,497.4063,40.0879,493.4063" style="stroke:#2980B9;stroke-width:1.0;"/><line style="stroke:#2980B9;stroke-width:1.0;stroke-dasharray:2.0,2.0;" x1="38.0879" x2="153.7261" y1="493.4063" y2="493.4063"/><text fill="#000000" font-family="sans-serif" font-size="10" lengthAdjust="spacing" textLength="42.0703" x="49.0095" y="477.4072">Displays</text><text fill="#000000" font-family="sans-serif" font-size="10" lengthAdjust="spacing" textLength="3.1787" x="91.0798" y="477.4072">&#160;</text><text fill="#000000" font-family="sans-serif" font-size="10" lengthAdjust="spacing" textLength="44.5459" x="94.2585" y="477.4072">payment</text><text fill="#000000" font-family="sans-serif" font-size="10" lengthAdjust="spacing" textLength="63.3887" x="62.2126" y="489.0479">confirmation</text></g></svg>