<svg xmlns="http://www.w3.org/2000/svg" xmlns:xlink="http://www.w3.org/1999/xlink" contentStyleType="text/css" height="466px" preserveAspectRatio="none" style="width:558px;height:466px;background:#FFFFFF;" version="1.1" viewBox="0 0 558 466" width="558px" zoomAndPan="magnify"><title>Shelf - Dynamic</title><defs/><g><text fill="#000000" font-family="sans-serif" font-size="14" font-weight="bold" lengthAdjust="spacing" textLength="123.8398" x="218.8716" y="27.9951">Shelf - Dynamic</text><line style="stroke:#181818;stroke-width:0.5;stroke-dasharray:5.0,5.0;" x1="33" x2="33" y1="130.2344" y2="373.9219"/><line style="stroke:#181818;stroke-width:0.5;stroke-dasharray:5.0,5.0;" x1="154.1758" x2="154.1758" y1="130.2344" y2="373.9219"/><line style="stroke:#181818;stroke-width:0.5;stroke-dasharray:5.0,5.0;" x1="338.2764" x2="338.2764" y1="130.2344" y2="373.9219"/><line style="stroke:#181818;stroke-width:0.5;stroke-dasharray:5.0,5.0;" x1="498.2549" x2="498.2549" y1="130.2344" y2="373.9219"/><text fill="#000000" font-family="sans-serif" font-size="14" lengthAdjust="spacing" textLength="50.1758" x="5" y="115.292">Reader</text><text fill="#000000" font-family="sans-serif" font-size="10" lengthAdjust="spacing" textLength="41.7627" x="9.2065" y="127.876">[Person]</text><ellipse cx="33.0879" cy="50.7969" fill="#28B463" rx="8" ry="8" style="stroke:#181818;stroke-width:0.5;"/><path d="M33.0879,58.7969 L33.0879,85.7969 M20.0879,66.7969 L46.0879,66.7969 M33.0879,85.7969 L20.0879,100.7969 M33.0879,85.7969 L46.0879,100.7969 " fill="none" style="stroke:#181818;stroke-width:0.5;"/><text fill="#000000" font-family="sans-serif" font-size="14" lengthAdjust="spacing" textLength="50.1758" x="5" y="385.917">Reader</text><text fill="#000000" font-family="sans-serif" font-size="10" lengthAdjust="spacing" textLength="41.7627" x="9.2065" y="398.501">[Person]</text><ellipse cx="33.0879" cy="409.3594" fill="#28B463" rx="8" ry="8" style="stroke:#181818;stroke-width:0.5;"/><path d="M33.0879,417.3594 L33.0879,444.3594 M20.0879,425.3594 L46.0879,425.3594 M33.0879,444.3594 L20.0879,459.3594 M33.0879,444.3594 L46.0879,459.3594 " fill="none" style="stroke:#181818;stroke-width:0.5;"/><rect fill="#27AE60" height="41.9375" rx="2.5" ry="2.5" style="stroke:#1B7943;stroke-width:0.5;" width="167.1006" x="71.1758" y="87.2969"/><text fill="#FFFFFF" font-family="sans-serif" font-size="14" lengthAdjust="spacing" textLength="66.5479" x="121.4521" y="107.292">Shelf SPA</text><text fill="#FFFFFF" font-family="sans-serif" font-size="10" lengthAdjust="spacing" textLength="153.1006" x="78.1758" y="119.876">[Container: React Component]</text><rect fill="#27AE60" height="41.9375" rx="2.5" ry="2.5" style="stroke:#1B7943;stroke-width:0.5;" width="167.1006" x="71.1758" y="372.9219"/><text fill="#FFFFFF" font-family="sans-serif" font-size="14" lengthAdjust="spacing" textLength="66.5479" x="121.4521" y="392.917">Shelf SPA</text><text fill="#FFFFFF" font-family="sans-serif" font-size="10" lengthAdjust="spacing" textLength="153.1006" x="78.1758" y="405.501">[Container: React Component]</text><rect fill="#27AE60" height="41.9375" rx="2.5" ry="2.5" style="stroke:#1B7943;stroke-width:0.5;" width="181.9785" x="248.2764" y="87.2969"/><text fill="#FFFFFF" font-family="sans-serif" font-size="14" lengthAdjust="spacing" textLength="127.7773" x="275.377" y="107.292">Shelf Microservice</text><text fill="#FFFFFF" font-family="sans-serif" font-size="10" lengthAdjust="spacing" textLength="167.9785" x="255.2764" y="119.876">[Container: Java and Spring Boot]</text><rect fill="#27AE60" height="41.9375" rx="2.5" ry="2.5" style="stroke:#1B7943;stroke-width:0.5;" width="181.9785" x="248.2764" y="372.9219"/><text fill="#FFFFFF" font-family="sans-serif" font-size="14" lengthAdjust="spacing" textLength="127.7773" x="275.377" y="392.917">Shelf Microservice</text><text fill="#FFFFFF" font-family="sans-serif" font-size="10" lengthAdjust="spacing" textLength="167.9785" x="255.2764" y="405.501">[Container: Java and Spring Boot]</text><text fill="#000000" font-family="sans-serif" font-size="14" lengthAdjust="spacing" textLength="106.4424" x="442.6978" y="115.292">Shelf Database</text><text fill="#000000" font-family="sans-serif" font-size="10" lengthAdjust="spacing" textLength="111.3281" x="440.2549" y="127.876">[Container: MongoDB]</text><path d="M480.9189,66.2969 C480.9189,56.2969 498.9189,56.2969 498.9189,56.2969 C498.9189,56.2969 516.9189,56.2969 516.9189,66.2969 L516.9189,92.2969 C516.9189,102.2969 498.9189,102.2969 498.9189,102.2969 C498.9189,102.2969 480.9189,102.2969 480.9189,92.2969 L480.9189,66.2969 " fill="#8E44AD" style="stroke:#181818;stroke-width:1.5;"/><path d="M480.9189,66.2969 C480.9189,76.2969 498.9189,76.2969 498.9189,76.2969 C498.9189,76.2969 516.9189,76.2969 516.9189,66.2969 " fill="none" style="stroke:#181818;stroke-width:1.5;"/><text fill="#000000" font-family="sans-serif" font-size="14" lengthAdjust="spacing" textLength="106.4424" x="442.6978" y="385.917">Shelf Database</text><text fill="#000000" font-family="sans-serif" font-size="10" lengthAdjust="spacing" textLength="111.3281" x="440.2549" y="398.501">[Container: MongoDB]</text><path d="M480.9189,410.8594 C480.9189,400.8594 498.9189,400.8594 498.9189,400.8594 C498.9189,400.8594 516.9189,400.8594 516.9189,410.8594 L516.9189,436.8594 C516.9189,446.8594 498.9189,446.8594 498.9189,446.8594 C498.9189,446.8594 480.9189,446.8594 480.9189,436.8594 L480.9189,410.8594 " fill="#8E44AD" style="stroke:#181818;stroke-width:1.5;"/><path d="M480.9189,410.8594 C480.9189,420.8594 498.9189,420.8594 498.9189,420.8594 C498.9189,420.8594 516.9189,420.8594 516.9189,410.8594 " fill="none" style="stroke:#181818;stroke-width:1.5;"/><polygon fill="#2980B9" points="142.7261,165.5156,152.7261,169.5156,142.7261,173.5156,146.7261,169.5156" style="stroke:#2980B9;stroke-width:1.0;"/><line style="stroke:#2980B9;stroke-width:1.0;" x1="33.0879" x2="148.7261" y1="169.5156" y2="169.5156"/><text fill="#000000" font-family="sans-serif" font-size="10" lengthAdjust="spacing" textLength="46.2793" x="45.4353" y="153.5166">Requests</text><text fill="#000000" font-family="sans-serif" font-size="10" lengthAdjust="spacing" textLength="3.1787" x="91.7146" y="153.5166">&#160;</text><text fill="#000000" font-family="sans-serif" font-size="10" lengthAdjust="spacing" textLength="47.4854" x="94.8933" y="153.5166">borrowed</text><text fill="#000000" font-family="sans-serif" font-size="10" lengthAdjust="spacing" textLength="27.8027" x="66.9026" y="165.1572">items</text><text fill="#000000" font-family="sans-serif" font-size="10" lengthAdjust="spacing" textLength="3.1787" x="94.7053" y="165.1572">&#160;</text><text fill="#000000" font-family="sans-serif" font-size="10" lengthAdjust="spacing" textLength="23.0273" x="97.884" y="165.1572">view</text><polygon fill="#2980B9" points="327.2656,202.7969,337.2656,206.7969,327.2656,210.7969,331.2656,206.7969" style="stroke:#2980B9;stroke-width:1.0;"/><line style="stroke:#2980B9;stroke-width:1.0;" x1="154.7261" x2="333.2656" y1="206.7969" y2="206.7969"/><text fill="#000000" font-family="sans-serif" font-size="10" lengthAdjust="spacing" textLength="39.0234" x="202.1521" y="190.7979">Fetches</text><text fill="#000000" font-family="sans-serif" font-size="10" lengthAdjust="spacing" textLength="3.1787" x="241.1755" y="190.7979">&#160;</text><text fill="#000000" font-family="sans-serif" font-size="10" lengthAdjust="spacing" textLength="47.4854" x="244.3542" y="190.7979">borrowed</text><text fill="#000000" font-family="sans-serif" font-size="10" lengthAdjust="spacing" textLength="27.8027" x="233.0945" y="202.4385">items</text><polygon fill="#2980B9" points="486.9189,240.0781,496.9189,244.0781,486.9189,248.0781,490.9189,244.0781" style="stroke:#2980B9;stroke-width:1.0;"/><line style="stroke:#2980B9;stroke-width:1.0;" x1="339.2656" x2="492.9189" y1="244.0781" y2="244.0781"/><text fill="#000000" font-family="sans-serif" font-size="10" lengthAdjust="spacing" textLength="47.3438" x="370.0884" y="228.0791">Retrieves</text><text fill="#000000" font-family="sans-serif" font-size="10" lengthAdjust="spacing" textLength="3.1787" x="417.4321" y="228.0791">&#160;</text><text fill="#000000" font-family="sans-serif" font-size="10" lengthAdjust="spacing" textLength="47.4854" x="420.6108" y="228.0791">borrowed</text><text fill="#000000" font-family="sans-serif" font-size="10" lengthAdjust="spacing" textLength="27.8027" x="392.3394" y="239.7197">items</text><text fill="#000000" font-family="sans-serif" font-size="10" lengthAdjust="spacing" textLength="3.1787" x="420.1421" y="239.7197">&#160;</text><text fill="#000000" font-family="sans-serif" font-size="10" lengthAdjust="spacing" textLength="22.5244" x="423.3208" y="239.7197">data</text><polygon fill="#2980B9" points="350.2656,277.3594,340.2656,281.3594,350.2656,285.3594,346.2656,281.3594" style="stroke:#2980B9;stroke-width:1.0;"/><line style="stroke:#2980B9;stroke-width:1.0;stroke-dasharray:2.0,2.0;" x1="344.2656" x2="497.9189" y1="281.3594" y2="281.3594"/><text fill="#000000" font-family="sans-serif" font-size="10" lengthAdjust="spacing" textLength="39.0186" x="374.251" y="265.3604">Returns</text><text fill="#000000" font-family="sans-serif" font-size="10" lengthAdjust="spacing" textLength="3.1787" x="413.2695" y="265.3604">&#160;</text><text fill="#000000" font-family="sans-serif" font-size="10" lengthAdjust="spacing" textLength="47.4854" x="416.4482" y="265.3604">borrowed</text><text fill="#000000" font-family="sans-serif" font-size="10" lengthAdjust="spacing" textLength="27.8027" x="392.3394" y="277.001">items</text><text fill="#000000" font-family="sans-serif" font-size="10" lengthAdjust="spacing" textLength="3.1787" x="420.1421" y="277.001">&#160;</text><text fill="#000000" font-family="sans-serif" font-size="10" lengthAdjust="spacing" textLength="22.5244" x="423.3208" y="277.001">data</text><polygon fill="#2980B9" points="165.7261,314.6406,155.7261,318.6406,165.7261,322.6406,161.7261,318.6406" style="stroke:#2980B9;stroke-width:1.0;"/><line style="stroke:#2980B9;stroke-width:1.0;stroke-dasharray:2.0,2.0;" x1="159.7261" x2="338.2656" y1="318.6406" y2="318.6406"/><text fill="#000000" font-family="sans-serif" font-size="10" lengthAdjust="spacing" textLength="39.0186" x="202.1545" y="302.6416">Returns</text><text fill="#000000" font-family="sans-serif" font-size="10" lengthAdjust="spacing" textLength="3.1787" x="241.1731" y="302.6416">&#160;</text><text fill="#000000" font-family="sans-serif" font-size="10" lengthAdjust="spacing" textLength="47.4854" x="244.3518" y="302.6416">borrowed</text><text fill="#000000" font-family="sans-serif" font-size="10" lengthAdjust="spacing" textLength="27.8027" x="219.762" y="314.2822">items</text><text fill="#000000" font-family="sans-serif" font-size="10" lengthAdjust="spacing" textLength="3.1787" x="247.5647" y="314.2822">&#160;</text><text fill="#000000" font-family="sans-serif" font-size="10" lengthAdjust="spacing" textLength="10.0391" x="250.7434" y="314.2822">to</text><text fill="#000000" font-family="sans-serif" font-size="10" lengthAdjust="spacing" textLength="3.1787" x="260.7825" y="314.2822">&#160;</text><text fill="#000000" font-family="sans-serif" font-size="10" lengthAdjust="spacing" textLength="10.2686" x="263.9612" y="314.2822">UI</text><polygon fill="#2980B9" points="44.0879,351.9219,34.0879,355.9219,44.0879,359.9219,40.0879,355.9219" style="stroke:#2980B9;stroke-width:1.0;"/><line style="stroke:#2980B9;stroke-width:1.0;stroke-dasharray:2.0,2.0;" x1="38.0879" x2="153.7261" y1="355.9219" y2="355.9219"/><text fill="#000000" font-family="sans-serif" font-size="10" lengthAdjust="spacing" textLength="42.0703" x="47.5398" y="339.9229">Displays</text><text fill="#000000" font-family="sans-serif" font-size="10" lengthAdjust="spacing" textLength="3.1787" x="89.6101" y="339.9229">&#160;</text><text fill="#000000" font-family="sans-serif" font-size="10" lengthAdjust="spacing" textLength="47.4854" x="92.7888" y="339.9229">borrowed</text><text fill="#000000" font-family="sans-serif" font-size="10" lengthAdjust="spacing" textLength="27.8027" x="66.9026" y="351.5635">items</text><text fill="#000000" font-family="sans-serif" font-size="10" lengthAdjust="spacing" textLength="3.1787" x="94.7053" y="351.5635">&#160;</text><text fill="#000000" font-family="sans-serif" font-size="10" lengthAdjust="spacing" textLength="23.0273" x="97.884" y="351.5635">view</text></g></svg>