<svg xmlns="http://www.w3.org/2000/svg" xmlns:xlink="http://www.w3.org/1999/xlink" contentStyleType="text/css" height="517px" preserveAspectRatio="none" style="width:811px;height:517px;background:#FFFFFF;" version="1.1" viewBox="0 0 811 517" width="811px" zoomAndPan="magnify"><title>Cart - Dynamic</title><defs/><g><text fill="#000000" font-family="sans-serif" font-size="14" font-weight="bold" lengthAdjust="spacing" textLength="116.7236" x="346.1938" y="27.9951">Cart - Dynamic</text><line style="stroke:#181818;stroke-width:0.5;stroke-dasharray:5.0,5.0;" x1="33" x2="33" y1="130.2344" y2="425.2031"/><line style="stroke:#181818;stroke-width:0.5;stroke-dasharray:5.0,5.0;" x1="154.1758" x2="154.1758" y1="130.2344" y2="425.2031"/><line style="stroke:#181818;stroke-width:0.5;stroke-dasharray:5.0,5.0;" x1="338.2764" x2="338.2764" y1="130.2344" y2="425.2031"/><line style="stroke:#181818;stroke-width:0.5;stroke-dasharray:5.0,5.0;" x1="498.2549" x2="498.2549" y1="130.2344" y2="425.2031"/><line style="stroke:#181818;stroke-width:0.5;stroke-dasharray:5.0,5.0;" x1="685.583" x2="685.583" y1="130.2344" y2="425.2031"/><text fill="#000000" font-family="sans-serif" font-size="14" lengthAdjust="spacing" textLength="50.1758" x="5" y="115.292">Reader</text><text fill="#000000" font-family="sans-serif" font-size="10" lengthAdjust="spacing" textLength="41.7627" x="9.2065" y="127.876">[Person]</text><ellipse cx="33.0879" cy="50.7969" fill="#00796B" rx="8" ry="8" style="stroke:#181818;stroke-width:0.5;"/><path d="M33.0879,58.7969 L33.0879,85.7969 M20.0879,66.7969 L46.0879,66.7969 M33.0879,85.7969 L20.0879,100.7969 M33.0879,85.7969 L46.0879,100.7969 " fill="none" style="stroke:#181818;stroke-width:0.5;"/><text fill="#000000" font-family="sans-serif" font-size="14" lengthAdjust="spacing" textLength="50.1758" x="5" y="437.1982">Reader</text><text fill="#000000" font-family="sans-serif" font-size="10" lengthAdjust="spacing" textLength="41.7627" x="9.2065" y="449.7822">[Person]</text><ellipse cx="33.0879" cy="460.6406" fill="#00796B" rx="8" ry="8" style="stroke:#181818;stroke-width:0.5;"/><path d="M33.0879,468.6406 L33.0879,495.6406 M20.0879,476.6406 L46.0879,476.6406 M33.0879,495.6406 L20.0879,510.6406 M33.0879,495.6406 L46.0879,510.6406 " fill="none" style="stroke:#181818;stroke-width:0.5;"/><rect fill="#26A69A" height="41.9375" rx="2.5" ry="2.5" style="stroke:#1A746B;stroke-width:0.5;" width="167.1006" x="71.1758" y="87.2969"/><text fill="#FFFFFF" font-family="sans-serif" font-size="14" lengthAdjust="spacing" textLength="60.9561" x="124.248" y="107.292">Cart SPA</text><text fill="#FFFFFF" font-family="sans-serif" font-size="10" lengthAdjust="spacing" textLength="153.1006" x="78.1758" y="119.876">[Container: React Component]</text><rect fill="#26A69A" height="41.9375" rx="2.5" ry="2.5" style="stroke:#1A746B;stroke-width:0.5;" width="167.1006" x="71.1758" y="424.2031"/><text fill="#FFFFFF" font-family="sans-serif" font-size="14" lengthAdjust="spacing" textLength="60.9561" x="124.248" y="444.1982">Cart SPA</text><text fill="#FFFFFF" font-family="sans-serif" font-size="10" lengthAdjust="spacing" textLength="153.1006" x="78.1758" y="456.7822">[Container: React Component]</text><rect fill="#26A69A" height="41.9375" rx="2.5" ry="2.5" style="stroke:#1A746B;stroke-width:0.5;" width="181.9785" x="248.2764" y="87.2969"/><text fill="#FFFFFF" font-family="sans-serif" font-size="14" lengthAdjust="spacing" textLength="122.1855" x="278.1729" y="107.292">Cart Microservice</text><text fill="#FFFFFF" font-family="sans-serif" font-size="10" lengthAdjust="spacing" textLength="167.9785" x="255.2764" y="119.876">[Container: Java and Spring Boot]</text><rect fill="#26A69A" height="41.9375" rx="2.5" ry="2.5" style="stroke:#1A746B;stroke-width:0.5;" width="181.9785" x="248.2764" y="424.2031"/><text fill="#FFFFFF" font-family="sans-serif" font-size="14" lengthAdjust="spacing" textLength="122.1855" x="278.1729" y="444.1982">Cart Microservice</text><text fill="#FFFFFF" font-family="sans-serif" font-size="10" lengthAdjust="spacing" textLength="167.9785" x="255.2764" y="456.7822">[Container: Java and Spring Boot]</text><text fill="#000000" font-family="sans-serif" font-size="14" lengthAdjust="spacing" textLength="100.8506" x="445.4937" y="115.292">Cart Database</text><text fill="#000000" font-family="sans-serif" font-size="10" lengthAdjust="spacing" textLength="111.3281" x="440.2549" y="127.876">[Container: MongoDB]</text><path d="M480.9189,66.2969 C480.9189,56.2969 498.9189,56.2969 498.9189,56.2969 C498.9189,56.2969 516.9189,56.2969 516.9189,66.2969 L516.9189,92.2969 C516.9189,102.2969 498.9189,102.2969 498.9189,102.2969 C498.9189,102.2969 480.9189,102.2969 480.9189,92.2969 L480.9189,66.2969 " fill="#26A69A" style="stroke:#181818;stroke-width:1.5;"/><path d="M480.9189,66.2969 C480.9189,76.2969 498.9189,76.2969 498.9189,76.2969 C498.9189,76.2969 516.9189,76.2969 516.9189,66.2969 " fill="none" style="stroke:#181818;stroke-width:1.5;"/><text fill="#000000" font-family="sans-serif" font-size="14" lengthAdjust="spacing" textLength="100.8506" x="445.4937" y="437.1982">Cart Database</text><text fill="#000000" font-family="sans-serif" font-size="10" lengthAdjust="spacing" textLength="111.3281" x="440.2549" y="449.7822">[Container: MongoDB]</text><path d="M480.9189,462.1406 C480.9189,452.1406 498.9189,452.1406 498.9189,452.1406 C498.9189,452.1406 516.9189,452.1406 516.9189,462.1406 L516.9189,488.1406 C516.9189,498.1406 498.9189,498.1406 498.9189,498.1406 C498.9189,498.1406 480.9189,498.1406 480.9189,488.1406 L480.9189,462.1406 " fill="#26A69A" style="stroke:#181818;stroke-width:1.5;"/><path d="M480.9189,462.1406 C480.9189,472.1406 498.9189,472.1406 498.9189,472.1406 C498.9189,472.1406 516.9189,472.1406 516.9189,462.1406 " fill="none" style="stroke:#181818;stroke-width:1.5;"/><rect fill="#26A69A" height="41.9375" rx="2.5" ry="2.5" style="stroke:#1A746B;stroke-width:0.5;" width="237.5283" x="567.583" y="87.2969"/><text fill="#FFFFFF" font-family="sans-serif" font-size="14" lengthAdjust="spacing" textLength="223.5283" x="574.583" y="107.292">Recommendations Microservice</text><text fill="#FFFFFF" font-family="sans-serif" font-size="10" lengthAdjust="spacing" textLength="167.9785" x="602.3579" y="119.876">[Container: Java and Spring Boot]</text><rect fill="#26A69A" height="41.9375" rx="2.5" ry="2.5" style="stroke:#1A746B;stroke-width:0.5;" width="237.5283" x="567.583" y="424.2031"/><text fill="#FFFFFF" font-family="sans-serif" font-size="14" lengthAdjust="spacing" textLength="223.5283" x="574.583" y="444.1982">Recommendations Microservice</text><text fill="#FFFFFF" font-family="sans-serif" font-size="10" lengthAdjust="spacing" textLength="167.9785" x="602.3579" y="456.7822">[Container: Java and Spring Boot]</text><polygon fill="#004D40" points="142.7261,153.875,152.7261,157.875,142.7261,161.875,146.7261,157.875" style="stroke:#004D40;stroke-width:1.0;"/><line style="stroke:#004D40;stroke-width:1.0;" x1="33.0879" x2="148.7261" y1="157.875" y2="157.875"/><text fill="#000000" font-family="sans-serif" font-size="10" lengthAdjust="spacing" textLength="24.7461" x="50.6208" y="153.5166">Adds</text><text fill="#000000" font-family="sans-serif" font-size="10" lengthAdjust="spacing" textLength="3.1787" x="75.3669" y="153.5166">&#160;</text><text fill="#000000" font-family="sans-serif" font-size="10" lengthAdjust="spacing" textLength="22.5928" x="78.5457" y="153.5166">item</text><text fill="#000000" font-family="sans-serif" font-size="10" lengthAdjust="spacing" textLength="3.1787" x="101.1384" y="153.5166">&#160;</text><text fill="#000000" font-family="sans-serif" font-size="10" lengthAdjust="spacing" textLength="10.0391" x="104.3171" y="153.5166">to</text><text fill="#000000" font-family="sans-serif" font-size="10" lengthAdjust="spacing" textLength="3.1787" x="114.3562" y="153.5166">&#160;</text><text fill="#000000" font-family="sans-serif" font-size="10" lengthAdjust="spacing" textLength="19.6582" x="117.5349" y="153.5166">cart</text><polygon fill="#004D40" points="327.2656,191.1563,337.2656,195.1563,327.2656,199.1563,331.2656,195.1563" style="stroke:#004D40;stroke-width:1.0;"/><line style="stroke:#004D40;stroke-width:1.0;" x1="154.7261" x2="333.2656" y1="195.1563" y2="195.1563"/><text fill="#000000" font-family="sans-serif" font-size="10" lengthAdjust="spacing" textLength="49.6924" x="210.7312" y="179.1572">Processes</text><text fill="#000000" font-family="sans-serif" font-size="10" lengthAdjust="spacing" textLength="3.1787" x="260.4236" y="179.1572">&#160;</text><text fill="#000000" font-family="sans-serif" font-size="10" lengthAdjust="spacing" textLength="19.6582" x="263.6023" y="179.1572">cart</text><text fill="#000000" font-family="sans-serif" font-size="10" lengthAdjust="spacing" textLength="40.7568" x="226.6174" y="190.7979">addition</text><polygon fill="#004D40" points="486.9189,216.7969,496.9189,220.7969,486.9189,224.7969,490.9189,220.7969" style="stroke:#004D40;stroke-width:1.0;"/><line style="stroke:#004D40;stroke-width:1.0;" x1="339.2656" x2="492.9189" y1="220.7969" y2="220.7969"/><text fill="#000000" font-family="sans-serif" font-size="10" lengthAdjust="spacing" textLength="31.8604" x="378.8579" y="216.4385">Stores</text><text fill="#000000" font-family="sans-serif" font-size="10" lengthAdjust="spacing" textLength="3.1787" x="410.7183" y="216.4385">&#160;</text><text fill="#000000" font-family="sans-serif" font-size="10" lengthAdjust="spacing" textLength="19.6582" x="413.897" y="216.4385">cart</text><text fill="#000000" font-family="sans-serif" font-size="10" lengthAdjust="spacing" textLength="3.1787" x="433.5552" y="216.4385">&#160;</text><text fill="#000000" font-family="sans-serif" font-size="10" lengthAdjust="spacing" textLength="22.5928" x="436.7339" y="216.4385">item</text><polygon fill="#004D40" points="350.2656,242.4375,340.2656,246.4375,350.2656,250.4375,346.2656,246.4375" style="stroke:#004D40;stroke-width:1.0;"/><line style="stroke:#004D40;stroke-width:1.0;stroke-dasharray:2.0,2.0;" x1="344.2656" x2="497.9189" y1="246.4375" y2="246.4375"/><text fill="#000000" font-family="sans-serif" font-size="10" lengthAdjust="spacing" textLength="44.7998" x="376.1089" y="242.0791">Confirms</text><text fill="#000000" font-family="sans-serif" font-size="10" lengthAdjust="spacing" textLength="3.1787" x="420.9087" y="242.0791">&#160;</text><text fill="#000000" font-family="sans-serif" font-size="10" lengthAdjust="spacing" textLength="37.9883" x="424.0874" y="242.0791">storage</text><polygon fill="#004D40" points="674.3472,303,684.3472,307,674.3472,311,678.3472,307" style="stroke:#004D40;stroke-width:1.0;"/><line style="stroke:#004D40;stroke-width:1.0;" x1="339.2656" x2="680.3472" y1="307" y2="307"/><text fill="#000000" font-family="sans-serif" font-size="10" lengthAdjust="spacing" textLength="41.4258" x="492.0935" y="267.7197">Updates</text><text fill="#000000" font-family="sans-serif" font-size="10" lengthAdjust="spacing" textLength="90.6934" x="467.4597" y="279.3604">recommendations</text><text fill="#000000" font-family="sans-serif" font-size="10" lengthAdjust="spacing" textLength="30.1855" x="478.4778" y="291.001">based</text><text fill="#000000" font-family="sans-serif" font-size="10" lengthAdjust="spacing" textLength="3.1787" x="508.6633" y="291.001">&#160;</text><text fill="#000000" font-family="sans-serif" font-size="10" lengthAdjust="spacing" textLength="12.4561" x="511.842" y="291.001">on</text><text fill="#000000" font-family="sans-serif" font-size="10" lengthAdjust="spacing" textLength="3.1787" x="524.2981" y="291.001">&#160;</text><text fill="#000000" font-family="sans-serif" font-size="10" lengthAdjust="spacing" textLength="19.6582" x="527.4768" y="291.001">cart</text><text fill="#000000" font-family="sans-serif" font-size="10" lengthAdjust="spacing" textLength="36.8604" x="494.3762" y="302.6416">activity</text><polygon fill="#004D40" points="350.2656,340.2813,340.2656,344.2813,350.2656,348.2813,346.2656,344.2813" style="stroke:#004D40;stroke-width:1.0;"/><line style="stroke:#004D40;stroke-width:1.0;stroke-dasharray:2.0,2.0;" x1="344.2656" x2="685.3472" y1="344.2813" y2="344.2813"/><text fill="#000000" font-family="sans-serif" font-size="10" lengthAdjust="spacing" textLength="71.7529" x="476.9299" y="328.2822">Acknowledges</text><text fill="#000000" font-family="sans-serif" font-size="10" lengthAdjust="spacing" textLength="35.2344" x="495.1892" y="339.9229">update</text><polygon fill="#004D40" points="165.7261,377.5625,155.7261,381.5625,165.7261,385.5625,161.7261,381.5625" style="stroke:#004D40;stroke-width:1.0;"/><line style="stroke:#004D40;stroke-width:1.0;stroke-dasharray:2.0,2.0;" x1="159.7261" x2="338.2656" y1="381.5625" y2="381.5625"/><text fill="#000000" font-family="sans-serif" font-size="10" lengthAdjust="spacing" textLength="44.7998" x="213.1775" y="365.5635">Confirms</text><text fill="#000000" font-family="sans-serif" font-size="10" lengthAdjust="spacing" textLength="3.1787" x="257.9773" y="365.5635">&#160;</text><text fill="#000000" font-family="sans-serif" font-size="10" lengthAdjust="spacing" textLength="19.6582" x="261.156" y="365.5635">cart</text><text fill="#000000" font-family="sans-serif" font-size="10" lengthAdjust="spacing" textLength="40.7568" x="226.6174" y="377.2041">addition</text><polygon fill="#004D40" points="44.0879,403.2031,34.0879,407.2031,44.0879,411.2031,40.0879,407.2031" style="stroke:#004D40;stroke-width:1.0;"/><line style="stroke:#004D40;stroke-width:1.0;stroke-dasharray:2.0,2.0;" x1="38.0879" x2="153.7261" y1="407.2031" y2="407.2031"/><text fill="#000000" font-family="sans-serif" font-size="10" lengthAdjust="spacing" textLength="42.0703" x="61.4534" y="402.8447">Displays</text><text fill="#000000" font-family="sans-serif" font-size="10" lengthAdjust="spacing" textLength="3.1787" x="103.5237" y="402.8447">&#160;</text><text fill="#000000" font-family="sans-serif" font-size="10" lengthAdjust="spacing" textLength="19.6582" x="106.7024" y="402.8447">cart</text></g></svg>