<svg xmlns="http://www.w3.org/2000/svg" xmlns:xlink="http://www.w3.org/1999/xlink" contentStyleType="text/css" height="449px" preserveAspectRatio="none" style="width:704px;height:449px;background:#FFFFFF;" version="1.1" viewBox="0 0 704 449" width="704px" zoomAndPan="magnify"><title>Cart - Dynamic</title><defs/><g><text fill="#000000" font-family="sans-serif" font-size="14" font-weight="bold" lengthAdjust="spacing" textLength="116.7236" x="292.77" y="27.9951">Cart - Dynamic</text><line style="stroke:#181818;stroke-width:0.5;stroke-dasharray:5.0,5.0;" x1="95" x2="95" y1="116.2344" y2="359.9219"/><line style="stroke:#181818;stroke-width:0.5;stroke-dasharray:5.0,5.0;" x1="286.9785" x2="286.9785" y1="116.2344" y2="359.9219"/><line style="stroke:#181818;stroke-width:0.5;stroke-dasharray:5.0,5.0;" x1="446.957" x2="446.957" y1="116.2344" y2="359.9219"/><line style="stroke:#181818;stroke-width:0.5;stroke-dasharray:5.0,5.0;" x1="606.2852" x2="606.2852" y1="116.2344" y2="359.9219"/><rect fill="#26A69A" height="41.9375" rx="2.5" ry="2.5" style="stroke:#1A746B;stroke-width:0.5;" width="181.9785" x="5" y="73.2969"/><text fill="#FFFFFF" font-family="sans-serif" font-size="14" lengthAdjust="spacing" textLength="122.1855" x="34.8965" y="93.292">Cart Microservice</text><text fill="#FFFFFF" font-family="sans-serif" font-size="10" lengthAdjust="spacing" textLength="167.9785" x="12" y="105.876">[Container: Java and Spring Boot]</text><rect fill="#26A69A" height="41.9375" rx="2.5" ry="2.5" style="stroke:#1A746B;stroke-width:0.5;" width="181.9785" x="5" y="358.9219"/><text fill="#FFFFFF" font-family="sans-serif" font-size="14" lengthAdjust="spacing" textLength="122.1855" x="34.8965" y="378.917">Cart Microservice</text><text fill="#FFFFFF" font-family="sans-serif" font-size="10" lengthAdjust="spacing" textLength="167.9785" x="12" y="391.501">[Container: Java and Spring Boot]</text><rect fill="#26A69A" height="41.9375" rx="2.5" ry="2.5" style="stroke:#1A746B;stroke-width:0.5;" width="181.9785" x="196.9785" y="73.2969"/><text fill="#FFFFFF" font-family="sans-serif" font-size="14" lengthAdjust="spacing" textLength="147.1641" x="214.3857" y="93.292">Finance Microservice</text><text fill="#FFFFFF" font-family="sans-serif" font-size="10" lengthAdjust="spacing" textLength="167.9785" x="203.9785" y="105.876">[Container: Java and Spring Boot]</text><rect fill="#26A69A" height="41.9375" rx="2.5" ry="2.5" style="stroke:#1A746B;stroke-width:0.5;" width="181.9785" x="196.9785" y="358.9219"/><text fill="#FFFFFF" font-family="sans-serif" font-size="14" lengthAdjust="spacing" textLength="147.1641" x="214.3857" y="378.917">Finance Microservice</text><text fill="#FFFFFF" font-family="sans-serif" font-size="10" lengthAdjust="spacing" textLength="167.9785" x="203.9785" y="391.501">[Container: Java and Spring Boot]</text><text fill="#000000" font-family="sans-serif" font-size="14" lengthAdjust="spacing" textLength="100.8506" x="394.1958" y="101.292">Cart Database</text><text fill="#000000" font-family="sans-serif" font-size="10" lengthAdjust="spacing" textLength="111.3281" x="388.957" y="113.876">[Container: MongoDB]</text><path d="M429.6211,52.2969 C429.6211,42.2969 447.6211,42.2969 447.6211,42.2969 C447.6211,42.2969 465.6211,42.2969 465.6211,52.2969 L465.6211,78.2969 C465.6211,88.2969 447.6211,88.2969 447.6211,88.2969 C447.6211,88.2969 429.6211,88.2969 429.6211,78.2969 L429.6211,52.2969 " fill="#26A69A" style="stroke:#181818;stroke-width:1.5;"/><path d="M429.6211,52.2969 C429.6211,62.2969 447.6211,62.2969 447.6211,62.2969 C447.6211,62.2969 465.6211,62.2969 465.6211,52.2969 " fill="none" style="stroke:#181818;stroke-width:1.5;"/><text fill="#000000" font-family="sans-serif" font-size="14" lengthAdjust="spacing" textLength="100.8506" x="394.1958" y="371.917">Cart Database</text><text fill="#000000" font-family="sans-serif" font-size="10" lengthAdjust="spacing" textLength="111.3281" x="388.957" y="384.501">[Container: MongoDB]</text><path d="M429.6211,396.8594 C429.6211,386.8594 447.6211,386.8594 447.6211,386.8594 C447.6211,386.8594 465.6211,386.8594 465.6211,396.8594 L465.6211,422.8594 C465.6211,432.8594 447.6211,432.8594 447.6211,432.8594 C447.6211,432.8594 429.6211,432.8594 429.6211,422.8594 L429.6211,396.8594 " fill="#26A69A" style="stroke:#181818;stroke-width:1.5;"/><path d="M429.6211,396.8594 C429.6211,406.8594 447.6211,406.8594 447.6211,406.8594 C447.6211,406.8594 465.6211,406.8594 465.6211,396.8594 " fill="none" style="stroke:#181818;stroke-width:1.5;"/><rect fill="#26A69A" height="41.9375" rx="2.5" ry="2.5" style="stroke:#1A746B;stroke-width:0.5;" width="181.9785" x="516.2852" y="73.2969"/><text fill="#FFFFFF" font-family="sans-serif" font-size="14" lengthAdjust="spacing" textLength="127.7773" x="543.3857" y="93.292">Shelf Microservice</text><text fill="#FFFFFF" font-family="sans-serif" font-size="10" lengthAdjust="spacing" textLength="167.9785" x="523.2852" y="105.876">[Container: Java and Spring Boot]</text><rect fill="#26A69A" height="41.9375" rx="2.5" ry="2.5" style="stroke:#1A746B;stroke-width:0.5;" width="181.9785" x="516.2852" y="358.9219"/><text fill="#FFFFFF" font-family="sans-serif" font-size="14" lengthAdjust="spacing" textLength="127.7773" x="543.3857" y="378.917">Shelf Microservice</text><text fill="#FFFFFF" font-family="sans-serif" font-size="10" lengthAdjust="spacing" textLength="167.9785" x="523.2852" y="391.501">[Container: Java and Spring Boot]</text><polygon fill="#004D40" points="106.9893,163.1563,96.9893,167.1563,106.9893,171.1563,102.9893,167.1563" style="stroke:#004D40;stroke-width:1.0;"/><line style="stroke:#004D40;stroke-width:1.0;stroke-dasharray:2.0,2.0;" x1="100.9893" x2="286.9678" y1="167.1563" y2="167.1563"/><text fill="#000000" font-family="sans-serif" font-size="10" lengthAdjust="spacing" textLength="37.959" x="166.5903" y="139.5166">Notifies</text><text fill="#000000" font-family="sans-serif" font-size="10" lengthAdjust="spacing" textLength="3.1787" x="204.5493" y="139.5166">&#160;</text><text fill="#000000" font-family="sans-serif" font-size="10" lengthAdjust="spacing" textLength="9.6387" x="207.728" y="139.5166">of</text><text fill="#000000" font-family="sans-serif" font-size="10" lengthAdjust="spacing" textLength="53.0566" x="165.4502" y="151.1572">completed</text><text fill="#000000" font-family="sans-serif" font-size="10" lengthAdjust="spacing" textLength="44.5459" x="169.7056" y="162.7979">payment</text><polygon fill="#004D40" points="275.9678,200.4375,285.9678,204.4375,275.9678,208.4375,279.9678,204.4375" style="stroke:#004D40;stroke-width:1.0;"/><line style="stroke:#004D40;stroke-width:1.0;" x1="95.9893" x2="281.9678" y1="204.4375" y2="204.4375"/><text fill="#000000" font-family="sans-serif" font-size="10" lengthAdjust="spacing" textLength="71.7529" x="156.1021" y="188.4385">Acknowledges</text><text fill="#000000" font-family="sans-serif" font-size="10" lengthAdjust="spacing" textLength="44.5459" x="169.7056" y="200.0791">payment</text><polygon fill="#004D40" points="435.6211,226.0781,445.6211,230.0781,435.6211,234.0781,439.6211,230.0781" style="stroke:#004D40;stroke-width:1.0;"/><line style="stroke:#004D40;stroke-width:1.0;" x1="95.9893" x2="441.6211" y1="230.0781" y2="230.0781"/><text fill="#000000" font-family="sans-serif" font-size="10" lengthAdjust="spacing" textLength="29.8682" x="225.8042" y="225.7197">Marks</text><text fill="#000000" font-family="sans-serif" font-size="10" lengthAdjust="spacing" textLength="3.1787" x="255.6724" y="225.7197">&#160;</text><text fill="#000000" font-family="sans-serif" font-size="10" lengthAdjust="spacing" textLength="19.6582" x="258.8511" y="225.7197">cart</text><text fill="#000000" font-family="sans-serif" font-size="10" lengthAdjust="spacing" textLength="3.1787" x="278.5093" y="225.7197">&#160;</text><text fill="#000000" font-family="sans-serif" font-size="10" lengthAdjust="spacing" textLength="11.3379" x="281.688" y="225.7197">as</text><text fill="#000000" font-family="sans-serif" font-size="10" lengthAdjust="spacing" textLength="3.1787" x="293.0259" y="225.7197">&#160;</text><text fill="#000000" font-family="sans-serif" font-size="10" lengthAdjust="spacing" textLength="21.6016" x="296.2046" y="225.7197">paid</text><polygon fill="#004D40" points="106.9893,263.3594,96.9893,267.3594,106.9893,271.3594,102.9893,267.3594" style="stroke:#004D40;stroke-width:1.0;"/><line style="stroke:#004D40;stroke-width:1.0;stroke-dasharray:2.0,2.0;" x1="100.9893" x2="446.6211" y1="267.3594" y2="267.3594"/><text fill="#000000" font-family="sans-serif" font-size="10" lengthAdjust="spacing" textLength="44.7998" x="225.543" y="251.3604">Confirms</text><text fill="#000000" font-family="sans-serif" font-size="10" lengthAdjust="spacing" textLength="3.1787" x="270.3428" y="251.3604">&#160;</text><text fill="#000000" font-family="sans-serif" font-size="10" lengthAdjust="spacing" textLength="44.5459" x="273.5215" y="251.3604">payment</text><text fill="#000000" font-family="sans-serif" font-size="10" lengthAdjust="spacing" textLength="30.7275" x="256.4414" y="263.001">status</text><polygon fill="#004D40" points="595.2744,300.6406,605.2744,304.6406,595.2744,308.6406,599.2744,304.6406" style="stroke:#004D40;stroke-width:1.0;"/><line style="stroke:#004D40;stroke-width:1.0;" x1="95.9893" x2="601.2744" y1="304.6406" y2="304.6406"/><text fill="#000000" font-family="sans-serif" font-size="10" lengthAdjust="spacing" textLength="41.4258" x="305.5869" y="288.6416">Updates</text><text fill="#000000" font-family="sans-serif" font-size="10" lengthAdjust="spacing" textLength="3.1787" x="347.0127" y="288.6416">&#160;</text><text fill="#000000" font-family="sans-serif" font-size="10" lengthAdjust="spacing" textLength="47.4854" x="350.1914" y="288.6416">borrowed</text><text fill="#000000" font-family="sans-serif" font-size="10" lengthAdjust="spacing" textLength="27.8027" x="337.7305" y="300.2822">items</text><polygon fill="#004D40" points="106.9893,337.9219,96.9893,341.9219,106.9893,345.9219,102.9893,341.9219" style="stroke:#004D40;stroke-width:1.0;"/><line style="stroke:#004D40;stroke-width:1.0;stroke-dasharray:2.0,2.0;" x1="100.9893" x2="606.2744" y1="341.9219" y2="341.9219"/><text fill="#000000" font-family="sans-serif" font-size="10" lengthAdjust="spacing" textLength="71.7529" x="315.7554" y="325.9229">Acknowledges</text><text fill="#000000" font-family="sans-serif" font-size="10" lengthAdjust="spacing" textLength="35.2344" x="334.0146" y="337.5635">update</text></g></svg>