<svg xmlns="http://www.w3.org/2000/svg" xmlns:xlink="http://www.w3.org/1999/xlink" contentStyleType="text/css" height="501px" preserveAspectRatio="none" style="width:714px;height:501px;background:#FFFFFF;" version="1.1" viewBox="0 0 714 501" width="714px" zoomAndPan="magnify"><title>Recommendations - Dynamic</title><defs/><g><text fill="#000000" font-family="sans-serif" font-size="14" font-weight="bold" lengthAdjust="spacing" textLength="229.1133" x="244.0415" y="27.9951">Recommendations - Dynamic</text><line style="stroke:#181818;stroke-width:0.5;stroke-dasharray:5.0,5.0;" x1="33" x2="33" y1="130.2344" y2="408.8438"/><line style="stroke:#181818;stroke-width:0.5;stroke-dasharray:5.0,5.0;" x1="159.1758" x2="159.1758" y1="130.2344" y2="408.8438"/><line style="stroke:#181818;stroke-width:0.5;stroke-dasharray:5.0,5.0;" x1="375.4746" x2="375.4746" y1="130.2344" y2="408.8438"/><line style="stroke:#181818;stroke-width:0.5;stroke-dasharray:5.0,5.0;" x1="609.0029" x2="609.0029" y1="130.2344" y2="408.8438"/><text fill="#000000" font-family="sans-serif" font-size="14" lengthAdjust="spacing" textLength="50.1758" x="5" y="115.292">Reader</text><text fill="#000000" font-family="sans-serif" font-size="10" lengthAdjust="spacing" textLength="41.7627" x="9.2065" y="127.876">[Person]</text><ellipse cx="33.0879" cy="50.7969" fill="#00796B" rx="8" ry="8" style="stroke:#181818;stroke-width:0.5;"/><path d="M33.0879,58.7969 L33.0879,85.7969 M20.0879,66.7969 L46.0879,66.7969 M33.0879,85.7969 L20.0879,100.7969 M33.0879,85.7969 L46.0879,100.7969 " fill="none" style="stroke:#181818;stroke-width:0.5;"/><text fill="#000000" font-family="sans-serif" font-size="14" lengthAdjust="spacing" textLength="50.1758" x="5" y="420.8389">Reader</text><text fill="#000000" font-family="sans-serif" font-size="10" lengthAdjust="spacing" textLength="41.7627" x="9.2065" y="433.4229">[Person]</text><ellipse cx="33.0879" cy="444.2813" fill="#00796B" rx="8" ry="8" style="stroke:#181818;stroke-width:0.5;"/><path d="M33.0879,452.2813 L33.0879,479.2813 M20.0879,460.2813 L46.0879,460.2813 M33.0879,479.2813 L20.0879,494.2813 M33.0879,479.2813 L46.0879,494.2813 " fill="none" style="stroke:#181818;stroke-width:0.5;"/><rect fill="#26A69A" height="41.9375" rx="2.5" ry="2.5" style="stroke:#1A746B;stroke-width:0.5;" width="176.2988" x="71.1758" y="87.2969"/><text fill="#FFFFFF" font-family="sans-serif" font-size="14" lengthAdjust="spacing" textLength="162.2988" x="78.1758" y="107.292">Recommendations SPA</text><text fill="#FFFFFF" font-family="sans-serif" font-size="10" lengthAdjust="spacing" textLength="153.1006" x="82.7749" y="119.876">[Container: React Component]</text><rect fill="#26A69A" height="41.9375" rx="2.5" ry="2.5" style="stroke:#1A746B;stroke-width:0.5;" width="176.2988" x="71.1758" y="407.8438"/><text fill="#FFFFFF" font-family="sans-serif" font-size="14" lengthAdjust="spacing" textLength="162.2988" x="78.1758" y="427.8389">Recommendations SPA</text><text fill="#FFFFFF" font-family="sans-serif" font-size="10" lengthAdjust="spacing" textLength="153.1006" x="82.7749" y="440.4229">[Container: React Component]</text><rect fill="#26A69A" height="41.9375" rx="2.5" ry="2.5" style="stroke:#1A746B;stroke-width:0.5;" width="237.5283" x="257.4746" y="87.2969"/><text fill="#FFFFFF" font-family="sans-serif" font-size="14" lengthAdjust="spacing" textLength="223.5283" x="264.4746" y="107.292">Recommendations Microservice</text><text fill="#FFFFFF" font-family="sans-serif" font-size="10" lengthAdjust="spacing" textLength="167.9785" x="292.2495" y="119.876">[Container: Java and Spring Boot]</text><rect fill="#26A69A" height="41.9375" rx="2.5" ry="2.5" style="stroke:#1A746B;stroke-width:0.5;" width="237.5283" x="257.4746" y="407.8438"/><text fill="#FFFFFF" font-family="sans-serif" font-size="14" lengthAdjust="spacing" textLength="223.5283" x="264.4746" y="427.8389">Recommendations Microservice</text><text fill="#FFFFFF" font-family="sans-serif" font-size="10" lengthAdjust="spacing" textLength="167.9785" x="292.2495" y="440.4229">[Container: Java and Spring Boot]</text><text fill="#000000" font-family="sans-serif" font-size="14" lengthAdjust="spacing" textLength="202.1934" x="505.0029" y="115.292">Recommendations Database</text><text fill="#000000" font-family="sans-serif" font-size="10" lengthAdjust="spacing" textLength="111.3281" x="550.4355" y="127.876">[Container: MongoDB]</text><path d="M591.0996,66.2969 C591.0996,56.2969 609.0996,56.2969 609.0996,56.2969 C609.0996,56.2969 627.0996,56.2969 627.0996,66.2969 L627.0996,92.2969 C627.0996,102.2969 609.0996,102.2969 609.0996,102.2969 C609.0996,102.2969 591.0996,102.2969 591.0996,92.2969 L591.0996,66.2969 " fill="#26A69A" style="stroke:#181818;stroke-width:1.5;"/><path d="M591.0996,66.2969 C591.0996,76.2969 609.0996,76.2969 609.0996,76.2969 C609.0996,76.2969 627.0996,76.2969 627.0996,66.2969 " fill="none" style="stroke:#181818;stroke-width:1.5;"/><text fill="#000000" font-family="sans-serif" font-size="14" lengthAdjust="spacing" textLength="202.1934" x="505.0029" y="420.8389">Recommendations Database</text><text fill="#000000" font-family="sans-serif" font-size="10" lengthAdjust="spacing" textLength="111.3281" x="550.4355" y="433.4229">[Container: MongoDB]</text><path d="M591.0996,445.7813 C591.0996,435.7813 609.0996,435.7813 609.0996,435.7813 C609.0996,435.7813 627.0996,435.7813 627.0996,445.7813 L627.0996,471.7813 C627.0996,481.7813 609.0996,481.7813 609.0996,481.7813 C609.0996,481.7813 591.0996,481.7813 591.0996,471.7813 L591.0996,445.7813 " fill="#26A69A" style="stroke:#181818;stroke-width:1.5;"/><path d="M591.0996,445.7813 C591.0996,455.7813 609.0996,455.7813 609.0996,455.7813 C609.0996,455.7813 627.0996,455.7813 627.0996,445.7813 " fill="none" style="stroke:#181818;stroke-width:1.5;"/><polygon fill="#004D40" points="147.3252,165.5156,157.3252,169.5156,147.3252,173.5156,151.3252,169.5156" style="stroke:#004D40;stroke-width:1.0;"/><line style="stroke:#004D40;stroke-width:1.0;" x1="33.0879" x2="153.3252" y1="169.5156" y2="169.5156"/><text fill="#000000" font-family="sans-serif" font-size="10" lengthAdjust="spacing" textLength="46.2793" x="73.0669" y="153.5166">Requests</text><text fill="#000000" font-family="sans-serif" font-size="10" lengthAdjust="spacing" textLength="90.6934" x="50.8599" y="165.1572">recommendations</text><polygon fill="#004D40" points="364.2388,202.7969,374.2388,206.7969,364.2388,210.7969,368.2388,206.7969" style="stroke:#004D40;stroke-width:1.0;"/><line style="stroke:#004D40;stroke-width:1.0;" x1="159.3252" x2="370.2388" y1="206.7969" y2="206.7969"/><text fill="#000000" font-family="sans-serif" font-size="10" lengthAdjust="spacing" textLength="39.0234" x="248.2703" y="190.7979">Fetches</text><text fill="#000000" font-family="sans-serif" font-size="10" lengthAdjust="spacing" textLength="90.6934" x="222.4353" y="202.4385">recommendations</text><polygon fill="#004D40" points="597.0996,251.7188,607.0996,255.7188,597.0996,259.7188,601.0996,255.7188" style="stroke:#004D40;stroke-width:1.0;"/><line style="stroke:#004D40;stroke-width:1.0;" x1="376.2388" x2="603.0996" y1="255.7188" y2="255.7188"/><text fill="#000000" font-family="sans-serif" font-size="10" lengthAdjust="spacing" textLength="47.3438" x="468.9973" y="228.0791">Retrieves</text><text fill="#000000" font-family="sans-serif" font-size="10" lengthAdjust="spacing" textLength="72.7002" x="456.3191" y="239.7197">recommended</text><text fill="#000000" font-family="sans-serif" font-size="10" lengthAdjust="spacing" textLength="27.8027" x="478.7678" y="251.3604">items</text><polygon fill="#004D40" points="387.2388,289,377.2388,293,387.2388,297,383.2388,293" style="stroke:#004D40;stroke-width:1.0;"/><line style="stroke:#004D40;stroke-width:1.0;stroke-dasharray:2.0,2.0;" x1="381.2388" x2="608.0996" y1="293" y2="293"/><text fill="#000000" font-family="sans-serif" font-size="10" lengthAdjust="spacing" textLength="39.0186" x="473.1599" y="277.001">Returns</text><text fill="#000000" font-family="sans-serif" font-size="10" lengthAdjust="spacing" textLength="90.6934" x="447.3225" y="288.6416">recommendations</text><polygon fill="#004D40" points="170.3252,337.9219,160.3252,341.9219,170.3252,345.9219,166.3252,341.9219" style="stroke:#004D40;stroke-width:1.0;"/><line style="stroke:#004D40;stroke-width:1.0;stroke-dasharray:2.0,2.0;" x1="164.3252" x2="375.2388" y1="341.9219" y2="341.9219"/><text fill="#000000" font-family="sans-serif" font-size="10" lengthAdjust="spacing" textLength="39.0186" x="248.2727" y="314.2822">Returns</text><text fill="#000000" font-family="sans-serif" font-size="10" lengthAdjust="spacing" textLength="72.7002" x="231.4319" y="325.9229">recommended</text><text fill="#000000" font-family="sans-serif" font-size="10" lengthAdjust="spacing" textLength="27.8027" x="253.8806" y="337.5635">items</text><polygon fill="#004D40" points="44.0879,386.8438,34.0879,390.8438,44.0879,394.8438,40.0879,390.8438" style="stroke:#004D40;stroke-width:1.0;"/><line style="stroke:#004D40;stroke-width:1.0;stroke-dasharray:2.0,2.0;" x1="38.0879" x2="158.3252" y1="390.8438" y2="390.8438"/><text fill="#000000" font-family="sans-serif" font-size="10" lengthAdjust="spacing" textLength="42.0703" x="75.1714" y="363.2041">Displays</text><text fill="#000000" font-family="sans-serif" font-size="10" lengthAdjust="spacing" textLength="72.7002" x="59.8564" y="374.8447">recommended</text><text fill="#000000" font-family="sans-serif" font-size="10" lengthAdjust="spacing" textLength="27.8027" x="82.3052" y="386.4854">items</text></g></svg>