<svg xmlns="http://www.w3.org/2000/svg" xmlns:xlink="http://www.w3.org/1999/xlink" contentStyleType="text/css" height="454px" preserveAspectRatio="none" style="width:579px;height:454px;background:#FFFFFF;" version="1.1" viewBox="0 0 579 454" width="579px" zoomAndPan="magnify"><title>Products - Dynamic</title><defs/><g><text fill="#000000" font-family="sans-serif" font-size="14" font-weight="bold" lengthAdjust="spacing" textLength="153.501" x="214.5044" y="27.9951">Products - Dynamic</text><line style="stroke:#181818;stroke-width:0.5;stroke-dasharray:5.0,5.0;" x1="33" x2="33" y1="130.2344" y2="362.2813"/><line style="stroke:#181818;stroke-width:0.5;stroke-dasharray:5.0,5.0;" x1="154.1758" x2="154.1758" y1="130.2344" y2="362.2813"/><line style="stroke:#181818;stroke-width:0.5;stroke-dasharray:5.0,5.0;" x1="338.2764" x2="338.2764" y1="130.2344" y2="362.2813"/><line style="stroke:#181818;stroke-width:0.5;stroke-dasharray:5.0,5.0;" x1="509.2549" x2="509.2549" y1="130.2344" y2="362.2813"/><text fill="#000000" font-family="sans-serif" font-size="14" lengthAdjust="spacing" textLength="50.1758" x="5" y="115.292">Reader</text><text fill="#000000" font-family="sans-serif" font-size="10" lengthAdjust="spacing" textLength="41.7627" x="9.2065" y="127.876">[Person]</text><ellipse cx="33.0879" cy="50.7969" fill="#00796B" rx="8" ry="8" style="stroke:#181818;stroke-width:0.5;"/><path d="M33.0879,58.7969 L33.0879,85.7969 M20.0879,66.7969 L46.0879,66.7969 M33.0879,85.7969 L20.0879,100.7969 M33.0879,85.7969 L46.0879,100.7969 " fill="none" style="stroke:#181818;stroke-width:0.5;"/><text fill="#000000" font-family="sans-serif" font-size="14" lengthAdjust="spacing" textLength="50.1758" x="5" y="374.2764">Reader</text><text fill="#000000" font-family="sans-serif" font-size="10" lengthAdjust="spacing" textLength="41.7627" x="9.2065" y="386.8604">[Person]</text><ellipse cx="33.0879" cy="397.7188" fill="#00796B" rx="8" ry="8" style="stroke:#181818;stroke-width:0.5;"/><path d="M33.0879,405.7188 L33.0879,432.7188 M20.0879,413.7188 L46.0879,413.7188 M33.0879,432.7188 L20.0879,447.7188 M33.0879,432.7188 L46.0879,447.7188 " fill="none" style="stroke:#181818;stroke-width:0.5;"/><rect fill="#26A69A" height="41.9375" rx="2.5" ry="2.5" style="stroke:#1A746B;stroke-width:0.5;" width="167.1006" x="71.1758" y="87.2969"/><text fill="#FFFFFF" font-family="sans-serif" font-size="14" lengthAdjust="spacing" textLength="92.3604" x="108.5459" y="107.292">Products SPA</text><text fill="#FFFFFF" font-family="sans-serif" font-size="10" lengthAdjust="spacing" textLength="153.1006" x="78.1758" y="119.876">[Container: React Component]</text><rect fill="#26A69A" height="41.9375" rx="2.5" ry="2.5" style="stroke:#1A746B;stroke-width:0.5;" width="167.1006" x="71.1758" y="361.2813"/><text fill="#FFFFFF" font-family="sans-serif" font-size="14" lengthAdjust="spacing" textLength="92.3604" x="108.5459" y="381.2764">Products SPA</text><text fill="#FFFFFF" font-family="sans-serif" font-size="10" lengthAdjust="spacing" textLength="153.1006" x="78.1758" y="393.8604">[Container: React Component]</text><rect fill="#26A69A" height="41.9375" rx="2.5" ry="2.5" style="stroke:#1A746B;stroke-width:0.5;" width="181.9785" x="248.2764" y="87.2969"/><text fill="#FFFFFF" font-family="sans-serif" font-size="14" lengthAdjust="spacing" textLength="153.5898" x="262.4707" y="107.292">Products Microservice</text><text fill="#FFFFFF" font-family="sans-serif" font-size="10" lengthAdjust="spacing" textLength="167.9785" x="255.2764" y="119.876">[Container: Java and Spring Boot]</text><rect fill="#26A69A" height="41.9375" rx="2.5" ry="2.5" style="stroke:#1A746B;stroke-width:0.5;" width="181.9785" x="248.2764" y="361.2813"/><text fill="#FFFFFF" font-family="sans-serif" font-size="14" lengthAdjust="spacing" textLength="153.5898" x="262.4707" y="381.2764">Products Microservice</text><text fill="#FFFFFF" font-family="sans-serif" font-size="10" lengthAdjust="spacing" textLength="167.9785" x="255.2764" y="393.8604">[Container: Java and Spring Boot]</text><text fill="#000000" font-family="sans-serif" font-size="14" lengthAdjust="spacing" textLength="132.2549" x="440.2549" y="115.292">Products Database</text><text fill="#000000" font-family="sans-serif" font-size="10" lengthAdjust="spacing" textLength="111.3281" x="450.7183" y="127.876">[Container: MongoDB]</text><path d="M491.3823,66.2969 C491.3823,56.2969 509.3823,56.2969 509.3823,56.2969 C509.3823,56.2969 527.3823,56.2969 527.3823,66.2969 L527.3823,92.2969 C527.3823,102.2969 509.3823,102.2969 509.3823,102.2969 C509.3823,102.2969 491.3823,102.2969 491.3823,92.2969 L491.3823,66.2969 " fill="#26A69A" style="stroke:#181818;stroke-width:1.5;"/><path d="M491.3823,66.2969 C491.3823,76.2969 509.3823,76.2969 509.3823,76.2969 C509.3823,76.2969 527.3823,76.2969 527.3823,66.2969 " fill="none" style="stroke:#181818;stroke-width:1.5;"/><text fill="#000000" font-family="sans-serif" font-size="14" lengthAdjust="spacing" textLength="132.2549" x="440.2549" y="374.2764">Products Database</text><text fill="#000000" font-family="sans-serif" font-size="10" lengthAdjust="spacing" textLength="111.3281" x="450.7183" y="386.8604">[Container: MongoDB]</text><path d="M491.3823,399.2188 C491.3823,389.2188 509.3823,389.2188 509.3823,389.2188 C509.3823,389.2188 527.3823,389.2188 527.3823,399.2188 L527.3823,425.2188 C527.3823,435.2188 509.3823,435.2188 509.3823,435.2188 C509.3823,435.2188 491.3823,435.2188 491.3823,425.2188 L491.3823,399.2188 " fill="#26A69A" style="stroke:#181818;stroke-width:1.5;"/><path d="M491.3823,399.2188 C491.3823,409.2188 509.3823,409.2188 509.3823,409.2188 C509.3823,409.2188 527.3823,409.2188 527.3823,399.2188 " fill="none" style="stroke:#181818;stroke-width:1.5;"/><polygon fill="#004D40" points="142.7261,165.5156,152.7261,169.5156,142.7261,173.5156,146.7261,169.5156" style="stroke:#004D40;stroke-width:1.0;"/><line style="stroke:#004D40;stroke-width:1.0;" x1="33.0879" x2="148.7261" y1="169.5156" y2="169.5156"/><text fill="#000000" font-family="sans-serif" font-size="10" lengthAdjust="spacing" textLength="46.2793" x="46.6096" y="153.5166">Requests</text><text fill="#000000" font-family="sans-serif" font-size="10" lengthAdjust="spacing" textLength="3.1787" x="92.8889" y="153.5166">&#160;</text><text fill="#000000" font-family="sans-serif" font-size="10" lengthAdjust="spacing" textLength="45.1367" x="96.0676" y="153.5166">available</text><text fill="#000000" font-family="sans-serif" font-size="10" lengthAdjust="spacing" textLength="29.585" x="70.1814" y="165.1572">books</text><text fill="#000000" font-family="sans-serif" font-size="10" lengthAdjust="spacing" textLength="3.1787" x="99.7664" y="165.1572">&#160;</text><text fill="#000000" font-family="sans-serif" font-size="10" lengthAdjust="spacing" textLength="14.6875" x="102.9451" y="165.1572">list</text><polygon fill="#004D40" points="327.2656,202.7969,337.2656,206.7969,327.2656,210.7969,331.2656,206.7969" style="stroke:#004D40;stroke-width:1.0;"/><line style="stroke:#004D40;stroke-width:1.0;" x1="154.7261" x2="333.2656" y1="206.7969" y2="206.7969"/><text fill="#000000" font-family="sans-serif" font-size="10" lengthAdjust="spacing" textLength="39.0234" x="203.3264" y="190.7979">Fetches</text><text fill="#000000" font-family="sans-serif" font-size="10" lengthAdjust="spacing" textLength="3.1787" x="242.3499" y="190.7979">&#160;</text><text fill="#000000" font-family="sans-serif" font-size="10" lengthAdjust="spacing" textLength="45.1367" x="245.5286" y="190.7979">available</text><text fill="#000000" font-family="sans-serif" font-size="10" lengthAdjust="spacing" textLength="29.585" x="232.2034" y="202.4385">books</text><polygon fill="#004D40" points="497.3823,240.0781,507.3823,244.0781,497.3823,248.0781,501.3823,244.0781" style="stroke:#004D40;stroke-width:1.0;"/><line style="stroke:#004D40;stroke-width:1.0;" x1="339.2656" x2="503.3823" y1="244.0781" y2="244.0781"/><text fill="#000000" font-family="sans-serif" font-size="10" lengthAdjust="spacing" textLength="47.3438" x="376.4944" y="228.0791">Retrieves</text><text fill="#000000" font-family="sans-serif" font-size="10" lengthAdjust="spacing" textLength="3.1787" x="423.8381" y="228.0791">&#160;</text><text fill="#000000" font-family="sans-serif" font-size="10" lengthAdjust="spacing" textLength="45.1367" x="427.0168" y="228.0791">available</text><text fill="#000000" font-family="sans-serif" font-size="10" lengthAdjust="spacing" textLength="29.585" x="409.5315" y="239.7197">books</text><polygon fill="#004D40" points="350.2656,277.3594,340.2656,281.3594,350.2656,285.3594,346.2656,281.3594" style="stroke:#004D40;stroke-width:1.0;"/><line style="stroke:#004D40;stroke-width:1.0;stroke-dasharray:2.0,2.0;" x1="344.2656" x2="508.3823" y1="281.3594" y2="281.3594"/><text fill="#000000" font-family="sans-serif" font-size="10" lengthAdjust="spacing" textLength="39.0186" x="380.657" y="265.3604">Returns</text><text fill="#000000" font-family="sans-serif" font-size="10" lengthAdjust="spacing" textLength="3.1787" x="419.6755" y="265.3604">&#160;</text><text fill="#000000" font-family="sans-serif" font-size="10" lengthAdjust="spacing" textLength="45.1367" x="422.8542" y="265.3604">available</text><text fill="#000000" font-family="sans-serif" font-size="10" lengthAdjust="spacing" textLength="29.585" x="409.5315" y="277.001">books</text><polygon fill="#004D40" points="165.7261,303,155.7261,307,165.7261,311,161.7261,307" style="stroke:#004D40;stroke-width:1.0;"/><line style="stroke:#004D40;stroke-width:1.0;stroke-dasharray:2.0,2.0;" x1="159.7261" x2="338.2656" y1="307" y2="307"/><text fill="#000000" font-family="sans-serif" font-size="10" lengthAdjust="spacing" textLength="39.0186" x="200.8582" y="302.6416">Returns</text><text fill="#000000" font-family="sans-serif" font-size="10" lengthAdjust="spacing" textLength="3.1787" x="239.8767" y="302.6416">&#160;</text><text fill="#000000" font-family="sans-serif" font-size="10" lengthAdjust="spacing" textLength="24.375" x="243.0554" y="302.6416">book</text><text fill="#000000" font-family="sans-serif" font-size="10" lengthAdjust="spacing" textLength="3.1787" x="267.4304" y="302.6416">&#160;</text><text fill="#000000" font-family="sans-serif" font-size="10" lengthAdjust="spacing" textLength="22.5244" x="270.6091" y="302.6416">data</text><polygon fill="#004D40" points="44.0879,340.2813,34.0879,344.2813,44.0879,348.2813,40.0879,344.2813" style="stroke:#004D40;stroke-width:1.0;"/><line style="stroke:#004D40;stroke-width:1.0;stroke-dasharray:2.0,2.0;" x1="38.0879" x2="153.7261" y1="344.2813" y2="344.2813"/><text fill="#000000" font-family="sans-serif" font-size="10" lengthAdjust="spacing" textLength="42.0703" x="48.7141" y="328.2822">Displays</text><text fill="#000000" font-family="sans-serif" font-size="10" lengthAdjust="spacing" textLength="3.1787" x="90.7844" y="328.2822">&#160;</text><text fill="#000000" font-family="sans-serif" font-size="10" lengthAdjust="spacing" textLength="45.1367" x="93.9631" y="328.2822">available</text><text fill="#000000" font-family="sans-serif" font-size="10" lengthAdjust="spacing" textLength="29.585" x="70.1814" y="339.9229">books</text><text fill="#000000" font-family="sans-serif" font-size="10" lengthAdjust="spacing" textLength="3.1787" x="99.7664" y="339.9229">&#160;</text><text fill="#000000" font-family="sans-serif" font-size="10" lengthAdjust="spacing" textLength="14.6875" x="102.9451" y="339.9229">list</text></g></svg>