<svg xmlns="http://www.w3.org/2000/svg" xmlns:xlink="http://www.w3.org/1999/xlink" contentStyleType="text/css" height="431px" preserveAspectRatio="none" style="width:559px;height:431px;background:#FFFFFF;" version="1.1" viewBox="0 0 559 431" width="559px" zoomAndPan="magnify"><title>Cart - Dynamic</title><defs/><g><text fill="#000000" font-family="sans-serif" font-size="14" font-weight="bold" lengthAdjust="spacing" textLength="116.7236" x="222.9514" y="27.9951">Cart - Dynamic</text><line style="stroke:#181818;stroke-width:0.5;stroke-dasharray:5.0,5.0;" x1="33" x2="33" y1="130.2344" y2="339"/><line style="stroke:#181818;stroke-width:0.5;stroke-dasharray:5.0,5.0;" x1="155.2192" x2="155.2192" y1="130.2344" y2="339"/><line style="stroke:#181818;stroke-width:0.5;stroke-dasharray:5.0,5.0;" x1="339.3198" x2="339.3198" y1="130.2344" y2="339"/><line style="stroke:#181818;stroke-width:0.5;stroke-dasharray:5.0,5.0;" x1="499.2983" x2="499.2983" y1="130.2344" y2="339"/><text fill="#000000" font-family="sans-serif" font-size="14" lengthAdjust="spacing" textLength="50.1758" x="5" y="115.292">Reader</text><text fill="#000000" font-family="sans-serif" font-size="10" lengthAdjust="spacing" textLength="41.7627" x="9.2065" y="127.876">[Person]</text><ellipse cx="33.0879" cy="50.7969" fill="#00796B" rx="8" ry="8" style="stroke:#181818;stroke-width:0.5;"/><path d="M33.0879,58.7969 L33.0879,85.7969 M20.0879,66.7969 L46.0879,66.7969 M33.0879,85.7969 L20.0879,100.7969 M33.0879,85.7969 L46.0879,100.7969 " fill="none" style="stroke:#181818;stroke-width:0.5;"/><text fill="#000000" font-family="sans-serif" font-size="14" lengthAdjust="spacing" textLength="50.1758" x="5" y="350.9951">Reader</text><text fill="#000000" font-family="sans-serif" font-size="10" lengthAdjust="spacing" textLength="41.7627" x="9.2065" y="363.5791">[Person]</text><ellipse cx="33.0879" cy="374.4375" fill="#00796B" rx="8" ry="8" style="stroke:#181818;stroke-width:0.5;"/><path d="M33.0879,382.4375 L33.0879,409.4375 M20.0879,390.4375 L46.0879,390.4375 M33.0879,409.4375 L20.0879,424.4375 M33.0879,409.4375 L46.0879,424.4375 " fill="none" style="stroke:#181818;stroke-width:0.5;"/><rect fill="#26A69A" height="41.9375" rx="2.5" ry="2.5" style="stroke:#1A746B;stroke-width:0.5;" width="167.1006" x="72.2192" y="87.2969"/><text fill="#FFFFFF" font-family="sans-serif" font-size="14" lengthAdjust="spacing" textLength="60.9561" x="125.2915" y="107.292">Cart SPA</text><text fill="#FFFFFF" font-family="sans-serif" font-size="10" lengthAdjust="spacing" textLength="153.1006" x="79.2192" y="119.876">[Container: React Component]</text><rect fill="#26A69A" height="41.9375" rx="2.5" ry="2.5" style="stroke:#1A746B;stroke-width:0.5;" width="167.1006" x="72.2192" y="338"/><text fill="#FFFFFF" font-family="sans-serif" font-size="14" lengthAdjust="spacing" textLength="60.9561" x="125.2915" y="357.9951">Cart SPA</text><text fill="#FFFFFF" font-family="sans-serif" font-size="10" lengthAdjust="spacing" textLength="153.1006" x="79.2192" y="370.5791">[Container: React Component]</text><rect fill="#26A69A" height="41.9375" rx="2.5" ry="2.5" style="stroke:#1A746B;stroke-width:0.5;" width="181.9785" x="249.3198" y="87.2969"/><text fill="#FFFFFF" font-family="sans-serif" font-size="14" lengthAdjust="spacing" textLength="122.1855" x="279.2163" y="107.292">Cart Microservice</text><text fill="#FFFFFF" font-family="sans-serif" font-size="10" lengthAdjust="spacing" textLength="167.9785" x="256.3198" y="119.876">[Container: Java and Spring Boot]</text><rect fill="#26A69A" height="41.9375" rx="2.5" ry="2.5" style="stroke:#1A746B;stroke-width:0.5;" width="181.9785" x="249.3198" y="338"/><text fill="#FFFFFF" font-family="sans-serif" font-size="14" lengthAdjust="spacing" textLength="122.1855" x="279.2163" y="357.9951">Cart Microservice</text><text fill="#FFFFFF" font-family="sans-serif" font-size="10" lengthAdjust="spacing" textLength="167.9785" x="256.3198" y="370.5791">[Container: Java and Spring Boot]</text><text fill="#000000" font-family="sans-serif" font-size="14" lengthAdjust="spacing" textLength="100.8506" x="446.5371" y="115.292">Cart Database</text><text fill="#000000" font-family="sans-serif" font-size="10" lengthAdjust="spacing" textLength="111.3281" x="441.2983" y="127.876">[Container: MongoDB]</text><path d="M481.9624,66.2969 C481.9624,56.2969 499.9624,56.2969 499.9624,56.2969 C499.9624,56.2969 517.9624,56.2969 517.9624,66.2969 L517.9624,92.2969 C517.9624,102.2969 499.9624,102.2969 499.9624,102.2969 C499.9624,102.2969 481.9624,102.2969 481.9624,92.2969 L481.9624,66.2969 " fill="#26A69A" style="stroke:#181818;stroke-width:1.5;"/><path d="M481.9624,66.2969 C481.9624,76.2969 499.9624,76.2969 499.9624,76.2969 C499.9624,76.2969 517.9624,76.2969 517.9624,66.2969 " fill="none" style="stroke:#181818;stroke-width:1.5;"/><text fill="#000000" font-family="sans-serif" font-size="14" lengthAdjust="spacing" textLength="100.8506" x="446.5371" y="350.9951">Cart Database</text><text fill="#000000" font-family="sans-serif" font-size="10" lengthAdjust="spacing" textLength="111.3281" x="441.2983" y="363.5791">[Container: MongoDB]</text><path d="M481.9624,375.9375 C481.9624,365.9375 499.9624,365.9375 499.9624,365.9375 C499.9624,365.9375 517.9624,365.9375 517.9624,375.9375 L517.9624,401.9375 C517.9624,411.9375 499.9624,411.9375 499.9624,411.9375 C499.9624,411.9375 481.9624,411.9375 481.9624,401.9375 L481.9624,375.9375 " fill="#26A69A" style="stroke:#181818;stroke-width:1.5;"/><path d="M481.9624,375.9375 C481.9624,385.9375 499.9624,385.9375 499.9624,385.9375 C499.9624,385.9375 517.9624,385.9375 517.9624,375.9375 " fill="none" style="stroke:#181818;stroke-width:1.5;"/><polygon fill="#004D40" points="143.7695,165.5156,153.7695,169.5156,143.7695,173.5156,147.7695,169.5156" style="stroke:#004D40;stroke-width:1.0;"/><line style="stroke:#004D40;stroke-width:1.0;" x1="33.0879" x2="149.7695" y1="169.5156" y2="169.5156"/><text fill="#000000" font-family="sans-serif" font-size="10" lengthAdjust="spacing" textLength="46.2402" x="45.0879" y="153.5166">Removes</text><text fill="#000000" font-family="sans-serif" font-size="10" lengthAdjust="spacing" textLength="3.1787" x="91.3281" y="153.5166">&#160;</text><text fill="#000000" font-family="sans-serif" font-size="10" lengthAdjust="spacing" textLength="22.5928" x="94.5068" y="153.5166">item</text><text fill="#000000" font-family="sans-serif" font-size="10" lengthAdjust="spacing" textLength="3.1787" x="117.0996" y="153.5166">&#160;</text><text fill="#000000" font-family="sans-serif" font-size="10" lengthAdjust="spacing" textLength="23.4912" x="120.2783" y="153.5166">from</text><text fill="#000000" font-family="sans-serif" font-size="10" lengthAdjust="spacing" textLength="19.6582" x="84.5996" y="165.1572">cart</text><polygon fill="#004D40" points="328.3091,202.7969,338.3091,206.7969,328.3091,210.7969,332.3091,206.7969" style="stroke:#004D40;stroke-width:1.0;"/><line style="stroke:#004D40;stroke-width:1.0;" x1="155.7695" x2="334.3091" y1="206.7969" y2="206.7969"/><text fill="#000000" font-family="sans-serif" font-size="10" lengthAdjust="spacing" textLength="49.6924" x="211.7747" y="190.7979">Processes</text><text fill="#000000" font-family="sans-serif" font-size="10" lengthAdjust="spacing" textLength="3.1787" x="261.467" y="190.7979">&#160;</text><text fill="#000000" font-family="sans-serif" font-size="10" lengthAdjust="spacing" textLength="19.6582" x="264.6458" y="190.7979">cart</text><text fill="#000000" font-family="sans-serif" font-size="10" lengthAdjust="spacing" textLength="40.9473" x="227.5657" y="202.4385">removal</text><polygon fill="#004D40" points="487.9624,228.4375,497.9624,232.4375,487.9624,236.4375,491.9624,232.4375" style="stroke:#004D40;stroke-width:1.0;"/><line style="stroke:#004D40;stroke-width:1.0;" x1="340.3091" x2="493.9624" y1="232.4375" y2="232.4375"/><text fill="#000000" font-family="sans-serif" font-size="10" lengthAdjust="spacing" textLength="46.2402" x="372.7114" y="228.0791">Removes</text><text fill="#000000" font-family="sans-serif" font-size="10" lengthAdjust="spacing" textLength="3.1787" x="418.9517" y="228.0791">&#160;</text><text fill="#000000" font-family="sans-serif" font-size="10" lengthAdjust="spacing" textLength="19.6582" x="422.1304" y="228.0791">cart</text><text fill="#000000" font-family="sans-serif" font-size="10" lengthAdjust="spacing" textLength="3.1787" x="441.7886" y="228.0791">&#160;</text><text fill="#000000" font-family="sans-serif" font-size="10" lengthAdjust="spacing" textLength="22.5928" x="444.9673" y="228.0791">item</text><polygon fill="#004D40" points="351.3091,254.0781,341.3091,258.0781,351.3091,262.0781,347.3091,258.0781" style="stroke:#004D40;stroke-width:1.0;"/><line style="stroke:#004D40;stroke-width:1.0;stroke-dasharray:2.0,2.0;" x1="345.3091" x2="498.9624" y1="258.0781" y2="258.0781"/><text fill="#000000" font-family="sans-serif" font-size="10" lengthAdjust="spacing" textLength="44.7998" x="375.6729" y="253.7197">Confirms</text><text fill="#000000" font-family="sans-serif" font-size="10" lengthAdjust="spacing" textLength="3.1787" x="420.4727" y="253.7197">&#160;</text><text fill="#000000" font-family="sans-serif" font-size="10" lengthAdjust="spacing" textLength="40.9473" x="423.6514" y="253.7197">removal</text><polygon fill="#004D40" points="166.7695,291.3594,156.7695,295.3594,166.7695,299.3594,162.7695,295.3594" style="stroke:#004D40;stroke-width:1.0;"/><line style="stroke:#004D40;stroke-width:1.0;stroke-dasharray:2.0,2.0;" x1="160.7695" x2="339.3091" y1="295.3594" y2="295.3594"/><text fill="#000000" font-family="sans-serif" font-size="10" lengthAdjust="spacing" textLength="44.7998" x="214.2209" y="279.3604">Confirms</text><text fill="#000000" font-family="sans-serif" font-size="10" lengthAdjust="spacing" textLength="3.1787" x="259.0208" y="279.3604">&#160;</text><text fill="#000000" font-family="sans-serif" font-size="10" lengthAdjust="spacing" textLength="19.6582" x="262.1995" y="279.3604">cart</text><text fill="#000000" font-family="sans-serif" font-size="10" lengthAdjust="spacing" textLength="40.9473" x="227.5657" y="291.001">removal</text><polygon fill="#004D40" points="44.0879,317,34.0879,321,44.0879,325,40.0879,321" style="stroke:#004D40;stroke-width:1.0;"/><line style="stroke:#004D40;stroke-width:1.0;stroke-dasharray:2.0,2.0;" x1="38.0879" x2="154.7695" y1="321" y2="321"/><text fill="#000000" font-family="sans-serif" font-size="10" lengthAdjust="spacing" textLength="41.4258" x="49.1943" y="316.6416">Updates</text><text fill="#000000" font-family="sans-serif" font-size="10" lengthAdjust="spacing" textLength="3.1787" x="90.6201" y="316.6416">&#160;</text><text fill="#000000" font-family="sans-serif" font-size="10" lengthAdjust="spacing" textLength="19.6582" x="93.7988" y="316.6416">cart</text><text fill="#000000" font-family="sans-serif" font-size="10" lengthAdjust="spacing" textLength="3.1787" x="113.457" y="316.6416">&#160;</text><text fill="#000000" font-family="sans-serif" font-size="10" lengthAdjust="spacing" textLength="23.0273" x="116.6357" y="316.6416">view</text></g></svg>