<svg xmlns="http://www.w3.org/2000/svg" xmlns:xlink="http://www.w3.org/1999/xlink" contentStyleType="text/css" height="741px" preserveAspectRatio="none" style="width:1388px;height:741px;background:#FFFFFF;" version="1.1" viewBox="0 0 1388 741" width="1388px" zoomAndPan="magnify"><title>Cart - Dynamic</title><defs/><g><text fill="#000000" font-family="sans-serif" font-size="14" font-weight="bold" lengthAdjust="spacing" textLength="116.7236" x="635.1167" y="27.9951">Cart - Dynamic</text><line style="stroke:#181818;stroke-width:0.5;stroke-dasharray:5.0,5.0;" x1="33" x2="33" y1="130.2344" y2="648.8906"/><line style="stroke:#181818;stroke-width:0.5;stroke-dasharray:5.0,5.0;" x1="177.1758" x2="177.1758" y1="130.2344" y2="648.8906"/><line style="stroke:#181818;stroke-width:0.5;stroke-dasharray:5.0,5.0;" x1="383.9102" x2="383.9102" y1="130.2344" y2="648.8906"/><line style="stroke:#181818;stroke-width:0.5;stroke-dasharray:5.0,5.0;" x1="543.8887" x2="543.8887" y1="130.2344" y2="648.8906"/><line style="stroke:#181818;stroke-width:0.5;stroke-dasharray:5.0,5.0;" x1="703.2168" x2="703.2168" y1="130.2344" y2="648.8906"/><line style="stroke:#181818;stroke-width:0.5;stroke-dasharray:5.0,5.0;" x1="874.1953" x2="874.1953" y1="130.2344" y2="648.8906"/><line style="stroke:#181818;stroke-width:0.5;stroke-dasharray:5.0,5.0;" x1="1043.4502" x2="1043.4502" y1="130.2344" y2="648.8906"/><line style="stroke:#181818;stroke-width:0.5;stroke-dasharray:5.0,5.0;" x1="1263.4287" x2="1263.4287" y1="130.2344" y2="648.8906"/><text fill="#000000" font-family="sans-serif" font-size="14" lengthAdjust="spacing" textLength="50.1758" x="5" y="115.292">Reader</text><text fill="#000000" font-family="sans-serif" font-size="10" lengthAdjust="spacing" textLength="41.7627" x="9.2065" y="127.876">[Person]</text><ellipse cx="33.0879" cy="50.7969" fill="#00796B" rx="8" ry="8" style="stroke:#181818;stroke-width:0.5;"/><path d="M33.0879,58.7969 L33.0879,85.7969 M20.0879,66.7969 L46.0879,66.7969 M33.0879,85.7969 L20.0879,100.7969 M33.0879,85.7969 L46.0879,100.7969 " fill="none" style="stroke:#181818;stroke-width:0.5;"/><text fill="#000000" font-family="sans-serif" font-size="14" lengthAdjust="spacing" textLength="50.1758" x="5" y="660.8857">Reader</text><text fill="#000000" font-family="sans-serif" font-size="10" lengthAdjust="spacing" textLength="41.7627" x="9.2065" y="673.4697">[Person]</text><ellipse cx="33.0879" cy="684.3281" fill="#00796B" rx="8" ry="8" style="stroke:#181818;stroke-width:0.5;"/><path d="M33.0879,692.3281 L33.0879,719.3281 M20.0879,700.3281 L46.0879,700.3281 M33.0879,719.3281 L20.0879,734.3281 M33.0879,719.3281 L46.0879,734.3281 " fill="none" style="stroke:#181818;stroke-width:0.5;"/><rect fill="#26A69A" height="41.9375" rx="2.5" ry="2.5" style="stroke:#1A746B;stroke-width:0.5;" width="212.7344" x="71.1758" y="87.2969"/><text fill="#FFFFFF" font-family="sans-serif" font-size="14" lengthAdjust="spacing" textLength="198.7344" x="78.1758" y="107.292">Cart Single Page Application</text><text fill="#FFFFFF" font-family="sans-serif" font-size="10" lengthAdjust="spacing" textLength="153.1006" x="100.9927" y="119.876">[Container: React Component]</text><rect fill="#26A69A" height="41.9375" rx="2.5" ry="2.5" style="stroke:#1A746B;stroke-width:0.5;" width="212.7344" x="71.1758" y="647.8906"/><text fill="#FFFFFF" font-family="sans-serif" font-size="14" lengthAdjust="spacing" textLength="198.7344" x="78.1758" y="667.8857">Cart Single Page Application</text><text fill="#FFFFFF" font-family="sans-serif" font-size="10" lengthAdjust="spacing" textLength="153.1006" x="100.9927" y="680.4697">[Container: React Component]</text><rect fill="#26A69A" height="41.9375" rx="2.5" ry="2.5" style="stroke:#1A746B;stroke-width:0.5;" width="181.9785" x="293.9102" y="87.2969"/><text fill="#FFFFFF" font-family="sans-serif" font-size="14" lengthAdjust="spacing" textLength="122.1855" x="323.8066" y="107.292">Cart Microservice</text><text fill="#FFFFFF" font-family="sans-serif" font-size="10" lengthAdjust="spacing" textLength="167.9785" x="300.9102" y="119.876">[Container: Java and Spring Boot]</text><rect fill="#26A69A" height="41.9375" rx="2.5" ry="2.5" style="stroke:#1A746B;stroke-width:0.5;" width="181.9785" x="293.9102" y="647.8906"/><text fill="#FFFFFF" font-family="sans-serif" font-size="14" lengthAdjust="spacing" textLength="122.1855" x="323.8066" y="667.8857">Cart Microservice</text><text fill="#FFFFFF" font-family="sans-serif" font-size="10" lengthAdjust="spacing" textLength="167.9785" x="300.9102" y="680.4697">[Container: Java and Spring Boot]</text><text fill="#000000" font-family="sans-serif" font-size="14" lengthAdjust="spacing" textLength="100.8506" x="491.1274" y="115.292">Cart Database</text><text fill="#000000" font-family="sans-serif" font-size="10" lengthAdjust="spacing" textLength="111.3281" x="485.8887" y="127.876">[Container: MongoDB]</text><path d="M526.5527,66.2969 C526.5527,56.2969 544.5527,56.2969 544.5527,56.2969 C544.5527,56.2969 562.5527,56.2969 562.5527,66.2969 L562.5527,92.2969 C562.5527,102.2969 544.5527,102.2969 544.5527,102.2969 C544.5527,102.2969 526.5527,102.2969 526.5527,92.2969 L526.5527,66.2969 " fill="#26A69A" style="stroke:#181818;stroke-width:1.5;"/><path d="M526.5527,66.2969 C526.5527,76.2969 544.5527,76.2969 544.5527,76.2969 C544.5527,76.2969 562.5527,76.2969 562.5527,66.2969 " fill="none" style="stroke:#181818;stroke-width:1.5;"/><text fill="#000000" font-family="sans-serif" font-size="14" lengthAdjust="spacing" textLength="100.8506" x="491.1274" y="660.8857">Cart Database</text><text fill="#000000" font-family="sans-serif" font-size="10" lengthAdjust="spacing" textLength="111.3281" x="485.8887" y="673.4697">[Container: MongoDB]</text><path d="M526.5527,685.8281 C526.5527,675.8281 544.5527,675.8281 544.5527,675.8281 C544.5527,675.8281 562.5527,675.8281 562.5527,685.8281 L562.5527,711.8281 C562.5527,721.8281 544.5527,721.8281 544.5527,721.8281 C544.5527,721.8281 526.5527,721.8281 526.5527,711.8281 L526.5527,685.8281 " fill="#26A69A" style="stroke:#181818;stroke-width:1.5;"/><path d="M526.5527,685.8281 C526.5527,695.8281 544.5527,695.8281 544.5527,695.8281 C544.5527,695.8281 562.5527,695.8281 562.5527,685.8281 " fill="none" style="stroke:#181818;stroke-width:1.5;"/><rect fill="#26A69A" height="41.9375" rx="2.5" ry="2.5" style="stroke:#1A746B;stroke-width:0.5;" width="181.9785" x="613.2168" y="87.2969"/><text fill="#FFFFFF" font-family="sans-serif" font-size="14" lengthAdjust="spacing" textLength="153.5898" x="627.4111" y="107.292">Products Microservice</text><text fill="#FFFFFF" font-family="sans-serif" font-size="10" lengthAdjust="spacing" textLength="167.9785" x="620.2168" y="119.876">[Container: Java and Spring Boot]</text><rect fill="#26A69A" height="41.9375" rx="2.5" ry="2.5" style="stroke:#1A746B;stroke-width:0.5;" width="181.9785" x="613.2168" y="647.8906"/><text fill="#FFFFFF" font-family="sans-serif" font-size="14" lengthAdjust="spacing" textLength="153.5898" x="627.4111" y="667.8857">Products Microservice</text><text fill="#FFFFFF" font-family="sans-serif" font-size="10" lengthAdjust="spacing" textLength="167.9785" x="620.2168" y="680.4697">[Container: Java and Spring Boot]</text><text fill="#000000" font-family="sans-serif" font-size="14" lengthAdjust="spacing" textLength="132.2549" x="805.1953" y="115.292">Products Database</text><text fill="#000000" font-family="sans-serif" font-size="10" lengthAdjust="spacing" textLength="111.3281" x="815.6587" y="127.876">[Container: MongoDB]</text><path d="M856.3228,66.2969 C856.3228,56.2969 874.3228,56.2969 874.3228,56.2969 C874.3228,56.2969 892.3228,56.2969 892.3228,66.2969 L892.3228,92.2969 C892.3228,102.2969 874.3228,102.2969 874.3228,102.2969 C874.3228,102.2969 856.3228,102.2969 856.3228,92.2969 L856.3228,66.2969 " fill="#26A69A" style="stroke:#181818;stroke-width:1.5;"/><path d="M856.3228,66.2969 C856.3228,76.2969 874.3228,76.2969 874.3228,76.2969 C874.3228,76.2969 892.3228,76.2969 892.3228,66.2969 " fill="none" style="stroke:#181818;stroke-width:1.5;"/><text fill="#000000" font-family="sans-serif" font-size="14" lengthAdjust="spacing" textLength="132.2549" x="805.1953" y="660.8857">Products Database</text><text fill="#000000" font-family="sans-serif" font-size="10" lengthAdjust="spacing" textLength="111.3281" x="815.6587" y="673.4697">[Container: MongoDB]</text><path d="M856.3228,685.8281 C856.3228,675.8281 874.3228,675.8281 874.3228,675.8281 C874.3228,675.8281 892.3228,675.8281 892.3228,685.8281 L892.3228,711.8281 C892.3228,721.8281 874.3228,721.8281 874.3228,721.8281 C874.3228,721.8281 856.3228,721.8281 856.3228,711.8281 L856.3228,685.8281 " fill="#26A69A" style="stroke:#181818;stroke-width:1.5;"/><path d="M856.3228,685.8281 C856.3228,695.8281 874.3228,695.8281 874.3228,695.8281 C874.3228,695.8281 892.3228,695.8281 892.3228,685.8281 " fill="none" style="stroke:#181818;stroke-width:1.5;"/><rect fill="#26A69A" height="41.9375" rx="2.5" ry="2.5" style="stroke:#1A746B;stroke-width:0.5;" width="181.9785" x="953.4502" y="87.2969"/><text fill="#FFFFFF" font-family="sans-serif" font-size="14" lengthAdjust="spacing" textLength="147.1641" x="970.8574" y="107.292">Finance Microservice</text><text fill="#FFFFFF" font-family="sans-serif" font-size="10" lengthAdjust="spacing" textLength="167.9785" x="960.4502" y="119.876">[Container: Java and Spring Boot]</text><rect fill="#26A69A" height="41.9375" rx="2.5" ry="2.5" style="stroke:#1A746B;stroke-width:0.5;" width="181.9785" x="953.4502" y="647.8906"/><text fill="#FFFFFF" font-family="sans-serif" font-size="14" lengthAdjust="spacing" textLength="147.1641" x="970.8574" y="667.8857">Finance Microservice</text><text fill="#FFFFFF" font-family="sans-serif" font-size="10" lengthAdjust="spacing" textLength="167.9785" x="960.4502" y="680.4697">[Container: Java and Spring Boot]</text><rect fill="#26A69A" height="41.9375" rx="2.5" ry="2.5" style="stroke:#1A746B;stroke-width:0.5;" width="237.5283" x="1145.4287" y="87.2969"/><text fill="#FFFFFF" font-family="sans-serif" font-size="14" lengthAdjust="spacing" textLength="223.5283" x="1152.4287" y="107.292">Recommendations Microservice</text><text fill="#FFFFFF" font-family="sans-serif" font-size="10" lengthAdjust="spacing" textLength="167.9785" x="1180.2036" y="119.876">[Container: Java and Spring Boot]</text><rect fill="#26A69A" height="41.9375" rx="2.5" ry="2.5" style="stroke:#1A746B;stroke-width:0.5;" width="237.5283" x="1145.4287" y="647.8906"/><text fill="#FFFFFF" font-family="sans-serif" font-size="14" lengthAdjust="spacing" textLength="223.5283" x="1152.4287" y="667.8857">Recommendations Microservice</text><text fill="#FFFFFF" font-family="sans-serif" font-size="10" lengthAdjust="spacing" textLength="167.9785" x="1180.2036" y="680.4697">[Container: Java and Spring Boot]</text><polygon fill="#004D40" points="165.543,153.875,175.543,157.875,165.543,161.875,169.543,157.875" style="stroke:#004D40;stroke-width:1.0;"/><line style="stroke:#004D40;stroke-width:1.0;" x1="33.0879" x2="171.543" y1="157.875" y2="157.875"/><text fill="#000000" font-family="sans-serif" font-size="10" lengthAdjust="spacing" textLength="43.1641" x="72.3149" y="153.5166">Finalizes</text><text fill="#000000" font-family="sans-serif" font-size="10" lengthAdjust="spacing" textLength="3.1787" x="115.479" y="153.5166">&#160;</text><text fill="#000000" font-family="sans-serif" font-size="10" lengthAdjust="spacing" textLength="19.6582" x="118.6577" y="153.5166">cart</text><polygon fill="#004D40" points="372.8994,191.1563,382.8994,195.1563,372.8994,199.1563,376.8994,195.1563" style="stroke:#004D40;stroke-width:1.0;"/><line style="stroke:#004D40;stroke-width:1.0;" x1="177.543" x2="378.8994" y1="195.1563" y2="195.1563"/><text fill="#000000" font-family="sans-serif" font-size="10" lengthAdjust="spacing" textLength="49.6924" x="244.9565" y="179.1572">Processes</text><text fill="#000000" font-family="sans-serif" font-size="10" lengthAdjust="spacing" textLength="3.1787" x="294.6489" y="179.1572">&#160;</text><text fill="#000000" font-family="sans-serif" font-size="10" lengthAdjust="spacing" textLength="19.6582" x="297.8276" y="179.1572">cart</text><text fill="#000000" font-family="sans-serif" font-size="10" lengthAdjust="spacing" textLength="54.8535" x="253.7944" y="190.7979">finalization</text><polygon fill="#004D40" points="532.5527,228.4375,542.5527,232.4375,532.5527,236.4375,536.5527,232.4375" style="stroke:#004D40;stroke-width:1.0;"/><line style="stroke:#004D40;stroke-width:1.0;" x1="384.8994" x2="538.5527" y1="232.4375" y2="232.4375"/><text fill="#000000" font-family="sans-serif" font-size="10" lengthAdjust="spacing" textLength="47.3438" x="429.6357" y="216.4385">Retrieves</text><text fill="#000000" font-family="sans-serif" font-size="10" lengthAdjust="spacing" textLength="3.1787" x="476.9795" y="216.4385">&#160;</text><text fill="#000000" font-family="sans-serif" font-size="10" lengthAdjust="spacing" textLength="19.6582" x="480.1582" y="216.4385">cart</text><text fill="#000000" font-family="sans-serif" font-size="10" lengthAdjust="spacing" textLength="33.3154" x="448.0684" y="228.0791">details</text><polygon fill="#004D40" points="395.8994,254.0781,385.8994,258.0781,395.8994,262.0781,391.8994,258.0781" style="stroke:#004D40;stroke-width:1.0;"/><line style="stroke:#004D40;stroke-width:1.0;stroke-dasharray:2.0,2.0;" x1="389.8994" x2="543.5527" y1="258.0781" y2="258.0781"/><text fill="#000000" font-family="sans-serif" font-size="10" lengthAdjust="spacing" textLength="39.0186" x="415.5513" y="253.7197">Returns</text><text fill="#000000" font-family="sans-serif" font-size="10" lengthAdjust="spacing" textLength="3.1787" x="454.5698" y="253.7197">&#160;</text><text fill="#000000" font-family="sans-serif" font-size="10" lengthAdjust="spacing" textLength="19.6582" x="457.7485" y="253.7197">cart</text><text fill="#000000" font-family="sans-serif" font-size="10" lengthAdjust="spacing" textLength="3.1787" x="477.4067" y="253.7197">&#160;</text><text fill="#000000" font-family="sans-serif" font-size="10" lengthAdjust="spacing" textLength="33.3154" x="480.5854" y="253.7197">details</text><polygon fill="#004D40" points="692.2061,291.3594,702.2061,295.3594,692.2061,299.3594,696.2061,295.3594" style="stroke:#004D40;stroke-width:1.0;"/><line style="stroke:#004D40;stroke-width:1.0;" x1="384.8994" x2="698.2061" y1="295.3594" y2="295.3594"/><text fill="#000000" font-family="sans-serif" font-size="10" lengthAdjust="spacing" textLength="35.9717" x="513.6812" y="279.3604">Checks</text><text fill="#000000" font-family="sans-serif" font-size="10" lengthAdjust="spacing" textLength="3.1787" x="549.6528" y="279.3604">&#160;</text><text fill="#000000" font-family="sans-serif" font-size="10" lengthAdjust="spacing" textLength="22.5928" x="552.8315" y="279.3604">item</text><text fill="#000000" font-family="sans-serif" font-size="10" lengthAdjust="spacing" textLength="54.3799" x="517.3628" y="291.001">availability</text><polygon fill="#004D40" points="862.3228,328.6406,872.3228,332.6406,862.3228,336.6406,866.3228,332.6406" style="stroke:#004D40;stroke-width:1.0;"/><line style="stroke:#004D40;stroke-width:1.0;" x1="704.2061" x2="868.3228" y1="332.6406" y2="332.6406"/><text fill="#000000" font-family="sans-serif" font-size="10" lengthAdjust="spacing" textLength="37.5439" x="749.5623" y="316.6416">Verifies</text><text fill="#000000" font-family="sans-serif" font-size="10" lengthAdjust="spacing" textLength="3.1787" x="787.1062" y="316.6416">&#160;</text><text fill="#000000" font-family="sans-serif" font-size="10" lengthAdjust="spacing" textLength="38.6816" x="790.2849" y="316.6416">product</text><text fill="#000000" font-family="sans-serif" font-size="10" lengthAdjust="spacing" textLength="54.3799" x="762.0745" y="328.2822">availability</text><polygon fill="#004D40" points="715.2061,365.9219,705.2061,369.9219,715.2061,373.9219,711.2061,369.9219" style="stroke:#004D40;stroke-width:1.0;"/><line style="stroke:#004D40;stroke-width:1.0;stroke-dasharray:2.0,2.0;" x1="709.2061" x2="873.3228" y1="369.9219" y2="369.9219"/><text fill="#000000" font-family="sans-serif" font-size="10" lengthAdjust="spacing" textLength="39.0186" x="740.9758" y="353.9229">Returns</text><text fill="#000000" font-family="sans-serif" font-size="10" lengthAdjust="spacing" textLength="3.1787" x="779.9944" y="353.9229">&#160;</text><text fill="#000000" font-family="sans-serif" font-size="10" lengthAdjust="spacing" textLength="54.3799" x="783.1731" y="353.9229">availability</text><text fill="#000000" font-family="sans-serif" font-size="10" lengthAdjust="spacing" textLength="30.7275" x="773.9006" y="365.5635">status</text><polygon fill="#004D40" points="395.8994,403.2031,385.8994,407.2031,395.8994,411.2031,391.8994,407.2031" style="stroke:#004D40;stroke-width:1.0;"/><line style="stroke:#004D40;stroke-width:1.0;stroke-dasharray:2.0,2.0;" x1="389.8994" x2="703.2061" y1="407.2031" y2="407.2031"/><text fill="#000000" font-family="sans-serif" font-size="10" lengthAdjust="spacing" textLength="42.666" x="523.2197" y="391.2041">Provides</text><text fill="#000000" font-family="sans-serif" font-size="10" lengthAdjust="spacing" textLength="54.3799" x="499.1157" y="402.8447">availability</text><text fill="#000000" font-family="sans-serif" font-size="10" lengthAdjust="spacing" textLength="3.1787" x="553.4956" y="402.8447">&#160;</text><text fill="#000000" font-family="sans-serif" font-size="10" lengthAdjust="spacing" textLength="33.3154" x="556.6743" y="402.8447">details</text><polygon fill="#004D40" points="1032.4395,440.4844,1042.4395,444.4844,1032.4395,448.4844,1036.4395,444.4844" style="stroke:#004D40;stroke-width:1.0;"/><line style="stroke:#004D40;stroke-width:1.0;" x1="384.8994" x2="1038.4395" y1="444.4844" y2="444.4844"/><text fill="#000000" font-family="sans-serif" font-size="10" lengthAdjust="spacing" textLength="51.9141" x="664.8501" y="428.4854">Generates</text><text fill="#000000" font-family="sans-serif" font-size="10" lengthAdjust="spacing" textLength="3.1787" x="716.7642" y="428.4854">&#160;</text><text fill="#000000" font-family="sans-serif" font-size="10" lengthAdjust="spacing" textLength="44.5459" x="719.9429" y="428.4854">payment</text><text fill="#000000" font-family="sans-serif" font-size="10" lengthAdjust="spacing" textLength="17.6855" x="705.8267" y="440.126">link</text><polygon fill="#004D40" points="395.8994,477.7656,385.8994,481.7656,395.8994,485.7656,391.8994,481.7656" style="stroke:#004D40;stroke-width:1.0;"/><line style="stroke:#004D40;stroke-width:1.0;stroke-dasharray:2.0,2.0;" x1="389.8994" x2="1043.4395" y1="481.7656" y2="481.7656"/><text fill="#000000" font-family="sans-serif" font-size="10" lengthAdjust="spacing" textLength="39.0186" x="671.2979" y="465.7666">Returns</text><text fill="#000000" font-family="sans-serif" font-size="10" lengthAdjust="spacing" textLength="3.1787" x="710.3164" y="465.7666">&#160;</text><text fill="#000000" font-family="sans-serif" font-size="10" lengthAdjust="spacing" textLength="44.5459" x="713.4951" y="465.7666">payment</text><text fill="#000000" font-family="sans-serif" font-size="10" lengthAdjust="spacing" textLength="17.6855" x="705.8267" y="477.4072">link</text><polygon fill="#004D40" points="1252.1929,515.0469,1262.1929,519.0469,1252.1929,523.0469,1256.1929,519.0469" style="stroke:#004D40;stroke-width:1.0;"/><line style="stroke:#004D40;stroke-width:1.0;" x1="384.8994" x2="1258.1929" y1="519.0469" y2="519.0469"/><text fill="#000000" font-family="sans-serif" font-size="10" lengthAdjust="spacing" textLength="43.1641" x="802.9641" y="503.0479">Finalizes</text><text fill="#000000" font-family="sans-serif" font-size="10" lengthAdjust="spacing" textLength="90.6934" x="779.1995" y="514.6885">recommendations</text><polygon fill="#004D40" points="395.8994,552.3281,385.8994,556.3281,395.8994,560.3281,391.8994,556.3281" style="stroke:#004D40;stroke-width:1.0;"/><line style="stroke:#004D40;stroke-width:1.0;stroke-dasharray:2.0,2.0;" x1="389.8994" x2="1263.1929" y1="556.3281" y2="556.3281"/><text fill="#000000" font-family="sans-serif" font-size="10" lengthAdjust="spacing" textLength="71.7529" x="788.6697" y="540.3291">Acknowledges</text><text fill="#000000" font-family="sans-serif" font-size="10" lengthAdjust="spacing" textLength="54.8535" x="797.1194" y="551.9697">finalization</text><polygon fill="#004D40" points="188.543,589.6094,178.543,593.6094,188.543,597.6094,184.543,593.6094" style="stroke:#004D40;stroke-width:1.0;"/><line style="stroke:#004D40;stroke-width:1.0;stroke-dasharray:2.0,2.0;" x1="182.543" x2="383.8994" y1="593.6094" y2="593.6094"/><text fill="#000000" font-family="sans-serif" font-size="10" lengthAdjust="spacing" textLength="43.125" x="235.7964" y="577.6104">Presents</text><text fill="#000000" font-family="sans-serif" font-size="10" lengthAdjust="spacing" textLength="3.1787" x="278.9214" y="577.6104">&#160;</text><text fill="#000000" font-family="sans-serif" font-size="10" lengthAdjust="spacing" textLength="44.5459" x="282.1001" y="577.6104">payment</text><text fill="#000000" font-family="sans-serif" font-size="10" lengthAdjust="spacing" textLength="17.6855" x="272.3784" y="589.251">link</text><polygon fill="#004D40" points="44.0879,626.8906,34.0879,630.8906,44.0879,634.8906,40.0879,630.8906" style="stroke:#004D40;stroke-width:1.0;"/><line style="stroke:#004D40;stroke-width:1.0;stroke-dasharray:2.0,2.0;" x1="38.0879" x2="176.543" y1="630.8906" y2="630.8906"/><text fill="#000000" font-family="sans-serif" font-size="10" lengthAdjust="spacing" textLength="42.0703" x="84.2803" y="614.8916">Displays</text><text fill="#000000" font-family="sans-serif" font-size="10" lengthAdjust="spacing" textLength="56.4893" x="58.8237" y="626.5322">transaction</text><text fill="#000000" font-family="sans-serif" font-size="10" lengthAdjust="spacing" textLength="3.1787" x="115.313" y="626.5322">&#160;</text><text fill="#000000" font-family="sans-serif" font-size="10" lengthAdjust="spacing" textLength="33.3154" x="118.4917" y="626.5322">details</text></g></svg>