<svg xmlns="http://www.w3.org/2000/svg" xmlns:xlink="http://www.w3.org/1999/xlink" contentStyleType="text/css" height="454px" preserveAspectRatio="none" style="width:656px;height:454px;background:#FFFFFF;" version="1.1" viewBox="0 0 656 454" width="656px" zoomAndPan="magnify"><title>Products - Dynamic</title><defs/><g><text fill="#000000" font-family="sans-serif" font-size="14" font-weight="bold" lengthAdjust="spacing" textLength="153.501" x="253.0234" y="27.9951">Products - Dynamic</text><line style="stroke:#181818;stroke-width:0.5;stroke-dasharray:5.0,5.0;" x1="33" x2="33" y1="130.2344" y2="362.2813"/><line style="stroke:#181818;stroke-width:0.5;stroke-dasharray:5.0,5.0;" x1="193.1758" x2="193.1758" y1="130.2344" y2="362.2813"/><line style="stroke:#181818;stroke-width:0.5;stroke-dasharray:5.0,5.0;" x1="415.3145" x2="415.3145" y1="130.2344" y2="362.2813"/><line style="stroke:#181818;stroke-width:0.5;stroke-dasharray:5.0,5.0;" x1="586.293" x2="586.293" y1="130.2344" y2="362.2813"/><text fill="#000000" font-family="sans-serif" font-size="14" lengthAdjust="spacing" textLength="50.1758" x="5" y="115.292">Reader</text><text fill="#000000" font-family="sans-serif" font-size="10" lengthAdjust="spacing" textLength="41.7627" x="9.2065" y="127.876">[Person]</text><ellipse cx="33.0879" cy="50.7969" fill="#00796B" rx="8" ry="8" style="stroke:#181818;stroke-width:0.5;"/><path d="M33.0879,58.7969 L33.0879,85.7969 M20.0879,66.7969 L46.0879,66.7969 M33.0879,85.7969 L20.0879,100.7969 M33.0879,85.7969 L46.0879,100.7969 " fill="none" style="stroke:#181818;stroke-width:0.5;"/><text fill="#000000" font-family="sans-serif" font-size="14" lengthAdjust="spacing" textLength="50.1758" x="5" y="374.2764">Reader</text><text fill="#000000" font-family="sans-serif" font-size="10" lengthAdjust="spacing" textLength="41.7627" x="9.2065" y="386.8604">[Person]</text><ellipse cx="33.0879" cy="397.7188" fill="#00796B" rx="8" ry="8" style="stroke:#181818;stroke-width:0.5;"/><path d="M33.0879,405.7188 L33.0879,432.7188 M20.0879,413.7188 L46.0879,413.7188 M33.0879,432.7188 L20.0879,447.7188 M33.0879,432.7188 L46.0879,447.7188 " fill="none" style="stroke:#181818;stroke-width:0.5;"/><rect fill="#26A69A" height="41.9375" rx="2.5" ry="2.5" style="stroke:#1A746B;stroke-width:0.5;" width="244.1387" x="71.1758" y="87.2969"/><text fill="#FFFFFF" font-family="sans-serif" font-size="14" lengthAdjust="spacing" textLength="230.1387" x="78.1758" y="107.292">Products Single Page Application</text><text fill="#FFFFFF" font-family="sans-serif" font-size="10" lengthAdjust="spacing" textLength="153.1006" x="116.6948" y="119.876">[Container: React Component]</text><rect fill="#26A69A" height="41.9375" rx="2.5" ry="2.5" style="stroke:#1A746B;stroke-width:0.5;" width="244.1387" x="71.1758" y="361.2813"/><text fill="#FFFFFF" font-family="sans-serif" font-size="14" lengthAdjust="spacing" textLength="230.1387" x="78.1758" y="381.2764">Products Single Page Application</text><text fill="#FFFFFF" font-family="sans-serif" font-size="10" lengthAdjust="spacing" textLength="153.1006" x="116.6948" y="393.8604">[Container: React Component]</text><rect fill="#26A69A" height="41.9375" rx="2.5" ry="2.5" style="stroke:#1A746B;stroke-width:0.5;" width="181.9785" x="325.3145" y="87.2969"/><text fill="#FFFFFF" font-family="sans-serif" font-size="14" lengthAdjust="spacing" textLength="153.5898" x="339.5088" y="107.292">Products Microservice</text><text fill="#FFFFFF" font-family="sans-serif" font-size="10" lengthAdjust="spacing" textLength="167.9785" x="332.3145" y="119.876">[Container: Java and Spring Boot]</text><rect fill="#26A69A" height="41.9375" rx="2.5" ry="2.5" style="stroke:#1A746B;stroke-width:0.5;" width="181.9785" x="325.3145" y="361.2813"/><text fill="#FFFFFF" font-family="sans-serif" font-size="14" lengthAdjust="spacing" textLength="153.5898" x="339.5088" y="381.2764">Products Microservice</text><text fill="#FFFFFF" font-family="sans-serif" font-size="10" lengthAdjust="spacing" textLength="167.9785" x="332.3145" y="393.8604">[Container: Java and Spring Boot]</text><text fill="#000000" font-family="sans-serif" font-size="14" lengthAdjust="spacing" textLength="132.2549" x="517.293" y="115.292">Products Database</text><text fill="#000000" font-family="sans-serif" font-size="10" lengthAdjust="spacing" textLength="111.3281" x="527.7563" y="127.876">[Container: MongoDB]</text><path d="M568.4204,66.2969 C568.4204,56.2969 586.4204,56.2969 586.4204,56.2969 C586.4204,56.2969 604.4204,56.2969 604.4204,66.2969 L604.4204,92.2969 C604.4204,102.2969 586.4204,102.2969 586.4204,102.2969 C586.4204,102.2969 568.4204,102.2969 568.4204,92.2969 L568.4204,66.2969 " fill="#26A69A" style="stroke:#181818;stroke-width:1.5;"/><path d="M568.4204,66.2969 C568.4204,76.2969 586.4204,76.2969 586.4204,76.2969 C586.4204,76.2969 604.4204,76.2969 604.4204,66.2969 " fill="none" style="stroke:#181818;stroke-width:1.5;"/><text fill="#000000" font-family="sans-serif" font-size="14" lengthAdjust="spacing" textLength="132.2549" x="517.293" y="374.2764">Products Database</text><text fill="#000000" font-family="sans-serif" font-size="10" lengthAdjust="spacing" textLength="111.3281" x="527.7563" y="386.8604">[Container: MongoDB]</text><path d="M568.4204,399.2188 C568.4204,389.2188 586.4204,389.2188 586.4204,389.2188 C586.4204,389.2188 604.4204,389.2188 604.4204,399.2188 L604.4204,425.2188 C604.4204,435.2188 586.4204,435.2188 586.4204,435.2188 C586.4204,435.2188 568.4204,435.2188 568.4204,425.2188 L568.4204,399.2188 " fill="#26A69A" style="stroke:#181818;stroke-width:1.5;"/><path d="M568.4204,399.2188 C568.4204,409.2188 586.4204,409.2188 586.4204,409.2188 C586.4204,409.2188 604.4204,409.2188 604.4204,399.2188 " fill="none" style="stroke:#181818;stroke-width:1.5;"/><polygon fill="#004D40" points="181.2451,165.5156,191.2451,169.5156,181.2451,173.5156,185.2451,169.5156" style="stroke:#004D40;stroke-width:1.0;"/><line style="stroke:#004D40;stroke-width:1.0;" x1="33.0879" x2="187.2451" y1="169.5156" y2="169.5156"/><text fill="#000000" font-family="sans-serif" font-size="10" lengthAdjust="spacing" textLength="46.2793" x="65.8691" y="153.5166">Requests</text><text fill="#000000" font-family="sans-serif" font-size="10" lengthAdjust="spacing" textLength="3.1787" x="112.1484" y="153.5166">&#160;</text><text fill="#000000" font-family="sans-serif" font-size="10" lengthAdjust="spacing" textLength="45.1367" x="115.3271" y="153.5166">available</text><text fill="#000000" font-family="sans-serif" font-size="10" lengthAdjust="spacing" textLength="29.585" x="89.4409" y="165.1572">books</text><text fill="#000000" font-family="sans-serif" font-size="10" lengthAdjust="spacing" textLength="3.1787" x="119.0259" y="165.1572">&#160;</text><text fill="#000000" font-family="sans-serif" font-size="10" lengthAdjust="spacing" textLength="14.6875" x="122.2046" y="165.1572">list</text><polygon fill="#004D40" points="404.3037,202.7969,414.3037,206.7969,404.3037,210.7969,408.3037,206.7969" style="stroke:#004D40;stroke-width:1.0;"/><line style="stroke:#004D40;stroke-width:1.0;" x1="193.2451" x2="410.3037" y1="206.7969" y2="206.7969"/><text fill="#000000" font-family="sans-serif" font-size="10" lengthAdjust="spacing" textLength="39.0234" x="261.105" y="190.7979">Fetches</text><text fill="#000000" font-family="sans-serif" font-size="10" lengthAdjust="spacing" textLength="3.1787" x="300.1284" y="190.7979">&#160;</text><text fill="#000000" font-family="sans-serif" font-size="10" lengthAdjust="spacing" textLength="45.1367" x="303.3071" y="190.7979">available</text><text fill="#000000" font-family="sans-serif" font-size="10" lengthAdjust="spacing" textLength="29.585" x="289.9819" y="202.4385">books</text><polygon fill="#004D40" points="574.4204,240.0781,584.4204,244.0781,574.4204,248.0781,578.4204,244.0781" style="stroke:#004D40;stroke-width:1.0;"/><line style="stroke:#004D40;stroke-width:1.0;" x1="416.3037" x2="580.4204" y1="244.0781" y2="244.0781"/><text fill="#000000" font-family="sans-serif" font-size="10" lengthAdjust="spacing" textLength="47.3438" x="453.5325" y="228.0791">Retrieves</text><text fill="#000000" font-family="sans-serif" font-size="10" lengthAdjust="spacing" textLength="3.1787" x="500.8762" y="228.0791">&#160;</text><text fill="#000000" font-family="sans-serif" font-size="10" lengthAdjust="spacing" textLength="45.1367" x="504.0549" y="228.0791">available</text><text fill="#000000" font-family="sans-serif" font-size="10" lengthAdjust="spacing" textLength="29.585" x="486.5696" y="239.7197">books</text><polygon fill="#004D40" points="427.3037,277.3594,417.3037,281.3594,427.3037,285.3594,423.3037,281.3594" style="stroke:#004D40;stroke-width:1.0;"/><line style="stroke:#004D40;stroke-width:1.0;stroke-dasharray:2.0,2.0;" x1="421.3037" x2="585.4204" y1="281.3594" y2="281.3594"/><text fill="#000000" font-family="sans-serif" font-size="10" lengthAdjust="spacing" textLength="39.0186" x="457.6951" y="265.3604">Returns</text><text fill="#000000" font-family="sans-serif" font-size="10" lengthAdjust="spacing" textLength="3.1787" x="496.7136" y="265.3604">&#160;</text><text fill="#000000" font-family="sans-serif" font-size="10" lengthAdjust="spacing" textLength="45.1367" x="499.8923" y="265.3604">available</text><text fill="#000000" font-family="sans-serif" font-size="10" lengthAdjust="spacing" textLength="29.585" x="486.5696" y="277.001">books</text><polygon fill="#004D40" points="204.2451,303,194.2451,307,204.2451,311,200.2451,307" style="stroke:#004D40;stroke-width:1.0;"/><line style="stroke:#004D40;stroke-width:1.0;stroke-dasharray:2.0,2.0;" x1="198.2451" x2="415.3037" y1="307" y2="307"/><text fill="#000000" font-family="sans-serif" font-size="10" lengthAdjust="spacing" textLength="39.0186" x="258.6367" y="302.6416">Returns</text><text fill="#000000" font-family="sans-serif" font-size="10" lengthAdjust="spacing" textLength="3.1787" x="297.6553" y="302.6416">&#160;</text><text fill="#000000" font-family="sans-serif" font-size="10" lengthAdjust="spacing" textLength="24.375" x="300.834" y="302.6416">book</text><text fill="#000000" font-family="sans-serif" font-size="10" lengthAdjust="spacing" textLength="3.1787" x="325.209" y="302.6416">&#160;</text><text fill="#000000" font-family="sans-serif" font-size="10" lengthAdjust="spacing" textLength="22.5244" x="328.3877" y="302.6416">data</text><polygon fill="#004D40" points="44.0879,340.2813,34.0879,344.2813,44.0879,348.2813,40.0879,344.2813" style="stroke:#004D40;stroke-width:1.0;"/><line style="stroke:#004D40;stroke-width:1.0;stroke-dasharray:2.0,2.0;" x1="38.0879" x2="192.2451" y1="344.2813" y2="344.2813"/><text fill="#000000" font-family="sans-serif" font-size="10" lengthAdjust="spacing" textLength="42.0703" x="67.9736" y="328.2822">Displays</text><text fill="#000000" font-family="sans-serif" font-size="10" lengthAdjust="spacing" textLength="3.1787" x="110.0439" y="328.2822">&#160;</text><text fill="#000000" font-family="sans-serif" font-size="10" lengthAdjust="spacing" textLength="45.1367" x="113.2227" y="328.2822">available</text><text fill="#000000" font-family="sans-serif" font-size="10" lengthAdjust="spacing" textLength="29.585" x="89.4409" y="339.9229">books</text><text fill="#000000" font-family="sans-serif" font-size="10" lengthAdjust="spacing" textLength="3.1787" x="119.0259" y="339.9229">&#160;</text><text fill="#000000" font-family="sans-serif" font-size="10" lengthAdjust="spacing" textLength="14.6875" x="122.2046" y="339.9229">list</text></g></svg>