<svg xmlns="http://www.w3.org/2000/svg" xmlns:xlink="http://www.w3.org/1999/xlink" contentStyleType="text/css" height="431px" preserveAspectRatio="none" style="width:604px;height:431px;background:#FFFFFF;" version="1.1" viewBox="0 0 604 431" width="604px" zoomAndPan="magnify"><title>Cart - Dynamic</title><defs/><g><text fill="#000000" font-family="sans-serif" font-size="14" font-weight="bold" lengthAdjust="spacing" textLength="116.7236" x="245.2466" y="27.9951">Cart - Dynamic</text><line style="stroke:#181818;stroke-width:0.5;stroke-dasharray:5.0,5.0;" x1="33" x2="33" y1="130.2344" y2="339"/><line style="stroke:#181818;stroke-width:0.5;stroke-dasharray:5.0,5.0;" x1="177.1758" x2="177.1758" y1="130.2344" y2="339"/><line style="stroke:#181818;stroke-width:0.5;stroke-dasharray:5.0,5.0;" x1="383.9102" x2="383.9102" y1="130.2344" y2="339"/><line style="stroke:#181818;stroke-width:0.5;stroke-dasharray:5.0,5.0;" x1="543.8887" x2="543.8887" y1="130.2344" y2="339"/><text fill="#000000" font-family="sans-serif" font-size="14" lengthAdjust="spacing" textLength="50.1758" x="5" y="115.292">Reader</text><text fill="#000000" font-family="sans-serif" font-size="10" lengthAdjust="spacing" textLength="41.7627" x="9.2065" y="127.876">[Person]</text><ellipse cx="33.0879" cy="50.7969" fill="#00796B" rx="8" ry="8" style="stroke:#181818;stroke-width:0.5;"/><path d="M33.0879,58.7969 L33.0879,85.7969 M20.0879,66.7969 L46.0879,66.7969 M33.0879,85.7969 L20.0879,100.7969 M33.0879,85.7969 L46.0879,100.7969 " fill="none" style="stroke:#181818;stroke-width:0.5;"/><text fill="#000000" font-family="sans-serif" font-size="14" lengthAdjust="spacing" textLength="50.1758" x="5" y="350.9951">Reader</text><text fill="#000000" font-family="sans-serif" font-size="10" lengthAdjust="spacing" textLength="41.7627" x="9.2065" y="363.5791">[Person]</text><ellipse cx="33.0879" cy="374.4375" fill="#00796B" rx="8" ry="8" style="stroke:#181818;stroke-width:0.5;"/><path d="M33.0879,382.4375 L33.0879,409.4375 M20.0879,390.4375 L46.0879,390.4375 M33.0879,409.4375 L20.0879,424.4375 M33.0879,409.4375 L46.0879,424.4375 " fill="none" style="stroke:#181818;stroke-width:0.5;"/><rect fill="#26A69A" height="41.9375" rx="2.5" ry="2.5" style="stroke:#1A746B;stroke-width:0.5;" width="212.7344" x="71.1758" y="87.2969"/><text fill="#FFFFFF" font-family="sans-serif" font-size="14" lengthAdjust="spacing" textLength="198.7344" x="78.1758" y="107.292">Cart Single Page Application</text><text fill="#FFFFFF" font-family="sans-serif" font-size="10" lengthAdjust="spacing" textLength="153.1006" x="100.9927" y="119.876">[Container: React Component]</text><rect fill="#26A69A" height="41.9375" rx="2.5" ry="2.5" style="stroke:#1A746B;stroke-width:0.5;" width="212.7344" x="71.1758" y="338"/><text fill="#FFFFFF" font-family="sans-serif" font-size="14" lengthAdjust="spacing" textLength="198.7344" x="78.1758" y="357.9951">Cart Single Page Application</text><text fill="#FFFFFF" font-family="sans-serif" font-size="10" lengthAdjust="spacing" textLength="153.1006" x="100.9927" y="370.5791">[Container: React Component]</text><rect fill="#26A69A" height="41.9375" rx="2.5" ry="2.5" style="stroke:#1A746B;stroke-width:0.5;" width="181.9785" x="293.9102" y="87.2969"/><text fill="#FFFFFF" font-family="sans-serif" font-size="14" lengthAdjust="spacing" textLength="122.1855" x="323.8066" y="107.292">Cart Microservice</text><text fill="#FFFFFF" font-family="sans-serif" font-size="10" lengthAdjust="spacing" textLength="167.9785" x="300.9102" y="119.876">[Container: Java and Spring Boot]</text><rect fill="#26A69A" height="41.9375" rx="2.5" ry="2.5" style="stroke:#1A746B;stroke-width:0.5;" width="181.9785" x="293.9102" y="338"/><text fill="#FFFFFF" font-family="sans-serif" font-size="14" lengthAdjust="spacing" textLength="122.1855" x="323.8066" y="357.9951">Cart Microservice</text><text fill="#FFFFFF" font-family="sans-serif" font-size="10" lengthAdjust="spacing" textLength="167.9785" x="300.9102" y="370.5791">[Container: Java and Spring Boot]</text><text fill="#000000" font-family="sans-serif" font-size="14" lengthAdjust="spacing" textLength="100.8506" x="491.1274" y="115.292">Cart Database</text><text fill="#000000" font-family="sans-serif" font-size="10" lengthAdjust="spacing" textLength="111.3281" x="485.8887" y="127.876">[Container: MongoDB]</text><path d="M526.5527,66.2969 C526.5527,56.2969 544.5527,56.2969 544.5527,56.2969 C544.5527,56.2969 562.5527,56.2969 562.5527,66.2969 L562.5527,92.2969 C562.5527,102.2969 544.5527,102.2969 544.5527,102.2969 C544.5527,102.2969 526.5527,102.2969 526.5527,92.2969 L526.5527,66.2969 " fill="#26A69A" style="stroke:#181818;stroke-width:1.5;"/><path d="M526.5527,66.2969 C526.5527,76.2969 544.5527,76.2969 544.5527,76.2969 C544.5527,76.2969 562.5527,76.2969 562.5527,66.2969 " fill="none" style="stroke:#181818;stroke-width:1.5;"/><text fill="#000000" font-family="sans-serif" font-size="14" lengthAdjust="spacing" textLength="100.8506" x="491.1274" y="350.9951">Cart Database</text><text fill="#000000" font-family="sans-serif" font-size="10" lengthAdjust="spacing" textLength="111.3281" x="485.8887" y="363.5791">[Container: MongoDB]</text><path d="M526.5527,375.9375 C526.5527,365.9375 544.5527,365.9375 544.5527,365.9375 C544.5527,365.9375 562.5527,365.9375 562.5527,375.9375 L562.5527,401.9375 C562.5527,411.9375 544.5527,411.9375 544.5527,411.9375 C544.5527,411.9375 526.5527,411.9375 526.5527,401.9375 L526.5527,375.9375 " fill="#26A69A" style="stroke:#181818;stroke-width:1.5;"/><path d="M526.5527,375.9375 C526.5527,385.9375 544.5527,385.9375 544.5527,385.9375 C544.5527,385.9375 562.5527,385.9375 562.5527,375.9375 " fill="none" style="stroke:#181818;stroke-width:1.5;"/><polygon fill="#004D40" points="165.543,165.5156,175.543,169.5156,165.543,173.5156,169.543,169.5156" style="stroke:#004D40;stroke-width:1.0;"/><line style="stroke:#004D40;stroke-width:1.0;" x1="33.0879" x2="171.543" y1="169.5156" y2="169.5156"/><text fill="#000000" font-family="sans-serif" font-size="10" lengthAdjust="spacing" textLength="46.2402" x="55.9746" y="153.5166">Removes</text><text fill="#000000" font-family="sans-serif" font-size="10" lengthAdjust="spacing" textLength="3.1787" x="102.2148" y="153.5166">&#160;</text><text fill="#000000" font-family="sans-serif" font-size="10" lengthAdjust="spacing" textLength="22.5928" x="105.3936" y="153.5166">item</text><text fill="#000000" font-family="sans-serif" font-size="10" lengthAdjust="spacing" textLength="3.1787" x="127.9863" y="153.5166">&#160;</text><text fill="#000000" font-family="sans-serif" font-size="10" lengthAdjust="spacing" textLength="23.4912" x="131.165" y="153.5166">from</text><text fill="#000000" font-family="sans-serif" font-size="10" lengthAdjust="spacing" textLength="19.6582" x="95.4863" y="165.1572">cart</text><polygon fill="#004D40" points="372.8994,202.7969,382.8994,206.7969,372.8994,210.7969,376.8994,206.7969" style="stroke:#004D40;stroke-width:1.0;"/><line style="stroke:#004D40;stroke-width:1.0;" x1="177.543" x2="378.8994" y1="206.7969" y2="206.7969"/><text fill="#000000" font-family="sans-serif" font-size="10" lengthAdjust="spacing" textLength="49.6924" x="244.9565" y="190.7979">Processes</text><text fill="#000000" font-family="sans-serif" font-size="10" lengthAdjust="spacing" textLength="3.1787" x="294.6489" y="190.7979">&#160;</text><text fill="#000000" font-family="sans-serif" font-size="10" lengthAdjust="spacing" textLength="19.6582" x="297.8276" y="190.7979">cart</text><text fill="#000000" font-family="sans-serif" font-size="10" lengthAdjust="spacing" textLength="40.9473" x="260.7476" y="202.4385">removal</text><polygon fill="#004D40" points="532.5527,228.4375,542.5527,232.4375,532.5527,236.4375,536.5527,232.4375" style="stroke:#004D40;stroke-width:1.0;"/><line style="stroke:#004D40;stroke-width:1.0;" x1="384.8994" x2="538.5527" y1="232.4375" y2="232.4375"/><text fill="#000000" font-family="sans-serif" font-size="10" lengthAdjust="spacing" textLength="46.2402" x="417.3018" y="228.0791">Removes</text><text fill="#000000" font-family="sans-serif" font-size="10" lengthAdjust="spacing" textLength="3.1787" x="463.542" y="228.0791">&#160;</text><text fill="#000000" font-family="sans-serif" font-size="10" lengthAdjust="spacing" textLength="19.6582" x="466.7207" y="228.0791">cart</text><text fill="#000000" font-family="sans-serif" font-size="10" lengthAdjust="spacing" textLength="3.1787" x="486.3789" y="228.0791">&#160;</text><text fill="#000000" font-family="sans-serif" font-size="10" lengthAdjust="spacing" textLength="22.5928" x="489.5576" y="228.0791">item</text><polygon fill="#004D40" points="395.8994,254.0781,385.8994,258.0781,395.8994,262.0781,391.8994,258.0781" style="stroke:#004D40;stroke-width:1.0;"/><line style="stroke:#004D40;stroke-width:1.0;stroke-dasharray:2.0,2.0;" x1="389.8994" x2="543.5527" y1="258.0781" y2="258.0781"/><text fill="#000000" font-family="sans-serif" font-size="10" lengthAdjust="spacing" textLength="44.7998" x="420.2632" y="253.7197">Confirms</text><text fill="#000000" font-family="sans-serif" font-size="10" lengthAdjust="spacing" textLength="3.1787" x="465.063" y="253.7197">&#160;</text><text fill="#000000" font-family="sans-serif" font-size="10" lengthAdjust="spacing" textLength="40.9473" x="468.2417" y="253.7197">removal</text><polygon fill="#004D40" points="188.543,291.3594,178.543,295.3594,188.543,299.3594,184.543,295.3594" style="stroke:#004D40;stroke-width:1.0;"/><line style="stroke:#004D40;stroke-width:1.0;stroke-dasharray:2.0,2.0;" x1="182.543" x2="383.8994" y1="295.3594" y2="295.3594"/><text fill="#000000" font-family="sans-serif" font-size="10" lengthAdjust="spacing" textLength="44.7998" x="247.4028" y="279.3604">Confirms</text><text fill="#000000" font-family="sans-serif" font-size="10" lengthAdjust="spacing" textLength="3.1787" x="292.2026" y="279.3604">&#160;</text><text fill="#000000" font-family="sans-serif" font-size="10" lengthAdjust="spacing" textLength="19.6582" x="295.3813" y="279.3604">cart</text><text fill="#000000" font-family="sans-serif" font-size="10" lengthAdjust="spacing" textLength="40.9473" x="260.7476" y="291.001">removal</text><polygon fill="#004D40" points="44.0879,317,34.0879,321,44.0879,325,40.0879,321" style="stroke:#004D40;stroke-width:1.0;"/><line style="stroke:#004D40;stroke-width:1.0;stroke-dasharray:2.0,2.0;" x1="38.0879" x2="176.543" y1="321" y2="321"/><text fill="#000000" font-family="sans-serif" font-size="10" lengthAdjust="spacing" textLength="41.4258" x="60.0811" y="316.6416">Updates</text><text fill="#000000" font-family="sans-serif" font-size="10" lengthAdjust="spacing" textLength="3.1787" x="101.5068" y="316.6416">&#160;</text><text fill="#000000" font-family="sans-serif" font-size="10" lengthAdjust="spacing" textLength="19.6582" x="104.6855" y="316.6416">cart</text><text fill="#000000" font-family="sans-serif" font-size="10" lengthAdjust="spacing" textLength="3.1787" x="124.3438" y="316.6416">&#160;</text><text fill="#000000" font-family="sans-serif" font-size="10" lengthAdjust="spacing" textLength="23.0273" x="127.5225" y="316.6416">view</text></g></svg>