<svg xmlns="http://www.w3.org/2000/svg" xmlns:xlink="http://www.w3.org/1999/xlink" contentStyleType="text/css" height="466px" preserveAspectRatio="none" style="width:609px;height:466px;background:#FFFFFF;" version="1.1" viewBox="0 0 609 466" width="609px" zoomAndPan="magnify"><title>Shelf - Dynamic</title><defs/><g><text fill="#000000" font-family="sans-serif" font-size="14" font-weight="bold" lengthAdjust="spacing" textLength="123.8398" x="244.4844" y="27.9951">Shelf - Dynamic</text><line style="stroke:#181818;stroke-width:0.5;stroke-dasharray:5.0,5.0;" x1="33" x2="33" y1="130.2344" y2="373.9219"/><line style="stroke:#181818;stroke-width:0.5;stroke-dasharray:5.0,5.0;" x1="180.1758" x2="180.1758" y1="130.2344" y2="373.9219"/><line style="stroke:#181818;stroke-width:0.5;stroke-dasharray:5.0,5.0;" x1="389.502" x2="389.502" y1="130.2344" y2="373.9219"/><line style="stroke:#181818;stroke-width:0.5;stroke-dasharray:5.0,5.0;" x1="549.4805" x2="549.4805" y1="130.2344" y2="373.9219"/><text fill="#000000" font-family="sans-serif" font-size="14" lengthAdjust="spacing" textLength="50.1758" x="5" y="115.292">Reader</text><text fill="#000000" font-family="sans-serif" font-size="10" lengthAdjust="spacing" textLength="41.7627" x="9.2065" y="127.876">[Person]</text><ellipse cx="33.0879" cy="50.7969" fill="#00796B" rx="8" ry="8" style="stroke:#181818;stroke-width:0.5;"/><path d="M33.0879,58.7969 L33.0879,85.7969 M20.0879,66.7969 L46.0879,66.7969 M33.0879,85.7969 L20.0879,100.7969 M33.0879,85.7969 L46.0879,100.7969 " fill="none" style="stroke:#181818;stroke-width:0.5;"/><text fill="#000000" font-family="sans-serif" font-size="14" lengthAdjust="spacing" textLength="50.1758" x="5" y="385.917">Reader</text><text fill="#000000" font-family="sans-serif" font-size="10" lengthAdjust="spacing" textLength="41.7627" x="9.2065" y="398.501">[Person]</text><ellipse cx="33.0879" cy="409.3594" fill="#00796B" rx="8" ry="8" style="stroke:#181818;stroke-width:0.5;"/><path d="M33.0879,417.3594 L33.0879,444.3594 M20.0879,425.3594 L46.0879,425.3594 M33.0879,444.3594 L20.0879,459.3594 M33.0879,444.3594 L46.0879,459.3594 " fill="none" style="stroke:#181818;stroke-width:0.5;"/><rect fill="#26A69A" height="41.9375" rx="2.5" ry="2.5" style="stroke:#1A746B;stroke-width:0.5;" width="218.3262" x="71.1758" y="87.2969"/><text fill="#FFFFFF" font-family="sans-serif" font-size="14" lengthAdjust="spacing" textLength="204.3262" x="78.1758" y="107.292">Shelf Single Page Application</text><text fill="#FFFFFF" font-family="sans-serif" font-size="10" lengthAdjust="spacing" textLength="153.1006" x="103.7886" y="119.876">[Container: React Component]</text><rect fill="#26A69A" height="41.9375" rx="2.5" ry="2.5" style="stroke:#1A746B;stroke-width:0.5;" width="218.3262" x="71.1758" y="372.9219"/><text fill="#FFFFFF" font-family="sans-serif" font-size="14" lengthAdjust="spacing" textLength="204.3262" x="78.1758" y="392.917">Shelf Single Page Application</text><text fill="#FFFFFF" font-family="sans-serif" font-size="10" lengthAdjust="spacing" textLength="153.1006" x="103.7886" y="405.501">[Container: React Component]</text><rect fill="#26A69A" height="41.9375" rx="2.5" ry="2.5" style="stroke:#1A746B;stroke-width:0.5;" width="181.9785" x="299.502" y="87.2969"/><text fill="#FFFFFF" font-family="sans-serif" font-size="14" lengthAdjust="spacing" textLength="127.7773" x="326.6025" y="107.292">Shelf Microservice</text><text fill="#FFFFFF" font-family="sans-serif" font-size="10" lengthAdjust="spacing" textLength="167.9785" x="306.502" y="119.876">[Container: Java and Spring Boot]</text><rect fill="#26A69A" height="41.9375" rx="2.5" ry="2.5" style="stroke:#1A746B;stroke-width:0.5;" width="181.9785" x="299.502" y="372.9219"/><text fill="#FFFFFF" font-family="sans-serif" font-size="14" lengthAdjust="spacing" textLength="127.7773" x="326.6025" y="392.917">Shelf Microservice</text><text fill="#FFFFFF" font-family="sans-serif" font-size="10" lengthAdjust="spacing" textLength="167.9785" x="306.502" y="405.501">[Container: Java and Spring Boot]</text><text fill="#000000" font-family="sans-serif" font-size="14" lengthAdjust="spacing" textLength="106.4424" x="493.9233" y="115.292">Shelf Database</text><text fill="#000000" font-family="sans-serif" font-size="10" lengthAdjust="spacing" textLength="111.3281" x="491.4805" y="127.876">[Container: MongoDB]</text><path d="M532.1445,66.2969 C532.1445,56.2969 550.1445,56.2969 550.1445,56.2969 C550.1445,56.2969 568.1445,56.2969 568.1445,66.2969 L568.1445,92.2969 C568.1445,102.2969 550.1445,102.2969 550.1445,102.2969 C550.1445,102.2969 532.1445,102.2969 532.1445,92.2969 L532.1445,66.2969 " fill="#26A69A" style="stroke:#181818;stroke-width:1.5;"/><path d="M532.1445,66.2969 C532.1445,76.2969 550.1445,76.2969 550.1445,76.2969 C550.1445,76.2969 568.1445,76.2969 568.1445,66.2969 " fill="none" style="stroke:#181818;stroke-width:1.5;"/><text fill="#000000" font-family="sans-serif" font-size="14" lengthAdjust="spacing" textLength="106.4424" x="493.9233" y="385.917">Shelf Database</text><text fill="#000000" font-family="sans-serif" font-size="10" lengthAdjust="spacing" textLength="111.3281" x="491.4805" y="398.501">[Container: MongoDB]</text><path d="M532.1445,410.8594 C532.1445,400.8594 550.1445,400.8594 550.1445,400.8594 C550.1445,400.8594 568.1445,400.8594 568.1445,410.8594 L568.1445,436.8594 C568.1445,446.8594 550.1445,446.8594 550.1445,446.8594 C550.1445,446.8594 532.1445,446.8594 532.1445,436.8594 L532.1445,410.8594 " fill="#26A69A" style="stroke:#181818;stroke-width:1.5;"/><path d="M532.1445,410.8594 C532.1445,420.8594 550.1445,420.8594 550.1445,420.8594 C550.1445,420.8594 568.1445,420.8594 568.1445,410.8594 " fill="none" style="stroke:#181818;stroke-width:1.5;"/><polygon fill="#004D40" points="168.3389,165.5156,178.3389,169.5156,168.3389,173.5156,172.3389,169.5156" style="stroke:#004D40;stroke-width:1.0;"/><line style="stroke:#004D40;stroke-width:1.0;" x1="33.0879" x2="174.3389" y1="169.5156" y2="169.5156"/><text fill="#000000" font-family="sans-serif" font-size="10" lengthAdjust="spacing" textLength="46.2793" x="58.2417" y="153.5166">Requests</text><text fill="#000000" font-family="sans-serif" font-size="10" lengthAdjust="spacing" textLength="3.1787" x="104.521" y="153.5166">&#160;</text><text fill="#000000" font-family="sans-serif" font-size="10" lengthAdjust="spacing" textLength="47.4854" x="107.6997" y="153.5166">borrowed</text><text fill="#000000" font-family="sans-serif" font-size="10" lengthAdjust="spacing" textLength="27.8027" x="79.709" y="165.1572">items</text><text fill="#000000" font-family="sans-serif" font-size="10" lengthAdjust="spacing" textLength="3.1787" x="107.5117" y="165.1572">&#160;</text><text fill="#000000" font-family="sans-serif" font-size="10" lengthAdjust="spacing" textLength="23.0273" x="110.6904" y="165.1572">view</text><polygon fill="#004D40" points="378.4912,202.7969,388.4912,206.7969,378.4912,210.7969,382.4912,206.7969" style="stroke:#004D40;stroke-width:1.0;"/><line style="stroke:#004D40;stroke-width:1.0;" x1="180.3389" x2="384.4912" y1="206.7969" y2="206.7969"/><text fill="#000000" font-family="sans-serif" font-size="10" lengthAdjust="spacing" textLength="39.0234" x="240.5713" y="190.7979">Fetches</text><text fill="#000000" font-family="sans-serif" font-size="10" lengthAdjust="spacing" textLength="3.1787" x="279.5947" y="190.7979">&#160;</text><text fill="#000000" font-family="sans-serif" font-size="10" lengthAdjust="spacing" textLength="47.4854" x="282.7734" y="190.7979">borrowed</text><text fill="#000000" font-family="sans-serif" font-size="10" lengthAdjust="spacing" textLength="27.8027" x="271.5137" y="202.4385">items</text><polygon fill="#004D40" points="538.1445,240.0781,548.1445,244.0781,538.1445,248.0781,542.1445,244.0781" style="stroke:#004D40;stroke-width:1.0;"/><line style="stroke:#004D40;stroke-width:1.0;" x1="390.4912" x2="544.1445" y1="244.0781" y2="244.0781"/><text fill="#000000" font-family="sans-serif" font-size="10" lengthAdjust="spacing" textLength="47.3438" x="421.314" y="228.0791">Retrieves</text><text fill="#000000" font-family="sans-serif" font-size="10" lengthAdjust="spacing" textLength="3.1787" x="468.6577" y="228.0791">&#160;</text><text fill="#000000" font-family="sans-serif" font-size="10" lengthAdjust="spacing" textLength="47.4854" x="471.8364" y="228.0791">borrowed</text><text fill="#000000" font-family="sans-serif" font-size="10" lengthAdjust="spacing" textLength="27.8027" x="443.5649" y="239.7197">items</text><text fill="#000000" font-family="sans-serif" font-size="10" lengthAdjust="spacing" textLength="3.1787" x="471.3677" y="239.7197">&#160;</text><text fill="#000000" font-family="sans-serif" font-size="10" lengthAdjust="spacing" textLength="22.5244" x="474.5464" y="239.7197">data</text><polygon fill="#004D40" points="401.4912,277.3594,391.4912,281.3594,401.4912,285.3594,397.4912,281.3594" style="stroke:#004D40;stroke-width:1.0;"/><line style="stroke:#004D40;stroke-width:1.0;stroke-dasharray:2.0,2.0;" x1="395.4912" x2="549.1445" y1="281.3594" y2="281.3594"/><text fill="#000000" font-family="sans-serif" font-size="10" lengthAdjust="spacing" textLength="39.0186" x="425.4766" y="265.3604">Returns</text><text fill="#000000" font-family="sans-serif" font-size="10" lengthAdjust="spacing" textLength="3.1787" x="464.4951" y="265.3604">&#160;</text><text fill="#000000" font-family="sans-serif" font-size="10" lengthAdjust="spacing" textLength="47.4854" x="467.6738" y="265.3604">borrowed</text><text fill="#000000" font-family="sans-serif" font-size="10" lengthAdjust="spacing" textLength="27.8027" x="443.5649" y="277.001">items</text><text fill="#000000" font-family="sans-serif" font-size="10" lengthAdjust="spacing" textLength="3.1787" x="471.3677" y="277.001">&#160;</text><text fill="#000000" font-family="sans-serif" font-size="10" lengthAdjust="spacing" textLength="22.5244" x="474.5464" y="277.001">data</text><polygon fill="#004D40" points="191.3389,314.6406,181.3389,318.6406,191.3389,322.6406,187.3389,318.6406" style="stroke:#004D40;stroke-width:1.0;"/><line style="stroke:#004D40;stroke-width:1.0;stroke-dasharray:2.0,2.0;" x1="185.3389" x2="389.4912" y1="318.6406" y2="318.6406"/><text fill="#000000" font-family="sans-serif" font-size="10" lengthAdjust="spacing" textLength="39.0186" x="240.5737" y="302.6416">Returns</text><text fill="#000000" font-family="sans-serif" font-size="10" lengthAdjust="spacing" textLength="3.1787" x="279.5923" y="302.6416">&#160;</text><text fill="#000000" font-family="sans-serif" font-size="10" lengthAdjust="spacing" textLength="47.4854" x="282.771" y="302.6416">borrowed</text><text fill="#000000" font-family="sans-serif" font-size="10" lengthAdjust="spacing" textLength="27.8027" x="258.1812" y="314.2822">items</text><text fill="#000000" font-family="sans-serif" font-size="10" lengthAdjust="spacing" textLength="3.1787" x="285.9839" y="314.2822">&#160;</text><text fill="#000000" font-family="sans-serif" font-size="10" lengthAdjust="spacing" textLength="10.0391" x="289.1626" y="314.2822">to</text><text fill="#000000" font-family="sans-serif" font-size="10" lengthAdjust="spacing" textLength="3.1787" x="299.2017" y="314.2822">&#160;</text><text fill="#000000" font-family="sans-serif" font-size="10" lengthAdjust="spacing" textLength="10.2686" x="302.3804" y="314.2822">UI</text><polygon fill="#004D40" points="44.0879,351.9219,34.0879,355.9219,44.0879,359.9219,40.0879,355.9219" style="stroke:#004D40;stroke-width:1.0;"/><line style="stroke:#004D40;stroke-width:1.0;stroke-dasharray:2.0,2.0;" x1="38.0879" x2="179.3389" y1="355.9219" y2="355.9219"/><text fill="#000000" font-family="sans-serif" font-size="10" lengthAdjust="spacing" textLength="42.0703" x="60.3462" y="339.9229">Displays</text><text fill="#000000" font-family="sans-serif" font-size="10" lengthAdjust="spacing" textLength="3.1787" x="102.4165" y="339.9229">&#160;</text><text fill="#000000" font-family="sans-serif" font-size="10" lengthAdjust="spacing" textLength="47.4854" x="105.5952" y="339.9229">borrowed</text><text fill="#000000" font-family="sans-serif" font-size="10" lengthAdjust="spacing" textLength="27.8027" x="79.709" y="351.5635">items</text><text fill="#000000" font-family="sans-serif" font-size="10" lengthAdjust="spacing" textLength="3.1787" x="107.5117" y="351.5635">&#160;</text><text fill="#000000" font-family="sans-serif" font-size="10" lengthAdjust="spacing" textLength="23.0273" x="110.6904" y="351.5635">view</text></g></svg>