<svg xmlns="http://www.w3.org/2000/svg" xmlns:xlink="http://www.w3.org/1999/xlink" contentStyleType="text/css" height="380px" preserveAspectRatio="none" style="width:387px;height:380px;background:#FFFFFF;" version="1.1" viewBox="0 0 387 380" width="387px" zoomAndPan="magnify"><title>Finance - Dynamic</title><defs/><g><text fill="#000000" font-family="sans-serif" font-size="14" font-weight="bold" lengthAdjust="spacing" textLength="144.9424" x="122.5339" y="27.9951">Finance - Dynamic</text><line style="stroke:#181818;stroke-width:0.5;stroke-dasharray:5.0,5.0;" x1="95" x2="95" y1="130.2344" y2="287.7188"/><line style="stroke:#181818;stroke-width:0.5;stroke-dasharray:5.0,5.0;" x1="249.9785" x2="249.9785" y1="130.2344" y2="287.7188"/><line style="stroke:#181818;stroke-width:0.5;stroke-dasharray:5.0,5.0;" x1="357.8345" x2="357.8345" y1="130.2344" y2="287.7188"/><rect fill="#26A69A" height="41.9375" rx="2.5" ry="2.5" style="stroke:#1A746B;stroke-width:0.5;" width="181.9785" x="5" y="87.2969"/><text fill="#FFFFFF" font-family="sans-serif" font-size="14" lengthAdjust="spacing" textLength="147.1641" x="22.4072" y="107.292">Finance Microservice</text><text fill="#FFFFFF" font-family="sans-serif" font-size="10" lengthAdjust="spacing" textLength="167.9785" x="12" y="119.876">[Container: Java and Spring Boot]</text><rect fill="#26A69A" height="41.9375" rx="2.5" ry="2.5" style="stroke:#1A746B;stroke-width:0.5;" width="181.9785" x="5" y="286.7188"/><text fill="#FFFFFF" font-family="sans-serif" font-size="14" lengthAdjust="spacing" textLength="147.1641" x="22.4072" y="306.7139">Finance Microservice</text><text fill="#FFFFFF" font-family="sans-serif" font-size="10" lengthAdjust="spacing" textLength="167.9785" x="12" y="319.2979">[Container: Java and Spring Boot]</text><rect fill="#4DB6AC" height="41.9375" rx="2.5" ry="2.5" style="stroke:#357F78;stroke-width:0.5;" width="106.749" x="196.9785" y="87.2969"/><text fill="#FFFFFF" font-family="sans-serif" font-size="14" lengthAdjust="spacing" textLength="91.082" x="204.812" y="107.292">Mail Provider</text><text fill="#FFFFFF" font-family="sans-serif" font-size="10" lengthAdjust="spacing" textLength="92.749" x="203.9785" y="119.876">[Software System]</text><rect fill="#4DB6AC" height="41.9375" rx="2.5" ry="2.5" style="stroke:#357F78;stroke-width:0.5;" width="106.749" x="196.9785" y="286.7188"/><text fill="#FFFFFF" font-family="sans-serif" font-size="14" lengthAdjust="spacing" textLength="91.082" x="204.812" y="306.7139">Mail Provider</text><text fill="#FFFFFF" font-family="sans-serif" font-size="10" lengthAdjust="spacing" textLength="92.749" x="203.9785" y="319.2979">[Software System]</text><text fill="#000000" font-family="sans-serif" font-size="14" lengthAdjust="spacing" textLength="50.1758" x="329.8345" y="115.292">Reader</text><text fill="#000000" font-family="sans-serif" font-size="10" lengthAdjust="spacing" textLength="41.7627" x="334.041" y="127.876">[Person]</text><ellipse cx="357.9224" cy="50.7969" fill="#00796B" rx="8" ry="8" style="stroke:#181818;stroke-width:0.5;"/><path d="M357.9224,58.7969 L357.9224,85.7969 M344.9224,66.7969 L370.9224,66.7969 M357.9224,85.7969 L344.9224,100.7969 M357.9224,85.7969 L370.9224,100.7969 " fill="none" style="stroke:#181818;stroke-width:0.5;"/><text fill="#000000" font-family="sans-serif" font-size="14" lengthAdjust="spacing" textLength="50.1758" x="329.8345" y="299.7139">Reader</text><text fill="#000000" font-family="sans-serif" font-size="10" lengthAdjust="spacing" textLength="41.7627" x="334.041" y="312.2979">[Person]</text><ellipse cx="357.9224" cy="323.1563" fill="#00796B" rx="8" ry="8" style="stroke:#181818;stroke-width:0.5;"/><path d="M357.9224,331.1563 L357.9224,358.1563 M344.9224,339.1563 L370.9224,339.1563 M357.9224,358.1563 L344.9224,373.1563 M357.9224,358.1563 L370.9224,373.1563 " fill="none" style="stroke:#181818;stroke-width:0.5;"/><polygon fill="#004D40" points="238.353,165.5156,248.353,169.5156,238.353,173.5156,242.353,169.5156" style="stroke:#004D40;stroke-width:1.0;"/><line style="stroke:#004D40;stroke-width:1.0;" x1="95.9893" x2="244.353" y1="169.5156" y2="169.5156"/><text fill="#000000" font-family="sans-serif" font-size="10" lengthAdjust="spacing" textLength="30.3955" x="131.9846" y="153.5166">Sends</text><text fill="#000000" font-family="sans-serif" font-size="10" lengthAdjust="spacing" textLength="3.1787" x="162.3801" y="153.5166">&#160;</text><text fill="#000000" font-family="sans-serif" font-size="10" lengthAdjust="spacing" textLength="35.5811" x="165.5588" y="153.5166">invoice</text><text fill="#000000" font-family="sans-serif" font-size="10" lengthAdjust="spacing" textLength="3.1787" x="201.1399" y="153.5166">&#160;</text><text fill="#000000" font-family="sans-serif" font-size="10" lengthAdjust="spacing" textLength="10.0391" x="204.3186" y="153.5166">to</text><text fill="#000000" font-family="sans-serif" font-size="10" lengthAdjust="spacing" textLength="33.0029" x="156.6697" y="165.1572">reader</text><polygon fill="#004D40" points="345.9224,191.1563,355.9224,195.1563,345.9224,199.1563,349.9224,195.1563" style="stroke:#004D40;stroke-width:1.0;"/><line style="stroke:#004D40;stroke-width:1.0;" x1="250.353" x2="351.9224" y1="195.1563" y2="195.1563"/><text fill="#000000" font-family="sans-serif" font-size="10" lengthAdjust="spacing" textLength="44.8096" x="262.353" y="190.7979">Receives</text><text fill="#000000" font-family="sans-serif" font-size="10" lengthAdjust="spacing" textLength="3.1787" x="307.1626" y="190.7979">&#160;</text><text fill="#000000" font-family="sans-serif" font-size="10" lengthAdjust="spacing" textLength="35.5811" x="310.3413" y="190.7979">invoice</text><polygon fill="#004D40" points="261.353,228.4375,251.353,232.4375,261.353,236.4375,257.353,232.4375" style="stroke:#004D40;stroke-width:1.0;"/><line style="stroke:#004D40;stroke-width:1.0;stroke-dasharray:2.0,2.0;" x1="255.353" x2="356.9224" y1="232.4375" y2="232.4375"/><text fill="#000000" font-family="sans-serif" font-size="10" lengthAdjust="spacing" textLength="44.7998" x="262.3579" y="216.4385">Confirms</text><text fill="#000000" font-family="sans-serif" font-size="10" lengthAdjust="spacing" textLength="3.1787" x="307.1577" y="216.4385">&#160;</text><text fill="#000000" font-family="sans-serif" font-size="10" lengthAdjust="spacing" textLength="35.5811" x="310.3364" y="216.4385">invoice</text><text fill="#000000" font-family="sans-serif" font-size="10" lengthAdjust="spacing" textLength="34.9609" x="286.6572" y="228.0791">receipt</text><polygon fill="#004D40" points="106.9893,265.7188,96.9893,269.7188,106.9893,273.7188,102.9893,269.7188" style="stroke:#004D40;stroke-width:1.0;"/><line style="stroke:#004D40;stroke-width:1.0;stroke-dasharray:2.0,2.0;" x1="100.9893" x2="249.353" y1="269.7188" y2="269.7188"/><text fill="#000000" font-family="sans-serif" font-size="10" lengthAdjust="spacing" textLength="44.7998" x="135.3928" y="253.7197">Confirms</text><text fill="#000000" font-family="sans-serif" font-size="10" lengthAdjust="spacing" textLength="3.1787" x="180.1926" y="253.7197">&#160;</text><text fill="#000000" font-family="sans-serif" font-size="10" lengthAdjust="spacing" textLength="27.5781" x="183.3713" y="253.7197">email</text><text fill="#000000" font-family="sans-serif" font-size="10" lengthAdjust="spacing" textLength="21.6211" x="162.3606" y="265.3604">sent</text></g></svg>