<svg xmlns="http://www.w3.org/2000/svg" xmlns:xlink="http://www.w3.org/1999/xlink" contentStyleType="text/css" height="363px" preserveAspectRatio="none" style="width:507px;height:363px;background:#FFFFFF;" version="1.1" viewBox="0 0 507 363" width="507px" zoomAndPan="magnify"><title>Shelf - Dynamic</title><defs/><g><text fill="#000000" font-family="sans-serif" font-size="14" font-weight="bold" lengthAdjust="spacing" textLength="123.8398" x="193.2227" y="27.9951">Shelf - Dynamic</text><line style="stroke:#181818;stroke-width:0.5;stroke-dasharray:5.0,5.0;" x1="95" x2="95" y1="116.2344" y2="273.7188"/><line style="stroke:#181818;stroke-width:0.5;stroke-dasharray:5.0,5.0;" x1="286.9785" x2="286.9785" y1="116.2344" y2="273.7188"/><line style="stroke:#181818;stroke-width:0.5;stroke-dasharray:5.0,5.0;" x1="446.957" x2="446.957" y1="116.2344" y2="273.7188"/><rect fill="#27AE60" height="41.9375" rx="2.5" ry="2.5" style="stroke:#1B7943;stroke-width:0.5;" width="181.9785" x="5" y="73.2969"/><text fill="#FFFFFF" font-family="sans-serif" font-size="14" lengthAdjust="spacing" textLength="122.1855" x="34.8965" y="93.292">Cart Microservice</text><text fill="#FFFFFF" font-family="sans-serif" font-size="10" lengthAdjust="spacing" textLength="167.9785" x="12" y="105.876">[Container: Java and Spring Boot]</text><rect fill="#27AE60" height="41.9375" rx="2.5" ry="2.5" style="stroke:#1B7943;stroke-width:0.5;" width="181.9785" x="5" y="272.7188"/><text fill="#FFFFFF" font-family="sans-serif" font-size="14" lengthAdjust="spacing" textLength="122.1855" x="34.8965" y="292.7139">Cart Microservice</text><text fill="#FFFFFF" font-family="sans-serif" font-size="10" lengthAdjust="spacing" textLength="167.9785" x="12" y="305.2979">[Container: Java and Spring Boot]</text><rect fill="#27AE60" height="41.9375" rx="2.5" ry="2.5" style="stroke:#1B7943;stroke-width:0.5;" width="181.9785" x="196.9785" y="73.2969"/><text fill="#FFFFFF" font-family="sans-serif" font-size="14" lengthAdjust="spacing" textLength="127.7773" x="224.0791" y="93.292">Shelf Microservice</text><text fill="#FFFFFF" font-family="sans-serif" font-size="10" lengthAdjust="spacing" textLength="167.9785" x="203.9785" y="105.876">[Container: Java and Spring Boot]</text><rect fill="#27AE60" height="41.9375" rx="2.5" ry="2.5" style="stroke:#1B7943;stroke-width:0.5;" width="181.9785" x="196.9785" y="272.7188"/><text fill="#FFFFFF" font-family="sans-serif" font-size="14" lengthAdjust="spacing" textLength="127.7773" x="224.0791" y="292.7139">Shelf Microservice</text><text fill="#FFFFFF" font-family="sans-serif" font-size="10" lengthAdjust="spacing" textLength="167.9785" x="203.9785" y="305.2979">[Container: Java and Spring Boot]</text><text fill="#000000" font-family="sans-serif" font-size="14" lengthAdjust="spacing" textLength="106.4424" x="391.3999" y="101.292">Shelf Database</text><text fill="#000000" font-family="sans-serif" font-size="10" lengthAdjust="spacing" textLength="111.3281" x="388.957" y="113.876">[Container: MongoDB]</text><path d="M429.6211,52.2969 C429.6211,42.2969 447.6211,42.2969 447.6211,42.2969 C447.6211,42.2969 465.6211,42.2969 465.6211,52.2969 L465.6211,78.2969 C465.6211,88.2969 447.6211,88.2969 447.6211,88.2969 C447.6211,88.2969 429.6211,88.2969 429.6211,78.2969 L429.6211,52.2969 " fill="#8E44AD" style="stroke:#181818;stroke-width:1.5;"/><path d="M429.6211,52.2969 C429.6211,62.2969 447.6211,62.2969 447.6211,62.2969 C447.6211,62.2969 465.6211,62.2969 465.6211,52.2969 " fill="none" style="stroke:#181818;stroke-width:1.5;"/><text fill="#000000" font-family="sans-serif" font-size="14" lengthAdjust="spacing" textLength="106.4424" x="391.3999" y="285.7139">Shelf Database</text><text fill="#000000" font-family="sans-serif" font-size="10" lengthAdjust="spacing" textLength="111.3281" x="388.957" y="298.2979">[Container: MongoDB]</text><path d="M429.6211,310.6563 C429.6211,300.6563 447.6211,300.6563 447.6211,300.6563 C447.6211,300.6563 465.6211,300.6563 465.6211,310.6563 L465.6211,336.6563 C465.6211,346.6563 447.6211,346.6563 447.6211,346.6563 C447.6211,346.6563 429.6211,346.6563 429.6211,336.6563 L429.6211,310.6563 " fill="#8E44AD" style="stroke:#181818;stroke-width:1.5;"/><path d="M429.6211,310.6563 C429.6211,320.6563 447.6211,320.6563 447.6211,320.6563 C447.6211,320.6563 465.6211,320.6563 465.6211,310.6563 " fill="none" style="stroke:#181818;stroke-width:1.5;"/><polygon fill="#2980B9" points="275.9678,151.5156,285.9678,155.5156,275.9678,159.5156,279.9678,155.5156" style="stroke:#2980B9;stroke-width:1.0;"/><line style="stroke:#2980B9;stroke-width:1.0;" x1="95.9893" x2="281.9678" y1="155.5156" y2="155.5156"/><text fill="#000000" font-family="sans-serif" font-size="10" lengthAdjust="spacing" textLength="37.959" x="147.667" y="139.5166">Notifies</text><text fill="#000000" font-family="sans-serif" font-size="10" lengthAdjust="spacing" textLength="3.1787" x="185.626" y="139.5166">&#160;</text><text fill="#000000" font-family="sans-serif" font-size="10" lengthAdjust="spacing" textLength="47.4854" x="188.8047" y="139.5166">borrowed</text><text fill="#000000" font-family="sans-serif" font-size="10" lengthAdjust="spacing" textLength="27.8027" x="178.0771" y="151.1572">items</text><polygon fill="#2980B9" points="106.9893,188.7969,96.9893,192.7969,106.9893,196.7969,102.9893,192.7969" style="stroke:#2980B9;stroke-width:1.0;"/><line style="stroke:#2980B9;stroke-width:1.0;stroke-dasharray:2.0,2.0;" x1="100.9893" x2="286.9678" y1="192.7969" y2="192.7969"/><text fill="#000000" font-family="sans-serif" font-size="10" lengthAdjust="spacing" textLength="71.7529" x="156.1021" y="176.7979">Acknowledges</text><text fill="#000000" font-family="sans-serif" font-size="10" lengthAdjust="spacing" textLength="34.9609" x="152.5986" y="188.4385">receipt</text><text fill="#000000" font-family="sans-serif" font-size="10" lengthAdjust="spacing" textLength="3.1787" x="187.5596" y="188.4385">&#160;</text><text fill="#000000" font-family="sans-serif" font-size="10" lengthAdjust="spacing" textLength="9.6387" x="190.7383" y="188.4385">of</text><text fill="#000000" font-family="sans-serif" font-size="10" lengthAdjust="spacing" textLength="3.1787" x="200.377" y="188.4385">&#160;</text><text fill="#000000" font-family="sans-serif" font-size="10" lengthAdjust="spacing" textLength="27.8027" x="203.5557" y="188.4385">items</text><polygon fill="#2980B9" points="435.6211,226.0781,445.6211,230.0781,435.6211,234.0781,439.6211,230.0781" style="stroke:#2980B9;stroke-width:1.0;"/><line style="stroke:#2980B9;stroke-width:1.0;" x1="287.9678" x2="441.6211" y1="230.0781" y2="230.0781"/><text fill="#000000" font-family="sans-serif" font-size="10" lengthAdjust="spacing" textLength="31.8604" x="326.5322" y="214.0791">Stores</text><text fill="#000000" font-family="sans-serif" font-size="10" lengthAdjust="spacing" textLength="3.1787" x="358.3926" y="214.0791">&#160;</text><text fill="#000000" font-family="sans-serif" font-size="10" lengthAdjust="spacing" textLength="47.4854" x="361.5713" y="214.0791">borrowed</text><text fill="#000000" font-family="sans-serif" font-size="10" lengthAdjust="spacing" textLength="27.8027" x="353.8931" y="225.7197">items</text><polygon fill="#2980B9" points="298.9678,251.7188,288.9678,255.7188,298.9678,259.7188,294.9678,255.7188" style="stroke:#2980B9;stroke-width:1.0;"/><line style="stroke:#2980B9;stroke-width:1.0;stroke-dasharray:2.0,2.0;" x1="292.9678" x2="446.6211" y1="255.7188" y2="255.7188"/><text fill="#000000" font-family="sans-serif" font-size="10" lengthAdjust="spacing" textLength="44.7998" x="324.811" y="251.3604">Confirms</text><text fill="#000000" font-family="sans-serif" font-size="10" lengthAdjust="spacing" textLength="3.1787" x="369.6108" y="251.3604">&#160;</text><text fill="#000000" font-family="sans-serif" font-size="10" lengthAdjust="spacing" textLength="37.9883" x="372.7896" y="251.3604">storage</text></g></svg>