<svg xmlns="http://www.w3.org/2000/svg" xmlns:xlink="http://www.w3.org/1999/xlink" contentStyleType="text/css" height="517px" preserveAspectRatio="none" style="width:856px;height:517px;background:#FFFFFF;" version="1.1" viewBox="0 0 856 517" width="856px" zoomAndPan="magnify"><title>Cart - Dynamic</title><defs/><g><text fill="#000000" font-family="sans-serif" font-size="14" font-weight="bold" lengthAdjust="spacing" textLength="116.7236" x="369.0107" y="27.9951">Cart - Dynamic</text><line style="stroke:#181818;stroke-width:0.5;stroke-dasharray:5.0,5.0;" x1="33" x2="33" y1="130.2344" y2="425.2031"/><line style="stroke:#181818;stroke-width:0.5;stroke-dasharray:5.0,5.0;" x1="177.1758" x2="177.1758" y1="130.2344" y2="425.2031"/><line style="stroke:#181818;stroke-width:0.5;stroke-dasharray:5.0,5.0;" x1="383.9102" x2="383.9102" y1="130.2344" y2="425.2031"/><line style="stroke:#181818;stroke-width:0.5;stroke-dasharray:5.0,5.0;" x1="543.8887" x2="543.8887" y1="130.2344" y2="425.2031"/><line style="stroke:#181818;stroke-width:0.5;stroke-dasharray:5.0,5.0;" x1="731.2168" x2="731.2168" y1="130.2344" y2="425.2031"/><text fill="#000000" font-family="sans-serif" font-size="14" lengthAdjust="spacing" textLength="50.1758" x="5" y="115.292">Reader</text><text fill="#000000" font-family="sans-serif" font-size="10" lengthAdjust="spacing" textLength="41.7627" x="9.2065" y="127.876">[Person]</text><ellipse cx="33.0879" cy="50.7969" fill="#00796B" rx="8" ry="8" style="stroke:#181818;stroke-width:0.5;"/><path d="M33.0879,58.7969 L33.0879,85.7969 M20.0879,66.7969 L46.0879,66.7969 M33.0879,85.7969 L20.0879,100.7969 M33.0879,85.7969 L46.0879,100.7969 " fill="none" style="stroke:#181818;stroke-width:0.5;"/><text fill="#000000" font-family="sans-serif" font-size="14" lengthAdjust="spacing" textLength="50.1758" x="5" y="437.1982">Reader</text><text fill="#000000" font-family="sans-serif" font-size="10" lengthAdjust="spacing" textLength="41.7627" x="9.2065" y="449.7822">[Person]</text><ellipse cx="33.0879" cy="460.6406" fill="#00796B" rx="8" ry="8" style="stroke:#181818;stroke-width:0.5;"/><path d="M33.0879,468.6406 L33.0879,495.6406 M20.0879,476.6406 L46.0879,476.6406 M33.0879,495.6406 L20.0879,510.6406 M33.0879,495.6406 L46.0879,510.6406 " fill="none" style="stroke:#181818;stroke-width:0.5;"/><rect fill="#26A69A" height="41.9375" rx="2.5" ry="2.5" style="stroke:#1A746B;stroke-width:0.5;" width="212.7344" x="71.1758" y="87.2969"/><text fill="#FFFFFF" font-family="sans-serif" font-size="14" lengthAdjust="spacing" textLength="198.7344" x="78.1758" y="107.292">Cart Single Page Application</text><text fill="#FFFFFF" font-family="sans-serif" font-size="10" lengthAdjust="spacing" textLength="153.1006" x="100.9927" y="119.876">[Container: React Component]</text><rect fill="#26A69A" height="41.9375" rx="2.5" ry="2.5" style="stroke:#1A746B;stroke-width:0.5;" width="212.7344" x="71.1758" y="424.2031"/><text fill="#FFFFFF" font-family="sans-serif" font-size="14" lengthAdjust="spacing" textLength="198.7344" x="78.1758" y="444.1982">Cart Single Page Application</text><text fill="#FFFFFF" font-family="sans-serif" font-size="10" lengthAdjust="spacing" textLength="153.1006" x="100.9927" y="456.7822">[Container: React Component]</text><rect fill="#26A69A" height="41.9375" rx="2.5" ry="2.5" style="stroke:#1A746B;stroke-width:0.5;" width="181.9785" x="293.9102" y="87.2969"/><text fill="#FFFFFF" font-family="sans-serif" font-size="14" lengthAdjust="spacing" textLength="122.1855" x="323.8066" y="107.292">Cart Microservice</text><text fill="#FFFFFF" font-family="sans-serif" font-size="10" lengthAdjust="spacing" textLength="167.9785" x="300.9102" y="119.876">[Container: Java and Spring Boot]</text><rect fill="#26A69A" height="41.9375" rx="2.5" ry="2.5" style="stroke:#1A746B;stroke-width:0.5;" width="181.9785" x="293.9102" y="424.2031"/><text fill="#FFFFFF" font-family="sans-serif" font-size="14" lengthAdjust="spacing" textLength="122.1855" x="323.8066" y="444.1982">Cart Microservice</text><text fill="#FFFFFF" font-family="sans-serif" font-size="10" lengthAdjust="spacing" textLength="167.9785" x="300.9102" y="456.7822">[Container: Java and Spring Boot]</text><text fill="#000000" font-family="sans-serif" font-size="14" lengthAdjust="spacing" textLength="100.8506" x="491.1274" y="115.292">Cart Database</text><text fill="#000000" font-family="sans-serif" font-size="10" lengthAdjust="spacing" textLength="111.3281" x="485.8887" y="127.876">[Container: MongoDB]</text><path d="M526.5527,66.2969 C526.5527,56.2969 544.5527,56.2969 544.5527,56.2969 C544.5527,56.2969 562.5527,56.2969 562.5527,66.2969 L562.5527,92.2969 C562.5527,102.2969 544.5527,102.2969 544.5527,102.2969 C544.5527,102.2969 526.5527,102.2969 526.5527,92.2969 L526.5527,66.2969 " fill="#26A69A" style="stroke:#181818;stroke-width:1.5;"/><path d="M526.5527,66.2969 C526.5527,76.2969 544.5527,76.2969 544.5527,76.2969 C544.5527,76.2969 562.5527,76.2969 562.5527,66.2969 " fill="none" style="stroke:#181818;stroke-width:1.5;"/><text fill="#000000" font-family="sans-serif" font-size="14" lengthAdjust="spacing" textLength="100.8506" x="491.1274" y="437.1982">Cart Database</text><text fill="#000000" font-family="sans-serif" font-size="10" lengthAdjust="spacing" textLength="111.3281" x="485.8887" y="449.7822">[Container: MongoDB]</text><path d="M526.5527,462.1406 C526.5527,452.1406 544.5527,452.1406 544.5527,452.1406 C544.5527,452.1406 562.5527,452.1406 562.5527,462.1406 L562.5527,488.1406 C562.5527,498.1406 544.5527,498.1406 544.5527,498.1406 C544.5527,498.1406 526.5527,498.1406 526.5527,488.1406 L526.5527,462.1406 " fill="#26A69A" style="stroke:#181818;stroke-width:1.5;"/><path d="M526.5527,462.1406 C526.5527,472.1406 544.5527,472.1406 544.5527,472.1406 C544.5527,472.1406 562.5527,472.1406 562.5527,462.1406 " fill="none" style="stroke:#181818;stroke-width:1.5;"/><rect fill="#26A69A" height="41.9375" rx="2.5" ry="2.5" style="stroke:#1A746B;stroke-width:0.5;" width="237.5283" x="613.2168" y="87.2969"/><text fill="#FFFFFF" font-family="sans-serif" font-size="14" lengthAdjust="spacing" textLength="223.5283" x="620.2168" y="107.292">Recommendations Microservice</text><text fill="#FFFFFF" font-family="sans-serif" font-size="10" lengthAdjust="spacing" textLength="167.9785" x="647.9917" y="119.876">[Container: Java and Spring Boot]</text><rect fill="#26A69A" height="41.9375" rx="2.5" ry="2.5" style="stroke:#1A746B;stroke-width:0.5;" width="237.5283" x="613.2168" y="424.2031"/><text fill="#FFFFFF" font-family="sans-serif" font-size="14" lengthAdjust="spacing" textLength="223.5283" x="620.2168" y="444.1982">Recommendations Microservice</text><text fill="#FFFFFF" font-family="sans-serif" font-size="10" lengthAdjust="spacing" textLength="167.9785" x="647.9917" y="456.7822">[Container: Java and Spring Boot]</text><polygon fill="#004D40" points="165.543,153.875,175.543,157.875,165.543,161.875,169.543,157.875" style="stroke:#004D40;stroke-width:1.0;"/><line style="stroke:#004D40;stroke-width:1.0;" x1="33.0879" x2="171.543" y1="157.875" y2="157.875"/><text fill="#000000" font-family="sans-serif" font-size="10" lengthAdjust="spacing" textLength="24.7461" x="62.0293" y="153.5166">Adds</text><text fill="#000000" font-family="sans-serif" font-size="10" lengthAdjust="spacing" textLength="3.1787" x="86.7754" y="153.5166">&#160;</text><text fill="#000000" font-family="sans-serif" font-size="10" lengthAdjust="spacing" textLength="22.5928" x="89.9541" y="153.5166">item</text><text fill="#000000" font-family="sans-serif" font-size="10" lengthAdjust="spacing" textLength="3.1787" x="112.5469" y="153.5166">&#160;</text><text fill="#000000" font-family="sans-serif" font-size="10" lengthAdjust="spacing" textLength="10.0391" x="115.7256" y="153.5166">to</text><text fill="#000000" font-family="sans-serif" font-size="10" lengthAdjust="spacing" textLength="3.1787" x="125.7646" y="153.5166">&#160;</text><text fill="#000000" font-family="sans-serif" font-size="10" lengthAdjust="spacing" textLength="19.6582" x="128.9434" y="153.5166">cart</text><polygon fill="#004D40" points="372.8994,191.1563,382.8994,195.1563,372.8994,199.1563,376.8994,195.1563" style="stroke:#004D40;stroke-width:1.0;"/><line style="stroke:#004D40;stroke-width:1.0;" x1="177.543" x2="378.8994" y1="195.1563" y2="195.1563"/><text fill="#000000" font-family="sans-serif" font-size="10" lengthAdjust="spacing" textLength="49.6924" x="244.9565" y="179.1572">Processes</text><text fill="#000000" font-family="sans-serif" font-size="10" lengthAdjust="spacing" textLength="3.1787" x="294.6489" y="179.1572">&#160;</text><text fill="#000000" font-family="sans-serif" font-size="10" lengthAdjust="spacing" textLength="19.6582" x="297.8276" y="179.1572">cart</text><text fill="#000000" font-family="sans-serif" font-size="10" lengthAdjust="spacing" textLength="40.7568" x="260.8428" y="190.7979">addition</text><polygon fill="#004D40" points="532.5527,216.7969,542.5527,220.7969,532.5527,224.7969,536.5527,220.7969" style="stroke:#004D40;stroke-width:1.0;"/><line style="stroke:#004D40;stroke-width:1.0;" x1="384.8994" x2="538.5527" y1="220.7969" y2="220.7969"/><text fill="#000000" font-family="sans-serif" font-size="10" lengthAdjust="spacing" textLength="31.8604" x="424.4917" y="216.4385">Stores</text><text fill="#000000" font-family="sans-serif" font-size="10" lengthAdjust="spacing" textLength="3.1787" x="456.3521" y="216.4385">&#160;</text><text fill="#000000" font-family="sans-serif" font-size="10" lengthAdjust="spacing" textLength="19.6582" x="459.5308" y="216.4385">cart</text><text fill="#000000" font-family="sans-serif" font-size="10" lengthAdjust="spacing" textLength="3.1787" x="479.189" y="216.4385">&#160;</text><text fill="#000000" font-family="sans-serif" font-size="10" lengthAdjust="spacing" textLength="22.5928" x="482.3677" y="216.4385">item</text><polygon fill="#004D40" points="395.8994,242.4375,385.8994,246.4375,395.8994,250.4375,391.8994,246.4375" style="stroke:#004D40;stroke-width:1.0;"/><line style="stroke:#004D40;stroke-width:1.0;stroke-dasharray:2.0,2.0;" x1="389.8994" x2="543.5527" y1="246.4375" y2="246.4375"/><text fill="#000000" font-family="sans-serif" font-size="10" lengthAdjust="spacing" textLength="44.7998" x="421.7427" y="242.0791">Confirms</text><text fill="#000000" font-family="sans-serif" font-size="10" lengthAdjust="spacing" textLength="3.1787" x="466.5425" y="242.0791">&#160;</text><text fill="#000000" font-family="sans-serif" font-size="10" lengthAdjust="spacing" textLength="37.9883" x="469.7212" y="242.0791">storage</text><polygon fill="#004D40" points="719.981,303,729.981,307,719.981,311,723.981,307" style="stroke:#004D40;stroke-width:1.0;"/><line style="stroke:#004D40;stroke-width:1.0;" x1="384.8994" x2="725.981" y1="307" y2="307"/><text fill="#000000" font-family="sans-serif" font-size="10" lengthAdjust="spacing" textLength="41.4258" x="537.7273" y="267.7197">Updates</text><text fill="#000000" font-family="sans-serif" font-size="10" lengthAdjust="spacing" textLength="90.6934" x="513.0935" y="279.3604">recommendations</text><text fill="#000000" font-family="sans-serif" font-size="10" lengthAdjust="spacing" textLength="30.1855" x="524.1116" y="291.001">based</text><text fill="#000000" font-family="sans-serif" font-size="10" lengthAdjust="spacing" textLength="3.1787" x="554.2971" y="291.001">&#160;</text><text fill="#000000" font-family="sans-serif" font-size="10" lengthAdjust="spacing" textLength="12.4561" x="557.4758" y="291.001">on</text><text fill="#000000" font-family="sans-serif" font-size="10" lengthAdjust="spacing" textLength="3.1787" x="569.9319" y="291.001">&#160;</text><text fill="#000000" font-family="sans-serif" font-size="10" lengthAdjust="spacing" textLength="19.6582" x="573.1106" y="291.001">cart</text><text fill="#000000" font-family="sans-serif" font-size="10" lengthAdjust="spacing" textLength="36.8604" x="540.01" y="302.6416">activity</text><polygon fill="#004D40" points="395.8994,340.2813,385.8994,344.2813,395.8994,348.2813,391.8994,344.2813" style="stroke:#004D40;stroke-width:1.0;"/><line style="stroke:#004D40;stroke-width:1.0;stroke-dasharray:2.0,2.0;" x1="389.8994" x2="730.981" y1="344.2813" y2="344.2813"/><text fill="#000000" font-family="sans-serif" font-size="10" lengthAdjust="spacing" textLength="71.7529" x="522.5637" y="328.2822">Acknowledges</text><text fill="#000000" font-family="sans-serif" font-size="10" lengthAdjust="spacing" textLength="35.2344" x="540.823" y="339.9229">update</text><polygon fill="#004D40" points="188.543,377.5625,178.543,381.5625,188.543,385.5625,184.543,381.5625" style="stroke:#004D40;stroke-width:1.0;"/><line style="stroke:#004D40;stroke-width:1.0;stroke-dasharray:2.0,2.0;" x1="182.543" x2="383.8994" y1="381.5625" y2="381.5625"/><text fill="#000000" font-family="sans-serif" font-size="10" lengthAdjust="spacing" textLength="44.7998" x="247.4028" y="365.5635">Confirms</text><text fill="#000000" font-family="sans-serif" font-size="10" lengthAdjust="spacing" textLength="3.1787" x="292.2026" y="365.5635">&#160;</text><text fill="#000000" font-family="sans-serif" font-size="10" lengthAdjust="spacing" textLength="19.6582" x="295.3813" y="365.5635">cart</text><text fill="#000000" font-family="sans-serif" font-size="10" lengthAdjust="spacing" textLength="40.7568" x="260.8428" y="377.2041">addition</text><polygon fill="#004D40" points="44.0879,403.2031,34.0879,407.2031,44.0879,411.2031,40.0879,407.2031" style="stroke:#004D40;stroke-width:1.0;"/><line style="stroke:#004D40;stroke-width:1.0;stroke-dasharray:2.0,2.0;" x1="38.0879" x2="176.543" y1="407.2031" y2="407.2031"/><text fill="#000000" font-family="sans-serif" font-size="10" lengthAdjust="spacing" textLength="42.0703" x="72.8618" y="402.8447">Displays</text><text fill="#000000" font-family="sans-serif" font-size="10" lengthAdjust="spacing" textLength="3.1787" x="114.9321" y="402.8447">&#160;</text><text fill="#000000" font-family="sans-serif" font-size="10" lengthAdjust="spacing" textLength="19.6582" x="118.1108" y="402.8447">cart</text></g></svg>