<svg xmlns="http://www.w3.org/2000/svg" xmlns:xlink="http://www.w3.org/1999/xlink" contentStyleType="text/css" height="741px" preserveAspectRatio="none" style="width:1343px;height:741px;background:#FFFFFF;" version="1.1" viewBox="0 0 1343 741" width="1343px" zoomAndPan="magnify"><title>Cart - Dynamic</title><defs/><g><text fill="#000000" font-family="sans-serif" font-size="14" font-weight="bold" lengthAdjust="spacing" textLength="116.7236" x="612.2998" y="27.9951">Cart - Dynamic</text><line style="stroke:#181818;stroke-width:0.5;stroke-dasharray:5.0,5.0;" x1="33" x2="33" y1="130.2344" y2="648.8906"/><line style="stroke:#181818;stroke-width:0.5;stroke-dasharray:5.0,5.0;" x1="154.1758" x2="154.1758" y1="130.2344" y2="648.8906"/><line style="stroke:#181818;stroke-width:0.5;stroke-dasharray:5.0,5.0;" x1="338.2764" x2="338.2764" y1="130.2344" y2="648.8906"/><line style="stroke:#181818;stroke-width:0.5;stroke-dasharray:5.0,5.0;" x1="498.2549" x2="498.2549" y1="130.2344" y2="648.8906"/><line style="stroke:#181818;stroke-width:0.5;stroke-dasharray:5.0,5.0;" x1="657.583" x2="657.583" y1="130.2344" y2="648.8906"/><line style="stroke:#181818;stroke-width:0.5;stroke-dasharray:5.0,5.0;" x1="828.5615" x2="828.5615" y1="130.2344" y2="648.8906"/><line style="stroke:#181818;stroke-width:0.5;stroke-dasharray:5.0,5.0;" x1="997.8164" x2="997.8164" y1="130.2344" y2="648.8906"/><line style="stroke:#181818;stroke-width:0.5;stroke-dasharray:5.0,5.0;" x1="1217.7949" x2="1217.7949" y1="130.2344" y2="648.8906"/><text fill="#000000" font-family="sans-serif" font-size="14" lengthAdjust="spacing" textLength="50.1758" x="5" y="115.292">Reader</text><text fill="#000000" font-family="sans-serif" font-size="10" lengthAdjust="spacing" textLength="41.7627" x="9.2065" y="127.876">[Person]</text><ellipse cx="33.0879" cy="50.7969" fill="#00796B" rx="8" ry="8" style="stroke:#181818;stroke-width:0.5;"/><path d="M33.0879,58.7969 L33.0879,85.7969 M20.0879,66.7969 L46.0879,66.7969 M33.0879,85.7969 L20.0879,100.7969 M33.0879,85.7969 L46.0879,100.7969 " fill="none" style="stroke:#181818;stroke-width:0.5;"/><text fill="#000000" font-family="sans-serif" font-size="14" lengthAdjust="spacing" textLength="50.1758" x="5" y="660.8857">Reader</text><text fill="#000000" font-family="sans-serif" font-size="10" lengthAdjust="spacing" textLength="41.7627" x="9.2065" y="673.4697">[Person]</text><ellipse cx="33.0879" cy="684.3281" fill="#00796B" rx="8" ry="8" style="stroke:#181818;stroke-width:0.5;"/><path d="M33.0879,692.3281 L33.0879,719.3281 M20.0879,700.3281 L46.0879,700.3281 M33.0879,719.3281 L20.0879,734.3281 M33.0879,719.3281 L46.0879,734.3281 " fill="none" style="stroke:#181818;stroke-width:0.5;"/><rect fill="#26A69A" height="41.9375" rx="2.5" ry="2.5" style="stroke:#1A746B;stroke-width:0.5;" width="167.1006" x="71.1758" y="87.2969"/><text fill="#FFFFFF" font-family="sans-serif" font-size="14" lengthAdjust="spacing" textLength="60.9561" x="124.248" y="107.292">Cart SPA</text><text fill="#FFFFFF" font-family="sans-serif" font-size="10" lengthAdjust="spacing" textLength="153.1006" x="78.1758" y="119.876">[Container: React Component]</text><rect fill="#26A69A" height="41.9375" rx="2.5" ry="2.5" style="stroke:#1A746B;stroke-width:0.5;" width="167.1006" x="71.1758" y="647.8906"/><text fill="#FFFFFF" font-family="sans-serif" font-size="14" lengthAdjust="spacing" textLength="60.9561" x="124.248" y="667.8857">Cart SPA</text><text fill="#FFFFFF" font-family="sans-serif" font-size="10" lengthAdjust="spacing" textLength="153.1006" x="78.1758" y="680.4697">[Container: React Component]</text><rect fill="#26A69A" height="41.9375" rx="2.5" ry="2.5" style="stroke:#1A746B;stroke-width:0.5;" width="181.9785" x="248.2764" y="87.2969"/><text fill="#FFFFFF" font-family="sans-serif" font-size="14" lengthAdjust="spacing" textLength="122.1855" x="278.1729" y="107.292">Cart Microservice</text><text fill="#FFFFFF" font-family="sans-serif" font-size="10" lengthAdjust="spacing" textLength="167.9785" x="255.2764" y="119.876">[Container: Java and Spring Boot]</text><rect fill="#26A69A" height="41.9375" rx="2.5" ry="2.5" style="stroke:#1A746B;stroke-width:0.5;" width="181.9785" x="248.2764" y="647.8906"/><text fill="#FFFFFF" font-family="sans-serif" font-size="14" lengthAdjust="spacing" textLength="122.1855" x="278.1729" y="667.8857">Cart Microservice</text><text fill="#FFFFFF" font-family="sans-serif" font-size="10" lengthAdjust="spacing" textLength="167.9785" x="255.2764" y="680.4697">[Container: Java and Spring Boot]</text><text fill="#000000" font-family="sans-serif" font-size="14" lengthAdjust="spacing" textLength="100.8506" x="445.4937" y="115.292">Cart Database</text><text fill="#000000" font-family="sans-serif" font-size="10" lengthAdjust="spacing" textLength="111.3281" x="440.2549" y="127.876">[Container: MongoDB]</text><path d="M480.9189,66.2969 C480.9189,56.2969 498.9189,56.2969 498.9189,56.2969 C498.9189,56.2969 516.9189,56.2969 516.9189,66.2969 L516.9189,92.2969 C516.9189,102.2969 498.9189,102.2969 498.9189,102.2969 C498.9189,102.2969 480.9189,102.2969 480.9189,92.2969 L480.9189,66.2969 " fill="#26A69A" style="stroke:#181818;stroke-width:1.5;"/><path d="M480.9189,66.2969 C480.9189,76.2969 498.9189,76.2969 498.9189,76.2969 C498.9189,76.2969 516.9189,76.2969 516.9189,66.2969 " fill="none" style="stroke:#181818;stroke-width:1.5;"/><text fill="#000000" font-family="sans-serif" font-size="14" lengthAdjust="spacing" textLength="100.8506" x="445.4937" y="660.8857">Cart Database</text><text fill="#000000" font-family="sans-serif" font-size="10" lengthAdjust="spacing" textLength="111.3281" x="440.2549" y="673.4697">[Container: MongoDB]</text><path d="M480.9189,685.8281 C480.9189,675.8281 498.9189,675.8281 498.9189,675.8281 C498.9189,675.8281 516.9189,675.8281 516.9189,685.8281 L516.9189,711.8281 C516.9189,721.8281 498.9189,721.8281 498.9189,721.8281 C498.9189,721.8281 480.9189,721.8281 480.9189,711.8281 L480.9189,685.8281 " fill="#26A69A" style="stroke:#181818;stroke-width:1.5;"/><path d="M480.9189,685.8281 C480.9189,695.8281 498.9189,695.8281 498.9189,695.8281 C498.9189,695.8281 516.9189,695.8281 516.9189,685.8281 " fill="none" style="stroke:#181818;stroke-width:1.5;"/><rect fill="#26A69A" height="41.9375" rx="2.5" ry="2.5" style="stroke:#1A746B;stroke-width:0.5;" width="181.9785" x="567.583" y="87.2969"/><text fill="#FFFFFF" font-family="sans-serif" font-size="14" lengthAdjust="spacing" textLength="153.5898" x="581.7773" y="107.292">Products Microservice</text><text fill="#FFFFFF" font-family="sans-serif" font-size="10" lengthAdjust="spacing" textLength="167.9785" x="574.583" y="119.876">[Container: Java and Spring Boot]</text><rect fill="#26A69A" height="41.9375" rx="2.5" ry="2.5" style="stroke:#1A746B;stroke-width:0.5;" width="181.9785" x="567.583" y="647.8906"/><text fill="#FFFFFF" font-family="sans-serif" font-size="14" lengthAdjust="spacing" textLength="153.5898" x="581.7773" y="667.8857">Products Microservice</text><text fill="#FFFFFF" font-family="sans-serif" font-size="10" lengthAdjust="spacing" textLength="167.9785" x="574.583" y="680.4697">[Container: Java and Spring Boot]</text><text fill="#000000" font-family="sans-serif" font-size="14" lengthAdjust="spacing" textLength="132.2549" x="759.5615" y="115.292">Products Database</text><text fill="#000000" font-family="sans-serif" font-size="10" lengthAdjust="spacing" textLength="111.3281" x="770.0249" y="127.876">[Container: MongoDB]</text><path d="M810.689,66.2969 C810.689,56.2969 828.689,56.2969 828.689,56.2969 C828.689,56.2969 846.689,56.2969 846.689,66.2969 L846.689,92.2969 C846.689,102.2969 828.689,102.2969 828.689,102.2969 C828.689,102.2969 810.689,102.2969 810.689,92.2969 L810.689,66.2969 " fill="#26A69A" style="stroke:#181818;stroke-width:1.5;"/><path d="M810.689,66.2969 C810.689,76.2969 828.689,76.2969 828.689,76.2969 C828.689,76.2969 846.689,76.2969 846.689,66.2969 " fill="none" style="stroke:#181818;stroke-width:1.5;"/><text fill="#000000" font-family="sans-serif" font-size="14" lengthAdjust="spacing" textLength="132.2549" x="759.5615" y="660.8857">Products Database</text><text fill="#000000" font-family="sans-serif" font-size="10" lengthAdjust="spacing" textLength="111.3281" x="770.0249" y="673.4697">[Container: MongoDB]</text><path d="M810.689,685.8281 C810.689,675.8281 828.689,675.8281 828.689,675.8281 C828.689,675.8281 846.689,675.8281 846.689,685.8281 L846.689,711.8281 C846.689,721.8281 828.689,721.8281 828.689,721.8281 C828.689,721.8281 810.689,721.8281 810.689,711.8281 L810.689,685.8281 " fill="#26A69A" style="stroke:#181818;stroke-width:1.5;"/><path d="M810.689,685.8281 C810.689,695.8281 828.689,695.8281 828.689,695.8281 C828.689,695.8281 846.689,695.8281 846.689,685.8281 " fill="none" style="stroke:#181818;stroke-width:1.5;"/><rect fill="#26A69A" height="41.9375" rx="2.5" ry="2.5" style="stroke:#1A746B;stroke-width:0.5;" width="181.9785" x="907.8164" y="87.2969"/><text fill="#FFFFFF" font-family="sans-serif" font-size="14" lengthAdjust="spacing" textLength="147.1641" x="925.2236" y="107.292">Finance Microservice</text><text fill="#FFFFFF" font-family="sans-serif" font-size="10" lengthAdjust="spacing" textLength="167.9785" x="914.8164" y="119.876">[Container: Java and Spring Boot]</text><rect fill="#26A69A" height="41.9375" rx="2.5" ry="2.5" style="stroke:#1A746B;stroke-width:0.5;" width="181.9785" x="907.8164" y="647.8906"/><text fill="#FFFFFF" font-family="sans-serif" font-size="14" lengthAdjust="spacing" textLength="147.1641" x="925.2236" y="667.8857">Finance Microservice</text><text fill="#FFFFFF" font-family="sans-serif" font-size="10" lengthAdjust="spacing" textLength="167.9785" x="914.8164" y="680.4697">[Container: Java and Spring Boot]</text><rect fill="#26A69A" height="41.9375" rx="2.5" ry="2.5" style="stroke:#1A746B;stroke-width:0.5;" width="237.5283" x="1099.7949" y="87.2969"/><text fill="#FFFFFF" font-family="sans-serif" font-size="14" lengthAdjust="spacing" textLength="223.5283" x="1106.7949" y="107.292">Recommendations Microservice</text><text fill="#FFFFFF" font-family="sans-serif" font-size="10" lengthAdjust="spacing" textLength="167.9785" x="1134.5698" y="119.876">[Container: Java and Spring Boot]</text><rect fill="#26A69A" height="41.9375" rx="2.5" ry="2.5" style="stroke:#1A746B;stroke-width:0.5;" width="237.5283" x="1099.7949" y="647.8906"/><text fill="#FFFFFF" font-family="sans-serif" font-size="14" lengthAdjust="spacing" textLength="223.5283" x="1106.7949" y="667.8857">Recommendations Microservice</text><text fill="#FFFFFF" font-family="sans-serif" font-size="10" lengthAdjust="spacing" textLength="167.9785" x="1134.5698" y="680.4697">[Container: Java and Spring Boot]</text><polygon fill="#004D40" points="142.7261,153.875,152.7261,157.875,142.7261,161.875,146.7261,157.875" style="stroke:#004D40;stroke-width:1.0;"/><line style="stroke:#004D40;stroke-width:1.0;" x1="33.0879" x2="148.7261" y1="157.875" y2="157.875"/><text fill="#000000" font-family="sans-serif" font-size="10" lengthAdjust="spacing" textLength="43.1641" x="60.9065" y="153.5166">Finalizes</text><text fill="#000000" font-family="sans-serif" font-size="10" lengthAdjust="spacing" textLength="3.1787" x="104.0706" y="153.5166">&#160;</text><text fill="#000000" font-family="sans-serif" font-size="10" lengthAdjust="spacing" textLength="19.6582" x="107.2493" y="153.5166">cart</text><polygon fill="#004D40" points="327.2656,191.1563,337.2656,195.1563,327.2656,199.1563,331.2656,195.1563" style="stroke:#004D40;stroke-width:1.0;"/><line style="stroke:#004D40;stroke-width:1.0;" x1="154.7261" x2="333.2656" y1="195.1563" y2="195.1563"/><text fill="#000000" font-family="sans-serif" font-size="10" lengthAdjust="spacing" textLength="49.6924" x="210.7312" y="179.1572">Processes</text><text fill="#000000" font-family="sans-serif" font-size="10" lengthAdjust="spacing" textLength="3.1787" x="260.4236" y="179.1572">&#160;</text><text fill="#000000" font-family="sans-serif" font-size="10" lengthAdjust="spacing" textLength="19.6582" x="263.6023" y="179.1572">cart</text><text fill="#000000" font-family="sans-serif" font-size="10" lengthAdjust="spacing" textLength="54.8535" x="219.5691" y="190.7979">finalization</text><polygon fill="#004D40" points="486.9189,228.4375,496.9189,232.4375,486.9189,236.4375,490.9189,232.4375" style="stroke:#004D40;stroke-width:1.0;"/><line style="stroke:#004D40;stroke-width:1.0;" x1="339.2656" x2="492.9189" y1="232.4375" y2="232.4375"/><text fill="#000000" font-family="sans-serif" font-size="10" lengthAdjust="spacing" textLength="47.3438" x="384.002" y="216.4385">Retrieves</text><text fill="#000000" font-family="sans-serif" font-size="10" lengthAdjust="spacing" textLength="3.1787" x="431.3457" y="216.4385">&#160;</text><text fill="#000000" font-family="sans-serif" font-size="10" lengthAdjust="spacing" textLength="19.6582" x="434.5244" y="216.4385">cart</text><text fill="#000000" font-family="sans-serif" font-size="10" lengthAdjust="spacing" textLength="33.3154" x="402.4346" y="228.0791">details</text><polygon fill="#004D40" points="350.2656,254.0781,340.2656,258.0781,350.2656,262.0781,346.2656,258.0781" style="stroke:#004D40;stroke-width:1.0;"/><line style="stroke:#004D40;stroke-width:1.0;stroke-dasharray:2.0,2.0;" x1="344.2656" x2="497.9189" y1="258.0781" y2="258.0781"/><text fill="#000000" font-family="sans-serif" font-size="10" lengthAdjust="spacing" textLength="39.0186" x="369.9175" y="253.7197">Returns</text><text fill="#000000" font-family="sans-serif" font-size="10" lengthAdjust="spacing" textLength="3.1787" x="408.936" y="253.7197">&#160;</text><text fill="#000000" font-family="sans-serif" font-size="10" lengthAdjust="spacing" textLength="19.6582" x="412.1147" y="253.7197">cart</text><text fill="#000000" font-family="sans-serif" font-size="10" lengthAdjust="spacing" textLength="3.1787" x="431.7729" y="253.7197">&#160;</text><text fill="#000000" font-family="sans-serif" font-size="10" lengthAdjust="spacing" textLength="33.3154" x="434.9517" y="253.7197">details</text><polygon fill="#004D40" points="646.5723,291.3594,656.5723,295.3594,646.5723,299.3594,650.5723,295.3594" style="stroke:#004D40;stroke-width:1.0;"/><line style="stroke:#004D40;stroke-width:1.0;" x1="339.2656" x2="652.5723" y1="295.3594" y2="295.3594"/><text fill="#000000" font-family="sans-serif" font-size="10" lengthAdjust="spacing" textLength="35.9717" x="468.0474" y="279.3604">Checks</text><text fill="#000000" font-family="sans-serif" font-size="10" lengthAdjust="spacing" textLength="3.1787" x="504.019" y="279.3604">&#160;</text><text fill="#000000" font-family="sans-serif" font-size="10" lengthAdjust="spacing" textLength="22.5928" x="507.1978" y="279.3604">item</text><text fill="#000000" font-family="sans-serif" font-size="10" lengthAdjust="spacing" textLength="54.3799" x="471.729" y="291.001">availability</text><polygon fill="#004D40" points="816.689,328.6406,826.689,332.6406,816.689,336.6406,820.689,332.6406" style="stroke:#004D40;stroke-width:1.0;"/><line style="stroke:#004D40;stroke-width:1.0;" x1="658.5723" x2="822.689" y1="332.6406" y2="332.6406"/><text fill="#000000" font-family="sans-serif" font-size="10" lengthAdjust="spacing" textLength="37.5439" x="703.9285" y="316.6416">Verifies</text><text fill="#000000" font-family="sans-serif" font-size="10" lengthAdjust="spacing" textLength="3.1787" x="741.4724" y="316.6416">&#160;</text><text fill="#000000" font-family="sans-serif" font-size="10" lengthAdjust="spacing" textLength="38.6816" x="744.6511" y="316.6416">product</text><text fill="#000000" font-family="sans-serif" font-size="10" lengthAdjust="spacing" textLength="54.3799" x="716.4407" y="328.2822">availability</text><polygon fill="#004D40" points="669.5723,365.9219,659.5723,369.9219,669.5723,373.9219,665.5723,369.9219" style="stroke:#004D40;stroke-width:1.0;"/><line style="stroke:#004D40;stroke-width:1.0;stroke-dasharray:2.0,2.0;" x1="663.5723" x2="827.689" y1="369.9219" y2="369.9219"/><text fill="#000000" font-family="sans-serif" font-size="10" lengthAdjust="spacing" textLength="39.0186" x="695.342" y="353.9229">Returns</text><text fill="#000000" font-family="sans-serif" font-size="10" lengthAdjust="spacing" textLength="3.1787" x="734.3606" y="353.9229">&#160;</text><text fill="#000000" font-family="sans-serif" font-size="10" lengthAdjust="spacing" textLength="54.3799" x="737.5393" y="353.9229">availability</text><text fill="#000000" font-family="sans-serif" font-size="10" lengthAdjust="spacing" textLength="30.7275" x="728.2668" y="365.5635">status</text><polygon fill="#004D40" points="350.2656,403.2031,340.2656,407.2031,350.2656,411.2031,346.2656,407.2031" style="stroke:#004D40;stroke-width:1.0;"/><line style="stroke:#004D40;stroke-width:1.0;stroke-dasharray:2.0,2.0;" x1="344.2656" x2="657.5723" y1="407.2031" y2="407.2031"/><text fill="#000000" font-family="sans-serif" font-size="10" lengthAdjust="spacing" textLength="42.666" x="477.5859" y="391.2041">Provides</text><text fill="#000000" font-family="sans-serif" font-size="10" lengthAdjust="spacing" textLength="54.3799" x="453.4819" y="402.8447">availability</text><text fill="#000000" font-family="sans-serif" font-size="10" lengthAdjust="spacing" textLength="3.1787" x="507.8618" y="402.8447">&#160;</text><text fill="#000000" font-family="sans-serif" font-size="10" lengthAdjust="spacing" textLength="33.3154" x="511.0405" y="402.8447">details</text><polygon fill="#004D40" points="986.8057,440.4844,996.8057,444.4844,986.8057,448.4844,990.8057,444.4844" style="stroke:#004D40;stroke-width:1.0;"/><line style="stroke:#004D40;stroke-width:1.0;" x1="339.2656" x2="992.8057" y1="444.4844" y2="444.4844"/><text fill="#000000" font-family="sans-serif" font-size="10" lengthAdjust="spacing" textLength="51.9141" x="619.2163" y="428.4854">Generates</text><text fill="#000000" font-family="sans-serif" font-size="10" lengthAdjust="spacing" textLength="3.1787" x="671.1304" y="428.4854">&#160;</text><text fill="#000000" font-family="sans-serif" font-size="10" lengthAdjust="spacing" textLength="44.5459" x="674.3091" y="428.4854">payment</text><text fill="#000000" font-family="sans-serif" font-size="10" lengthAdjust="spacing" textLength="17.6855" x="660.1929" y="440.126">link</text><polygon fill="#004D40" points="350.2656,477.7656,340.2656,481.7656,350.2656,485.7656,346.2656,481.7656" style="stroke:#004D40;stroke-width:1.0;"/><line style="stroke:#004D40;stroke-width:1.0;stroke-dasharray:2.0,2.0;" x1="344.2656" x2="997.8057" y1="481.7656" y2="481.7656"/><text fill="#000000" font-family="sans-serif" font-size="10" lengthAdjust="spacing" textLength="39.0186" x="625.6641" y="465.7666">Returns</text><text fill="#000000" font-family="sans-serif" font-size="10" lengthAdjust="spacing" textLength="3.1787" x="664.6826" y="465.7666">&#160;</text><text fill="#000000" font-family="sans-serif" font-size="10" lengthAdjust="spacing" textLength="44.5459" x="667.8613" y="465.7666">payment</text><text fill="#000000" font-family="sans-serif" font-size="10" lengthAdjust="spacing" textLength="17.6855" x="660.1929" y="477.4072">link</text><polygon fill="#004D40" points="1206.5591,515.0469,1216.5591,519.0469,1206.5591,523.0469,1210.5591,519.0469" style="stroke:#004D40;stroke-width:1.0;"/><line style="stroke:#004D40;stroke-width:1.0;" x1="339.2656" x2="1212.5591" y1="519.0469" y2="519.0469"/><text fill="#000000" font-family="sans-serif" font-size="10" lengthAdjust="spacing" textLength="43.1641" x="757.3303" y="503.0479">Finalizes</text><text fill="#000000" font-family="sans-serif" font-size="10" lengthAdjust="spacing" textLength="90.6934" x="733.5657" y="514.6885">recommendations</text><polygon fill="#004D40" points="350.2656,552.3281,340.2656,556.3281,350.2656,560.3281,346.2656,556.3281" style="stroke:#004D40;stroke-width:1.0;"/><line style="stroke:#004D40;stroke-width:1.0;stroke-dasharray:2.0,2.0;" x1="344.2656" x2="1217.5591" y1="556.3281" y2="556.3281"/><text fill="#000000" font-family="sans-serif" font-size="10" lengthAdjust="spacing" textLength="71.7529" x="743.0359" y="540.3291">Acknowledges</text><text fill="#000000" font-family="sans-serif" font-size="10" lengthAdjust="spacing" textLength="54.8535" x="751.4856" y="551.9697">finalization</text><polygon fill="#004D40" points="165.7261,589.6094,155.7261,593.6094,165.7261,597.6094,161.7261,593.6094" style="stroke:#004D40;stroke-width:1.0;"/><line style="stroke:#004D40;stroke-width:1.0;stroke-dasharray:2.0,2.0;" x1="159.7261" x2="338.2656" y1="593.6094" y2="593.6094"/><text fill="#000000" font-family="sans-serif" font-size="10" lengthAdjust="spacing" textLength="43.125" x="201.571" y="577.6104">Presents</text><text fill="#000000" font-family="sans-serif" font-size="10" lengthAdjust="spacing" textLength="3.1787" x="244.696" y="577.6104">&#160;</text><text fill="#000000" font-family="sans-serif" font-size="10" lengthAdjust="spacing" textLength="44.5459" x="247.8748" y="577.6104">payment</text><text fill="#000000" font-family="sans-serif" font-size="10" lengthAdjust="spacing" textLength="17.6855" x="238.1531" y="589.251">link</text><polygon fill="#004D40" points="44.0879,626.8906,34.0879,630.8906,44.0879,634.8906,40.0879,630.8906" style="stroke:#004D40;stroke-width:1.0;"/><line style="stroke:#004D40;stroke-width:1.0;stroke-dasharray:2.0,2.0;" x1="38.0879" x2="153.7261" y1="630.8906" y2="630.8906"/><text fill="#000000" font-family="sans-serif" font-size="10" lengthAdjust="spacing" textLength="42.0703" x="72.8718" y="614.8916">Displays</text><text fill="#000000" font-family="sans-serif" font-size="10" lengthAdjust="spacing" textLength="56.4893" x="47.4153" y="626.5322">transaction</text><text fill="#000000" font-family="sans-serif" font-size="10" lengthAdjust="spacing" textLength="3.1787" x="103.9045" y="626.5322">&#160;</text><text fill="#000000" font-family="sans-serif" font-size="10" lengthAdjust="spacing" textLength="33.3154" x="107.0833" y="626.5322">details</text></g></svg>