<svg xmlns="http://www.w3.org/2000/svg" xmlns:xlink="http://www.w3.org/1999/xlink" contentStyleType="text/css" height="603px" preserveAspectRatio="none" style="width:963px;height:603px;background:#FFFFFF;" version="1.1" viewBox="0 0 963 603" width="963px" zoomAndPan="magnify"><title>Finance - Dynamic</title><defs/><g><text fill="#000000" font-family="sans-serif" font-size="14" font-weight="bold" lengthAdjust="spacing" textLength="144.9424" x="410.5303" y="27.9951">Finance - Dynamic</text><line style="stroke:#181818;stroke-width:0.5;stroke-dasharray:5.0,5.0;" x1="33" x2="33" y1="130.2344" y2="511.4063"/><line style="stroke:#181818;stroke-width:0.5;stroke-dasharray:5.0,5.0;" x1="189.1758" x2="189.1758" y1="130.2344" y2="511.4063"/><line style="stroke:#181818;stroke-width:0.5;stroke-dasharray:5.0,5.0;" x1="408.8887" x2="408.8887" y1="130.2344" y2="511.4063"/><line style="stroke:#181818;stroke-width:0.5;stroke-dasharray:5.0,5.0;" x1="575.8672" x2="575.8672" y1="130.2344" y2="511.4063"/><line style="stroke:#181818;stroke-width:0.5;stroke-dasharray:5.0,5.0;" x1="742.6963" x2="742.6963" y1="130.2344" y2="511.4063"/><line style="stroke:#181818;stroke-width:0.5;stroke-dasharray:5.0,5.0;" x1="902.6748" x2="902.6748" y1="130.2344" y2="511.4063"/><text fill="#000000" font-family="sans-serif" font-size="14" lengthAdjust="spacing" textLength="50.1758" x="5" y="115.292">Reader</text><text fill="#000000" font-family="sans-serif" font-size="10" lengthAdjust="spacing" textLength="41.7627" x="9.2065" y="127.876">[Person]</text><ellipse cx="33.0879" cy="50.7969" fill="#00796B" rx="8" ry="8" style="stroke:#181818;stroke-width:0.5;"/><path d="M33.0879,58.7969 L33.0879,85.7969 M20.0879,66.7969 L46.0879,66.7969 M33.0879,85.7969 L20.0879,100.7969 M33.0879,85.7969 L46.0879,100.7969 " fill="none" style="stroke:#181818;stroke-width:0.5;"/><text fill="#000000" font-family="sans-serif" font-size="14" lengthAdjust="spacing" textLength="50.1758" x="5" y="523.4014">Reader</text><text fill="#000000" font-family="sans-serif" font-size="10" lengthAdjust="spacing" textLength="41.7627" x="9.2065" y="535.9854">[Person]</text><ellipse cx="33.0879" cy="546.8438" fill="#00796B" rx="8" ry="8" style="stroke:#181818;stroke-width:0.5;"/><path d="M33.0879,554.8438 L33.0879,581.8438 M20.0879,562.8438 L46.0879,562.8438 M33.0879,581.8438 L20.0879,596.8438 M33.0879,581.8438 L46.0879,596.8438 " fill="none" style="stroke:#181818;stroke-width:0.5;"/><rect fill="#26A69A" height="41.9375" rx="2.5" ry="2.5" style="stroke:#1A746B;stroke-width:0.5;" width="237.7129" x="71.1758" y="87.2969"/><text fill="#FFFFFF" font-family="sans-serif" font-size="14" lengthAdjust="spacing" textLength="223.7129" x="78.1758" y="107.292">Finance Single Page Application</text><text fill="#FFFFFF" font-family="sans-serif" font-size="10" lengthAdjust="spacing" textLength="153.1006" x="113.4819" y="119.876">[Container: React Component]</text><rect fill="#26A69A" height="41.9375" rx="2.5" ry="2.5" style="stroke:#1A746B;stroke-width:0.5;" width="237.7129" x="71.1758" y="510.4063"/><text fill="#FFFFFF" font-family="sans-serif" font-size="14" lengthAdjust="spacing" textLength="223.7129" x="78.1758" y="530.4014">Finance Single Page Application</text><text fill="#FFFFFF" font-family="sans-serif" font-size="10" lengthAdjust="spacing" textLength="153.1006" x="113.4819" y="542.9854">[Container: React Component]</text><rect fill="#26A69A" height="41.9375" rx="2.5" ry="2.5" style="stroke:#1A746B;stroke-width:0.5;" width="181.9785" x="318.8887" y="87.2969"/><text fill="#FFFFFF" font-family="sans-serif" font-size="14" lengthAdjust="spacing" textLength="147.1641" x="336.2959" y="107.292">Finance Microservice</text><text fill="#FFFFFF" font-family="sans-serif" font-size="10" lengthAdjust="spacing" textLength="167.9785" x="325.8887" y="119.876">[Container: Java and Spring Boot]</text><rect fill="#26A69A" height="41.9375" rx="2.5" ry="2.5" style="stroke:#1A746B;stroke-width:0.5;" width="181.9785" x="318.8887" y="510.4063"/><text fill="#FFFFFF" font-family="sans-serif" font-size="14" lengthAdjust="spacing" textLength="147.1641" x="336.2959" y="530.4014">Finance Microservice</text><text fill="#FFFFFF" font-family="sans-serif" font-size="10" lengthAdjust="spacing" textLength="167.9785" x="325.8887" y="542.9854">[Container: Java and Spring Boot]</text><text fill="#000000" font-family="sans-serif" font-size="14" lengthAdjust="spacing" textLength="125.8291" x="510.8672" y="115.292">Finance Database</text><text fill="#000000" font-family="sans-serif" font-size="10" lengthAdjust="spacing" textLength="120.8984" x="513.3325" y="127.876">[Container: PostgreSQL]</text><path d="M558.7817,66.2969 C558.7817,56.2969 576.7817,56.2969 576.7817,56.2969 C576.7817,56.2969 594.7817,56.2969 594.7817,66.2969 L594.7817,92.2969 C594.7817,102.2969 576.7817,102.2969 576.7817,102.2969 C576.7817,102.2969 558.7817,102.2969 558.7817,92.2969 L558.7817,66.2969 " fill="#26A69A" style="stroke:#181818;stroke-width:1.5;"/><path d="M558.7817,66.2969 C558.7817,76.2969 576.7817,76.2969 576.7817,76.2969 C576.7817,76.2969 594.7817,76.2969 594.7817,66.2969 " fill="none" style="stroke:#181818;stroke-width:1.5;"/><text fill="#000000" font-family="sans-serif" font-size="14" lengthAdjust="spacing" textLength="125.8291" x="510.8672" y="523.4014">Finance Database</text><text fill="#000000" font-family="sans-serif" font-size="10" lengthAdjust="spacing" textLength="120.8984" x="513.3325" y="535.9854">[Container: PostgreSQL]</text><path d="M558.7817,548.3438 C558.7817,538.3438 576.7817,538.3438 576.7817,538.3438 C576.7817,538.3438 594.7817,538.3438 594.7817,548.3438 L594.7817,574.3438 C594.7817,584.3438 576.7817,584.3438 576.7817,584.3438 C576.7817,584.3438 558.7817,584.3438 558.7817,574.3438 L558.7817,548.3438 " fill="#26A69A" style="stroke:#181818;stroke-width:1.5;"/><path d="M558.7817,548.3438 C558.7817,558.3438 576.7817,558.3438 576.7817,558.3438 C576.7817,558.3438 594.7817,558.3438 594.7817,548.3438 " fill="none" style="stroke:#181818;stroke-width:1.5;"/><rect fill="#26A69A" height="41.9375" rx="2.5" ry="2.5" style="stroke:#1A746B;stroke-width:0.5;" width="181.9785" x="652.6963" y="87.2969"/><text fill="#FFFFFF" font-family="sans-serif" font-size="14" lengthAdjust="spacing" textLength="122.1855" x="682.5928" y="107.292">Cart Microservice</text><text fill="#FFFFFF" font-family="sans-serif" font-size="10" lengthAdjust="spacing" textLength="167.9785" x="659.6963" y="119.876">[Container: Java and Spring Boot]</text><rect fill="#26A69A" height="41.9375" rx="2.5" ry="2.5" style="stroke:#1A746B;stroke-width:0.5;" width="181.9785" x="652.6963" y="510.4063"/><text fill="#FFFFFF" font-family="sans-serif" font-size="14" lengthAdjust="spacing" textLength="122.1855" x="682.5928" y="530.4014">Cart Microservice</text><text fill="#FFFFFF" font-family="sans-serif" font-size="10" lengthAdjust="spacing" textLength="167.9785" x="659.6963" y="542.9854">[Container: Java and Spring Boot]</text><text fill="#000000" font-family="sans-serif" font-size="14" lengthAdjust="spacing" textLength="100.8506" x="849.9136" y="115.292">Cart Database</text><text fill="#000000" font-family="sans-serif" font-size="10" lengthAdjust="spacing" textLength="111.3281" x="844.6748" y="127.876">[Container: MongoDB]</text><path d="M885.3389,66.2969 C885.3389,56.2969 903.3389,56.2969 903.3389,56.2969 C903.3389,56.2969 921.3389,56.2969 921.3389,66.2969 L921.3389,92.2969 C921.3389,102.2969 903.3389,102.2969 903.3389,102.2969 C903.3389,102.2969 885.3389,102.2969 885.3389,92.2969 L885.3389,66.2969 " fill="#26A69A" style="stroke:#181818;stroke-width:1.5;"/><path d="M885.3389,66.2969 C885.3389,76.2969 903.3389,76.2969 903.3389,76.2969 C903.3389,76.2969 921.3389,76.2969 921.3389,66.2969 " fill="none" style="stroke:#181818;stroke-width:1.5;"/><text fill="#000000" font-family="sans-serif" font-size="14" lengthAdjust="spacing" textLength="100.8506" x="849.9136" y="523.4014">Cart Database</text><text fill="#000000" font-family="sans-serif" font-size="10" lengthAdjust="spacing" textLength="111.3281" x="844.6748" y="535.9854">[Container: MongoDB]</text><path d="M885.3389,548.3438 C885.3389,538.3438 903.3389,538.3438 903.3389,538.3438 C903.3389,538.3438 921.3389,538.3438 921.3389,548.3438 L921.3389,574.3438 C921.3389,584.3438 903.3389,584.3438 903.3389,584.3438 C903.3389,584.3438 885.3389,584.3438 885.3389,574.3438 L885.3389,548.3438 " fill="#26A69A" style="stroke:#181818;stroke-width:1.5;"/><path d="M885.3389,548.3438 C885.3389,558.3438 903.3389,558.3438 903.3389,558.3438 C903.3389,558.3438 921.3389,558.3438 921.3389,548.3438 " fill="none" style="stroke:#181818;stroke-width:1.5;"/><polygon fill="#004D40" points="178.0322,153.875,188.0322,157.875,178.0322,161.875,182.0322,157.875" style="stroke:#004D40;stroke-width:1.0;"/><line style="stroke:#004D40;stroke-width:1.0;" x1="33.0879" x2="184.0322" y1="157.875" y2="157.875"/><text fill="#000000" font-family="sans-serif" font-size="10" lengthAdjust="spacing" textLength="40.1758" x="67.6099" y="153.5166">Initiates</text><text fill="#000000" font-family="sans-serif" font-size="10" lengthAdjust="spacing" textLength="3.1787" x="107.7856" y="153.5166">&#160;</text><text fill="#000000" font-family="sans-serif" font-size="10" lengthAdjust="spacing" textLength="44.5459" x="110.9644" y="153.5166">payment</text><polygon fill="#004D40" points="397.8779,191.1563,407.8779,195.1563,397.8779,199.1563,401.8779,195.1563" style="stroke:#004D40;stroke-width:1.0;"/><line style="stroke:#004D40;stroke-width:1.0;" x1="190.0322" x2="403.8779" y1="195.1563" y2="195.1563"/><text fill="#000000" font-family="sans-serif" font-size="10" lengthAdjust="spacing" textLength="49.6924" x="251.2466" y="179.1572">Processes</text><text fill="#000000" font-family="sans-serif" font-size="10" lengthAdjust="spacing" textLength="3.1787" x="300.939" y="179.1572">&#160;</text><text fill="#000000" font-family="sans-serif" font-size="10" lengthAdjust="spacing" textLength="44.5459" x="304.1177" y="179.1572">payment</text><text fill="#000000" font-family="sans-serif" font-size="10" lengthAdjust="spacing" textLength="38.2324" x="280.8389" y="190.7979">request</text><polygon fill="#004D40" points="564.7817,228.4375,574.7817,232.4375,564.7817,236.4375,568.7817,232.4375" style="stroke:#004D40;stroke-width:1.0;"/><line style="stroke:#004D40;stroke-width:1.0;" x1="409.8779" x2="570.7817" y1="232.4375" y2="232.4375"/><text fill="#000000" font-family="sans-serif" font-size="10" lengthAdjust="spacing" textLength="31.8604" x="453.5374" y="216.4385">Stores</text><text fill="#000000" font-family="sans-serif" font-size="10" lengthAdjust="spacing" textLength="3.1787" x="485.3977" y="216.4385">&#160;</text><text fill="#000000" font-family="sans-serif" font-size="10" lengthAdjust="spacing" textLength="44.5459" x="488.5764" y="216.4385">payment</text><text fill="#000000" font-family="sans-serif" font-size="10" lengthAdjust="spacing" textLength="33.3154" x="476.6721" y="228.0791">details</text><polygon fill="#004D40" points="420.8779,265.7188,410.8779,269.7188,420.8779,273.7188,416.8779,269.7188" style="stroke:#004D40;stroke-width:1.0;"/><line style="stroke:#004D40;stroke-width:1.0;stroke-dasharray:2.0,2.0;" x1="414.8779" x2="575.7817" y1="269.7188" y2="269.7188"/><text fill="#000000" font-family="sans-serif" font-size="10" lengthAdjust="spacing" textLength="44.7998" x="447.0676" y="253.7197">Confirms</text><text fill="#000000" font-family="sans-serif" font-size="10" lengthAdjust="spacing" textLength="3.1787" x="491.8674" y="253.7197">&#160;</text><text fill="#000000" font-family="sans-serif" font-size="10" lengthAdjust="spacing" textLength="44.5459" x="495.0461" y="253.7197">payment</text><text fill="#000000" font-family="sans-serif" font-size="10" lengthAdjust="spacing" textLength="37.9883" x="474.3357" y="265.3604">storage</text><polygon fill="#004D40" points="731.6855,303,741.6855,307,731.6855,311,735.6855,307" style="stroke:#004D40;stroke-width:1.0;"/><line style="stroke:#004D40;stroke-width:1.0;stroke-dasharray:2.0,2.0;" x1="409.8779" x2="737.6855" y1="307" y2="307"/><text fill="#000000" font-family="sans-serif" font-size="10" lengthAdjust="spacing" textLength="37.959" x="539.1255" y="291.001">Notifies</text><text fill="#000000" font-family="sans-serif" font-size="10" lengthAdjust="spacing" textLength="3.1787" x="577.0845" y="291.001">&#160;</text><text fill="#000000" font-family="sans-serif" font-size="10" lengthAdjust="spacing" textLength="19.6582" x="580.2632" y="291.001">cart</text><text fill="#000000" font-family="sans-serif" font-size="10" lengthAdjust="spacing" textLength="3.1787" x="599.9214" y="291.001">&#160;</text><text fill="#000000" font-family="sans-serif" font-size="10" lengthAdjust="spacing" textLength="11.3379" x="603.1001" y="291.001">as</text><text fill="#000000" font-family="sans-serif" font-size="10" lengthAdjust="spacing" textLength="21.6016" x="565.981" y="302.6416">paid</text><polygon fill="#004D40" points="420.8779,351.9219,410.8779,355.9219,420.8779,359.9219,416.8779,355.9219" style="stroke:#004D40;stroke-width:1.0;"/><line style="stroke:#004D40;stroke-width:1.0;" x1="414.8779" x2="742.6855" y1="355.9219" y2="355.9219"/><text fill="#000000" font-family="sans-serif" font-size="10" lengthAdjust="spacing" textLength="71.7529" x="540.9053" y="328.2822">Acknowledges</text><text fill="#000000" font-family="sans-serif" font-size="10" lengthAdjust="spacing" textLength="44.5459" x="554.5088" y="339.9229">payment</text><text fill="#000000" font-family="sans-serif" font-size="10" lengthAdjust="spacing" textLength="56.2354" x="548.6641" y="351.5635">notification</text><polygon fill="#004D40" points="201.0322,389.2031,191.0322,393.2031,201.0322,397.2031,197.0322,393.2031" style="stroke:#004D40;stroke-width:1.0;"/><line style="stroke:#004D40;stroke-width:1.0;stroke-dasharray:2.0,2.0;" x1="195.0322" x2="408.8779" y1="393.2031" y2="393.2031"/><text fill="#000000" font-family="sans-serif" font-size="10" lengthAdjust="spacing" textLength="39.0186" x="256.5835" y="377.2041">Returns</text><text fill="#000000" font-family="sans-serif" font-size="10" lengthAdjust="spacing" textLength="3.1787" x="295.6021" y="377.2041">&#160;</text><text fill="#000000" font-family="sans-serif" font-size="10" lengthAdjust="spacing" textLength="44.5459" x="298.7808" y="377.2041">payment</text><text fill="#000000" font-family="sans-serif" font-size="10" lengthAdjust="spacing" textLength="30.7275" x="284.5913" y="388.8447">status</text><polygon fill="#004D40" points="891.3389,426.4844,901.3389,430.4844,891.3389,434.4844,895.3389,430.4844" style="stroke:#004D40;stroke-width:1.0;"/><line style="stroke:#004D40;stroke-width:1.0;" x1="743.6855" x2="897.3389" y1="430.4844" y2="430.4844"/><text fill="#000000" font-family="sans-serif" font-size="10" lengthAdjust="spacing" textLength="41.4258" x="784.772" y="414.4854">Updates</text><text fill="#000000" font-family="sans-serif" font-size="10" lengthAdjust="spacing" textLength="3.1787" x="826.1978" y="414.4854">&#160;</text><text fill="#000000" font-family="sans-serif" font-size="10" lengthAdjust="spacing" textLength="19.6582" x="829.3765" y="414.4854">cart</text><text fill="#000000" font-family="sans-serif" font-size="10" lengthAdjust="spacing" textLength="3.1787" x="849.0347" y="414.4854">&#160;</text><text fill="#000000" font-family="sans-serif" font-size="10" lengthAdjust="spacing" textLength="10.0391" x="852.2134" y="414.4854">to</text><text fill="#000000" font-family="sans-serif" font-size="10" lengthAdjust="spacing" textLength="21.6016" x="795.7583" y="426.126">paid</text><text fill="#000000" font-family="sans-serif" font-size="10" lengthAdjust="spacing" textLength="3.1787" x="817.3599" y="426.126">&#160;</text><text fill="#000000" font-family="sans-serif" font-size="10" lengthAdjust="spacing" textLength="30.7275" x="820.5386" y="426.126">status</text><polygon fill="#004D40" points="754.6855,452.125,744.6855,456.125,754.6855,460.125,750.6855,456.125" style="stroke:#004D40;stroke-width:1.0;"/><line style="stroke:#004D40;stroke-width:1.0;stroke-dasharray:2.0,2.0;" x1="748.6855" x2="902.3389" y1="456.125" y2="456.125"/><text fill="#000000" font-family="sans-serif" font-size="10" lengthAdjust="spacing" textLength="44.7998" x="781.9058" y="451.7666">Confirms</text><text fill="#000000" font-family="sans-serif" font-size="10" lengthAdjust="spacing" textLength="3.1787" x="826.7056" y="451.7666">&#160;</text><text fill="#000000" font-family="sans-serif" font-size="10" lengthAdjust="spacing" textLength="35.2344" x="829.8843" y="451.7666">update</text><polygon fill="#004D40" points="44.0879,489.4063,34.0879,493.4063,44.0879,497.4063,40.0879,493.4063" style="stroke:#004D40;stroke-width:1.0;"/><line style="stroke:#004D40;stroke-width:1.0;stroke-dasharray:2.0,2.0;" x1="38.0879" x2="189.0322" y1="493.4063" y2="493.4063"/><text fill="#000000" font-family="sans-serif" font-size="10" lengthAdjust="spacing" textLength="42.0703" x="66.6626" y="477.4072">Displays</text><text fill="#000000" font-family="sans-serif" font-size="10" lengthAdjust="spacing" textLength="3.1787" x="108.7329" y="477.4072">&#160;</text><text fill="#000000" font-family="sans-serif" font-size="10" lengthAdjust="spacing" textLength="44.5459" x="111.9116" y="477.4072">payment</text><text fill="#000000" font-family="sans-serif" font-size="10" lengthAdjust="spacing" textLength="63.3887" x="79.8657" y="489.0479">confirmation</text></g></svg>