<svg xmlns="http://www.w3.org/2000/svg" xmlns:xlink="http://www.w3.org/1999/xlink" contentStyleType="text/css" height="478px" preserveAspectRatio="none" style="width:689px;height:478px;background:#FFFFFF;" version="1.1" viewBox="0 0 689 478" width="689px" zoomAndPan="magnify"><title>Finance - Dynamic</title><defs/><g><text fill="#000000" font-family="sans-serif" font-size="14" font-weight="bold" lengthAdjust="spacing" textLength="144.9424" x="273.6304" y="27.9951">Finance - Dynamic</text><line style="stroke:#181818;stroke-width:0.5;stroke-dasharray:5.0,5.0;" x1="55" x2="55" y1="130.2344" y2="385.5625"/><line style="stroke:#181818;stroke-width:0.5;stroke-dasharray:5.0,5.0;" x1="234.6826" x2="234.6826" y1="130.2344" y2="385.5625"/><line style="stroke:#181818;stroke-width:0.5;stroke-dasharray:5.0,5.0;" x1="454.3955" x2="454.3955" y1="130.2344" y2="385.5625"/><line style="stroke:#181818;stroke-width:0.5;stroke-dasharray:5.0,5.0;" x1="621.374" x2="621.374" y1="130.2344" y2="385.5625"/><text fill="#000000" font-family="sans-serif" font-size="14" lengthAdjust="spacing" textLength="95.6826" x="5" y="115.292">Administrator</text><text fill="#000000" font-family="sans-serif" font-size="10" lengthAdjust="spacing" textLength="41.7627" x="31.96" y="127.876">[Person]</text><ellipse cx="55.8413" cy="50.7969" fill="#00796B" rx="8" ry="8" style="stroke:#181818;stroke-width:0.5;"/><path d="M55.8413,58.7969 L55.8413,85.7969 M42.8413,66.7969 L68.8413,66.7969 M55.8413,85.7969 L42.8413,100.7969 M55.8413,85.7969 L68.8413,100.7969 " fill="none" style="stroke:#181818;stroke-width:0.5;"/><text fill="#000000" font-family="sans-serif" font-size="14" lengthAdjust="spacing" textLength="95.6826" x="5" y="397.5576">Administrator</text><text fill="#000000" font-family="sans-serif" font-size="10" lengthAdjust="spacing" textLength="41.7627" x="31.96" y="410.1416">[Person]</text><ellipse cx="55.8413" cy="421" fill="#00796B" rx="8" ry="8" style="stroke:#181818;stroke-width:0.5;"/><path d="M55.8413,429 L55.8413,456 M42.8413,437 L68.8413,437 M55.8413,456 L42.8413,471 M55.8413,456 L68.8413,471 " fill="none" style="stroke:#181818;stroke-width:0.5;"/><rect fill="#26A69A" height="41.9375" rx="2.5" ry="2.5" style="stroke:#1A746B;stroke-width:0.5;" width="237.7129" x="116.6826" y="87.2969"/><text fill="#FFFFFF" font-family="sans-serif" font-size="14" lengthAdjust="spacing" textLength="223.7129" x="123.6826" y="107.292">Finance Single Page Application</text><text fill="#FFFFFF" font-family="sans-serif" font-size="10" lengthAdjust="spacing" textLength="153.1006" x="158.9888" y="119.876">[Container: React Component]</text><rect fill="#26A69A" height="41.9375" rx="2.5" ry="2.5" style="stroke:#1A746B;stroke-width:0.5;" width="237.7129" x="116.6826" y="384.5625"/><text fill="#FFFFFF" font-family="sans-serif" font-size="14" lengthAdjust="spacing" textLength="223.7129" x="123.6826" y="404.5576">Finance Single Page Application</text><text fill="#FFFFFF" font-family="sans-serif" font-size="10" lengthAdjust="spacing" textLength="153.1006" x="158.9888" y="417.1416">[Container: React Component]</text><rect fill="#26A69A" height="41.9375" rx="2.5" ry="2.5" style="stroke:#1A746B;stroke-width:0.5;" width="181.9785" x="364.3955" y="87.2969"/><text fill="#FFFFFF" font-family="sans-serif" font-size="14" lengthAdjust="spacing" textLength="147.1641" x="381.8027" y="107.292">Finance Microservice</text><text fill="#FFFFFF" font-family="sans-serif" font-size="10" lengthAdjust="spacing" textLength="167.9785" x="371.3955" y="119.876">[Container: Java and Spring Boot]</text><rect fill="#26A69A" height="41.9375" rx="2.5" ry="2.5" style="stroke:#1A746B;stroke-width:0.5;" width="181.9785" x="364.3955" y="384.5625"/><text fill="#FFFFFF" font-family="sans-serif" font-size="14" lengthAdjust="spacing" textLength="147.1641" x="381.8027" y="404.5576">Finance Microservice</text><text fill="#FFFFFF" font-family="sans-serif" font-size="10" lengthAdjust="spacing" textLength="167.9785" x="371.3955" y="417.1416">[Container: Java and Spring Boot]</text><text fill="#000000" font-family="sans-serif" font-size="14" lengthAdjust="spacing" textLength="125.8291" x="556.374" y="115.292">Finance Database</text><text fill="#000000" font-family="sans-serif" font-size="10" lengthAdjust="spacing" textLength="120.8984" x="558.8394" y="127.876">[Container: PostgreSQL]</text><path d="M604.2886,66.2969 C604.2886,56.2969 622.2886,56.2969 622.2886,56.2969 C622.2886,56.2969 640.2886,56.2969 640.2886,66.2969 L640.2886,92.2969 C640.2886,102.2969 622.2886,102.2969 622.2886,102.2969 C622.2886,102.2969 604.2886,102.2969 604.2886,92.2969 L604.2886,66.2969 " fill="#26A69A" style="stroke:#181818;stroke-width:1.5;"/><path d="M604.2886,66.2969 C604.2886,76.2969 622.2886,76.2969 622.2886,76.2969 C622.2886,76.2969 640.2886,76.2969 640.2886,66.2969 " fill="none" style="stroke:#181818;stroke-width:1.5;"/><text fill="#000000" font-family="sans-serif" font-size="14" lengthAdjust="spacing" textLength="125.8291" x="556.374" y="397.5576">Finance Database</text><text fill="#000000" font-family="sans-serif" font-size="10" lengthAdjust="spacing" textLength="120.8984" x="558.8394" y="410.1416">[Container: PostgreSQL]</text><path d="M604.2886,422.5 C604.2886,412.5 622.2886,412.5 622.2886,412.5 C622.2886,412.5 640.2886,412.5 640.2886,422.5 L640.2886,448.5 C640.2886,458.5 622.2886,458.5 622.2886,458.5 C622.2886,458.5 604.2886,458.5 604.2886,448.5 L604.2886,422.5 " fill="#26A69A" style="stroke:#181818;stroke-width:1.5;"/><path d="M604.2886,422.5 C604.2886,432.5 622.2886,432.5 622.2886,432.5 C622.2886,432.5 640.2886,432.5 640.2886,422.5 " fill="none" style="stroke:#181818;stroke-width:1.5;"/><polygon fill="#004D40" points="223.5391,165.5156,233.5391,169.5156,223.5391,173.5156,227.5391,169.5156" style="stroke:#004D40;stroke-width:1.0;"/><line style="stroke:#004D40;stroke-width:1.0;" x1="55.8413" x2="229.5391" y1="169.5156" y2="169.5156"/><text fill="#000000" font-family="sans-serif" font-size="10" lengthAdjust="spacing" textLength="41.3379" x="102.2893" y="153.5166">Reviews</text><text fill="#000000" font-family="sans-serif" font-size="10" lengthAdjust="spacing" textLength="3.1787" x="143.6272" y="153.5166">&#160;</text><text fill="#000000" font-family="sans-serif" font-size="10" lengthAdjust="spacing" textLength="42.2852" x="146.8059" y="153.5166">financial</text><text fill="#000000" font-family="sans-serif" font-size="10" lengthAdjust="spacing" textLength="61.6992" x="114.8406" y="165.1572">transactions</text><polygon fill="#004D40" points="443.3848,202.7969,453.3848,206.7969,443.3848,210.7969,447.3848,206.7969" style="stroke:#004D40;stroke-width:1.0;"/><line style="stroke:#004D40;stroke-width:1.0;" x1="235.5391" x2="449.3848" y1="206.7969" y2="206.7969"/><text fill="#000000" font-family="sans-serif" font-size="10" lengthAdjust="spacing" textLength="46.2793" x="322.3223" y="190.7979">Requests</text><text fill="#000000" font-family="sans-serif" font-size="10" lengthAdjust="spacing" textLength="56.4893" x="304.3657" y="202.4385">transaction</text><text fill="#000000" font-family="sans-serif" font-size="10" lengthAdjust="spacing" textLength="3.1787" x="360.855" y="202.4385">&#160;</text><text fill="#000000" font-family="sans-serif" font-size="10" lengthAdjust="spacing" textLength="22.5244" x="364.0337" y="202.4385">data</text><polygon fill="#004D40" points="610.2886,240.0781,620.2886,244.0781,610.2886,248.0781,614.2886,244.0781" style="stroke:#004D40;stroke-width:1.0;"/><line style="stroke:#004D40;stroke-width:1.0;" x1="455.3848" x2="616.2886" y1="244.0781" y2="244.0781"/><text fill="#000000" font-family="sans-serif" font-size="10" lengthAdjust="spacing" textLength="47.3438" x="515.1648" y="228.0791">Retrieves</text><text fill="#000000" font-family="sans-serif" font-size="10" lengthAdjust="spacing" textLength="61.6992" x="507.9871" y="239.7197">transactions</text><polygon fill="#004D40" points="466.3848,277.3594,456.3848,281.3594,466.3848,285.3594,462.3848,281.3594" style="stroke:#004D40;stroke-width:1.0;"/><line style="stroke:#004D40;stroke-width:1.0;stroke-dasharray:2.0,2.0;" x1="460.3848" x2="621.2886" y1="281.3594" y2="281.3594"/><text fill="#000000" font-family="sans-serif" font-size="10" lengthAdjust="spacing" textLength="39.0186" x="489.4934" y="265.3604">Returns</text><text fill="#000000" font-family="sans-serif" font-size="10" lengthAdjust="spacing" textLength="3.1787" x="528.512" y="265.3604">&#160;</text><text fill="#000000" font-family="sans-serif" font-size="10" lengthAdjust="spacing" textLength="56.4893" x="531.6907" y="265.3604">transaction</text><text fill="#000000" font-family="sans-serif" font-size="10" lengthAdjust="spacing" textLength="22.5244" x="527.5745" y="277.001">data</text><polygon fill="#004D40" points="246.5391,314.6406,236.5391,318.6406,246.5391,322.6406,242.5391,318.6406" style="stroke:#004D40;stroke-width:1.0;"/><line style="stroke:#004D40;stroke-width:1.0;stroke-dasharray:2.0,2.0;" x1="240.5391" x2="454.3848" y1="318.6406" y2="318.6406"/><text fill="#000000" font-family="sans-serif" font-size="10" lengthAdjust="spacing" textLength="42.666" x="324.1289" y="302.6416">Provides</text><text fill="#000000" font-family="sans-serif" font-size="10" lengthAdjust="spacing" textLength="56.4893" x="304.3657" y="314.2822">transaction</text><text fill="#000000" font-family="sans-serif" font-size="10" lengthAdjust="spacing" textLength="3.1787" x="360.855" y="314.2822">&#160;</text><text fill="#000000" font-family="sans-serif" font-size="10" lengthAdjust="spacing" textLength="22.5244" x="364.0337" y="314.2822">data</text><polygon fill="#004D40" points="66.8413,363.5625,56.8413,367.5625,66.8413,371.5625,62.8413,367.5625" style="stroke:#004D40;stroke-width:1.0;"/><line style="stroke:#004D40;stroke-width:1.0;stroke-dasharray:2.0,2.0;" x1="60.8413" x2="234.5391" y1="367.5625" y2="367.5625"/><text fill="#000000" font-family="sans-serif" font-size="10" lengthAdjust="spacing" textLength="42.0703" x="124.655" y="339.9229">Displays</text><text fill="#000000" font-family="sans-serif" font-size="10" lengthAdjust="spacing" textLength="56.4893" x="117.4456" y="351.5635">transaction</text><text fill="#000000" font-family="sans-serif" font-size="10" lengthAdjust="spacing" textLength="45.3271" x="123.0266" y="363.2041">overview</text></g></svg>