<svg xmlns="http://www.w3.org/2000/svg" xmlns:xlink="http://www.w3.org/1999/xlink" contentStyleType="text/css" height="478px" preserveAspectRatio="none" style="width:618px;height:478px;background:#FFFFFF;" version="1.1" viewBox="0 0 618 478" width="618px" zoomAndPan="magnify"><title>Finance - Dynamic</title><defs/><g><text fill="#000000" font-family="sans-serif" font-size="14" font-weight="bold" lengthAdjust="spacing" textLength="144.9424" x="238.3242" y="27.9951">Finance - Dynamic</text><line style="stroke:#181818;stroke-width:0.5;stroke-dasharray:5.0,5.0;" x1="55" x2="55" y1="130.2344" y2="385.5625"/><line style="stroke:#181818;stroke-width:0.5;stroke-dasharray:5.0,5.0;" x1="199.6826" x2="199.6826" y1="130.2344" y2="385.5625"/><line style="stroke:#181818;stroke-width:0.5;stroke-dasharray:5.0,5.0;" x1="383.7832" x2="383.7832" y1="130.2344" y2="385.5625"/><line style="stroke:#181818;stroke-width:0.5;stroke-dasharray:5.0,5.0;" x1="550.7617" x2="550.7617" y1="130.2344" y2="385.5625"/><text fill="#000000" font-family="sans-serif" font-size="14" lengthAdjust="spacing" textLength="95.6826" x="5" y="115.292">Administrator</text><text fill="#000000" font-family="sans-serif" font-size="10" lengthAdjust="spacing" textLength="41.7627" x="31.96" y="127.876">[Person]</text><ellipse cx="55.8413" cy="50.7969" fill="#28B463" rx="8" ry="8" style="stroke:#181818;stroke-width:0.5;"/><path d="M55.8413,58.7969 L55.8413,85.7969 M42.8413,66.7969 L68.8413,66.7969 M55.8413,85.7969 L42.8413,100.7969 M55.8413,85.7969 L68.8413,100.7969 " fill="none" style="stroke:#181818;stroke-width:0.5;"/><text fill="#000000" font-family="sans-serif" font-size="14" lengthAdjust="spacing" textLength="95.6826" x="5" y="397.5576">Administrator</text><text fill="#000000" font-family="sans-serif" font-size="10" lengthAdjust="spacing" textLength="41.7627" x="31.96" y="410.1416">[Person]</text><ellipse cx="55.8413" cy="421" fill="#28B463" rx="8" ry="8" style="stroke:#181818;stroke-width:0.5;"/><path d="M55.8413,429 L55.8413,456 M42.8413,437 L68.8413,437 M55.8413,456 L42.8413,471 M55.8413,456 L68.8413,471 " fill="none" style="stroke:#181818;stroke-width:0.5;"/><rect fill="#27AE60" height="41.9375" rx="2.5" ry="2.5" style="stroke:#1B7943;stroke-width:0.5;" width="167.1006" x="116.6826" y="87.2969"/><text fill="#FFFFFF" font-family="sans-serif" font-size="14" lengthAdjust="spacing" textLength="85.9346" x="157.2656" y="107.292">Finance SPA</text><text fill="#FFFFFF" font-family="sans-serif" font-size="10" lengthAdjust="spacing" textLength="153.1006" x="123.6826" y="119.876">[Container: React Component]</text><rect fill="#27AE60" height="41.9375" rx="2.5" ry="2.5" style="stroke:#1B7943;stroke-width:0.5;" width="167.1006" x="116.6826" y="384.5625"/><text fill="#FFFFFF" font-family="sans-serif" font-size="14" lengthAdjust="spacing" textLength="85.9346" x="157.2656" y="404.5576">Finance SPA</text><text fill="#FFFFFF" font-family="sans-serif" font-size="10" lengthAdjust="spacing" textLength="153.1006" x="123.6826" y="417.1416">[Container: React Component]</text><rect fill="#27AE60" height="41.9375" rx="2.5" ry="2.5" style="stroke:#1B7943;stroke-width:0.5;" width="181.9785" x="293.7832" y="87.2969"/><text fill="#FFFFFF" font-family="sans-serif" font-size="14" lengthAdjust="spacing" textLength="147.1641" x="311.1904" y="107.292">Finance Microservice</text><text fill="#FFFFFF" font-family="sans-serif" font-size="10" lengthAdjust="spacing" textLength="167.9785" x="300.7832" y="119.876">[Container: Java and Spring Boot]</text><rect fill="#27AE60" height="41.9375" rx="2.5" ry="2.5" style="stroke:#1B7943;stroke-width:0.5;" width="181.9785" x="293.7832" y="384.5625"/><text fill="#FFFFFF" font-family="sans-serif" font-size="14" lengthAdjust="spacing" textLength="147.1641" x="311.1904" y="404.5576">Finance Microservice</text><text fill="#FFFFFF" font-family="sans-serif" font-size="10" lengthAdjust="spacing" textLength="167.9785" x="300.7832" y="417.1416">[Container: Java and Spring Boot]</text><text fill="#000000" font-family="sans-serif" font-size="14" lengthAdjust="spacing" textLength="125.8291" x="485.7617" y="115.292">Finance Database</text><text fill="#000000" font-family="sans-serif" font-size="10" lengthAdjust="spacing" textLength="120.8984" x="488.2271" y="127.876">[Container: PostgreSQL]</text><path d="M533.6763,66.2969 C533.6763,56.2969 551.6763,56.2969 551.6763,56.2969 C551.6763,56.2969 569.6763,56.2969 569.6763,66.2969 L569.6763,92.2969 C569.6763,102.2969 551.6763,102.2969 551.6763,102.2969 C551.6763,102.2969 533.6763,102.2969 533.6763,92.2969 L533.6763,66.2969 " fill="#8E44AD" style="stroke:#181818;stroke-width:1.5;"/><path d="M533.6763,66.2969 C533.6763,76.2969 551.6763,76.2969 551.6763,76.2969 C551.6763,76.2969 569.6763,76.2969 569.6763,66.2969 " fill="none" style="stroke:#181818;stroke-width:1.5;"/><text fill="#000000" font-family="sans-serif" font-size="14" lengthAdjust="spacing" textLength="125.8291" x="485.7617" y="397.5576">Finance Database</text><text fill="#000000" font-family="sans-serif" font-size="10" lengthAdjust="spacing" textLength="120.8984" x="488.2271" y="410.1416">[Container: PostgreSQL]</text><path d="M533.6763,422.5 C533.6763,412.5 551.6763,412.5 551.6763,412.5 C551.6763,412.5 569.6763,412.5 569.6763,422.5 L569.6763,448.5 C569.6763,458.5 551.6763,458.5 551.6763,458.5 C551.6763,458.5 533.6763,458.5 533.6763,448.5 L533.6763,422.5 " fill="#8E44AD" style="stroke:#181818;stroke-width:1.5;"/><path d="M533.6763,422.5 C533.6763,432.5 551.6763,432.5 551.6763,432.5 C551.6763,432.5 569.6763,432.5 569.6763,422.5 " fill="none" style="stroke:#181818;stroke-width:1.5;"/><polygon fill="#2980B9" points="188.2329,165.5156,198.2329,169.5156,188.2329,173.5156,192.2329,169.5156" style="stroke:#2980B9;stroke-width:1.0;"/><line style="stroke:#2980B9;stroke-width:1.0;" x1="55.8413" x2="194.2329" y1="169.5156" y2="169.5156"/><text fill="#000000" font-family="sans-serif" font-size="10" lengthAdjust="spacing" textLength="41.3379" x="84.6362" y="153.5166">Reviews</text><text fill="#000000" font-family="sans-serif" font-size="10" lengthAdjust="spacing" textLength="3.1787" x="125.9741" y="153.5166">&#160;</text><text fill="#000000" font-family="sans-serif" font-size="10" lengthAdjust="spacing" textLength="42.2852" x="129.1528" y="153.5166">financial</text><text fill="#000000" font-family="sans-serif" font-size="10" lengthAdjust="spacing" textLength="61.6992" x="97.1875" y="165.1572">transactions</text><polygon fill="#2980B9" points="372.7725,202.7969,382.7725,206.7969,372.7725,210.7969,376.7725,206.7969" style="stroke:#2980B9;stroke-width:1.0;"/><line style="stroke:#2980B9;stroke-width:1.0;" x1="200.2329" x2="378.7725" y1="206.7969" y2="206.7969"/><text fill="#000000" font-family="sans-serif" font-size="10" lengthAdjust="spacing" textLength="46.2793" x="269.363" y="190.7979">Requests</text><text fill="#000000" font-family="sans-serif" font-size="10" lengthAdjust="spacing" textLength="56.4893" x="251.4065" y="202.4385">transaction</text><text fill="#000000" font-family="sans-serif" font-size="10" lengthAdjust="spacing" textLength="3.1787" x="307.8958" y="202.4385">&#160;</text><text fill="#000000" font-family="sans-serif" font-size="10" lengthAdjust="spacing" textLength="22.5244" x="311.0745" y="202.4385">data</text><polygon fill="#2980B9" points="539.6763,240.0781,549.6763,244.0781,539.6763,248.0781,543.6763,244.0781" style="stroke:#2980B9;stroke-width:1.0;"/><line style="stroke:#2980B9;stroke-width:1.0;" x1="384.7725" x2="545.6763" y1="244.0781" y2="244.0781"/><text fill="#000000" font-family="sans-serif" font-size="10" lengthAdjust="spacing" textLength="47.3438" x="444.5525" y="228.0791">Retrieves</text><text fill="#000000" font-family="sans-serif" font-size="10" lengthAdjust="spacing" textLength="61.6992" x="437.3748" y="239.7197">transactions</text><polygon fill="#2980B9" points="395.7725,277.3594,385.7725,281.3594,395.7725,285.3594,391.7725,281.3594" style="stroke:#2980B9;stroke-width:1.0;"/><line style="stroke:#2980B9;stroke-width:1.0;stroke-dasharray:2.0,2.0;" x1="389.7725" x2="550.6763" y1="281.3594" y2="281.3594"/><text fill="#000000" font-family="sans-serif" font-size="10" lengthAdjust="spacing" textLength="39.0186" x="418.8811" y="265.3604">Returns</text><text fill="#000000" font-family="sans-serif" font-size="10" lengthAdjust="spacing" textLength="3.1787" x="457.8997" y="265.3604">&#160;</text><text fill="#000000" font-family="sans-serif" font-size="10" lengthAdjust="spacing" textLength="56.4893" x="461.0784" y="265.3604">transaction</text><text fill="#000000" font-family="sans-serif" font-size="10" lengthAdjust="spacing" textLength="22.5244" x="456.9622" y="277.001">data</text><polygon fill="#2980B9" points="211.2329,314.6406,201.2329,318.6406,211.2329,322.6406,207.2329,318.6406" style="stroke:#2980B9;stroke-width:1.0;"/><line style="stroke:#2980B9;stroke-width:1.0;stroke-dasharray:2.0,2.0;" x1="205.2329" x2="383.7725" y1="318.6406" y2="318.6406"/><text fill="#000000" font-family="sans-serif" font-size="10" lengthAdjust="spacing" textLength="42.666" x="271.1697" y="302.6416">Provides</text><text fill="#000000" font-family="sans-serif" font-size="10" lengthAdjust="spacing" textLength="56.4893" x="251.4065" y="314.2822">transaction</text><text fill="#000000" font-family="sans-serif" font-size="10" lengthAdjust="spacing" textLength="3.1787" x="307.8958" y="314.2822">&#160;</text><text fill="#000000" font-family="sans-serif" font-size="10" lengthAdjust="spacing" textLength="22.5244" x="311.0745" y="314.2822">data</text><polygon fill="#2980B9" points="66.8413,363.5625,56.8413,367.5625,66.8413,371.5625,62.8413,367.5625" style="stroke:#2980B9;stroke-width:1.0;"/><line style="stroke:#2980B9;stroke-width:1.0;stroke-dasharray:2.0,2.0;" x1="60.8413" x2="199.2329" y1="367.5625" y2="367.5625"/><text fill="#000000" font-family="sans-serif" font-size="10" lengthAdjust="spacing" textLength="42.0703" x="107.002" y="339.9229">Displays</text><text fill="#000000" font-family="sans-serif" font-size="10" lengthAdjust="spacing" textLength="56.4893" x="99.7925" y="351.5635">transaction</text><text fill="#000000" font-family="sans-serif" font-size="10" lengthAdjust="spacing" textLength="45.3271" x="105.3735" y="363.2041">overview</text></g></svg>