<svg xmlns="http://www.w3.org/2000/svg" xmlns:xlink="http://www.w3.org/1999/xlink" contentStyleType="text/css" height="501px" preserveAspectRatio="none" style="width:851px;height:501px;background:#FFFFFF;" version="1.1" viewBox="0 0 851 501" width="851px" zoomAndPan="magnify"><title>Recommendations - Dynamic</title><defs/><g><text fill="#000000" font-family="sans-serif" font-size="14" font-weight="bold" lengthAdjust="spacing" textLength="229.1133" x="312.9307" y="27.9951">Recommendations - Dynamic</text><line style="stroke:#181818;stroke-width:0.5;stroke-dasharray:5.0,5.0;" x1="33" x2="33" y1="130.2344" y2="408.8438"/><line style="stroke:#181818;stroke-width:0.5;stroke-dasharray:5.0,5.0;" x1="228.1758" x2="228.1758" y1="130.2344" y2="408.8438"/><line style="stroke:#181818;stroke-width:0.5;stroke-dasharray:5.0,5.0;" x1="513.2529" x2="513.2529" y1="130.2344" y2="408.8438"/><line style="stroke:#181818;stroke-width:0.5;stroke-dasharray:5.0,5.0;" x1="746.7813" x2="746.7813" y1="130.2344" y2="408.8438"/><text fill="#000000" font-family="sans-serif" font-size="14" lengthAdjust="spacing" textLength="50.1758" x="5" y="115.292">Reader</text><text fill="#000000" font-family="sans-serif" font-size="10" lengthAdjust="spacing" textLength="41.7627" x="9.2065" y="127.876">[Person]</text><ellipse cx="33.0879" cy="50.7969" fill="#00796B" rx="8" ry="8" style="stroke:#181818;stroke-width:0.5;"/><path d="M33.0879,58.7969 L33.0879,85.7969 M20.0879,66.7969 L46.0879,66.7969 M33.0879,85.7969 L20.0879,100.7969 M33.0879,85.7969 L46.0879,100.7969 " fill="none" style="stroke:#181818;stroke-width:0.5;"/><text fill="#000000" font-family="sans-serif" font-size="14" lengthAdjust="spacing" textLength="50.1758" x="5" y="420.8389">Reader</text><text fill="#000000" font-family="sans-serif" font-size="10" lengthAdjust="spacing" textLength="41.7627" x="9.2065" y="433.4229">[Person]</text><ellipse cx="33.0879" cy="444.2813" fill="#00796B" rx="8" ry="8" style="stroke:#181818;stroke-width:0.5;"/><path d="M33.0879,452.2813 L33.0879,479.2813 M20.0879,460.2813 L46.0879,460.2813 M33.0879,479.2813 L20.0879,494.2813 M33.0879,479.2813 L46.0879,494.2813 " fill="none" style="stroke:#181818;stroke-width:0.5;"/><rect fill="#26A69A" height="41.9375" rx="2.5" ry="2.5" style="stroke:#1A746B;stroke-width:0.5;" width="314.0771" x="71.1758" y="87.2969"/><text fill="#FFFFFF" font-family="sans-serif" font-size="14" lengthAdjust="spacing" textLength="300.0771" x="78.1758" y="107.292">Recommendations Single Page Application</text><text fill="#FFFFFF" font-family="sans-serif" font-size="10" lengthAdjust="spacing" textLength="153.1006" x="151.6641" y="119.876">[Container: React Component]</text><rect fill="#26A69A" height="41.9375" rx="2.5" ry="2.5" style="stroke:#1A746B;stroke-width:0.5;" width="314.0771" x="71.1758" y="407.8438"/><text fill="#FFFFFF" font-family="sans-serif" font-size="14" lengthAdjust="spacing" textLength="300.0771" x="78.1758" y="427.8389">Recommendations Single Page Application</text><text fill="#FFFFFF" font-family="sans-serif" font-size="10" lengthAdjust="spacing" textLength="153.1006" x="151.6641" y="440.4229">[Container: React Component]</text><rect fill="#26A69A" height="41.9375" rx="2.5" ry="2.5" style="stroke:#1A746B;stroke-width:0.5;" width="237.5283" x="395.2529" y="87.2969"/><text fill="#FFFFFF" font-family="sans-serif" font-size="14" lengthAdjust="spacing" textLength="223.5283" x="402.2529" y="107.292">Recommendations Microservice</text><text fill="#FFFFFF" font-family="sans-serif" font-size="10" lengthAdjust="spacing" textLength="167.9785" x="430.0278" y="119.876">[Container: Java and Spring Boot]</text><rect fill="#26A69A" height="41.9375" rx="2.5" ry="2.5" style="stroke:#1A746B;stroke-width:0.5;" width="237.5283" x="395.2529" y="407.8438"/><text fill="#FFFFFF" font-family="sans-serif" font-size="14" lengthAdjust="spacing" textLength="223.5283" x="402.2529" y="427.8389">Recommendations Microservice</text><text fill="#FFFFFF" font-family="sans-serif" font-size="10" lengthAdjust="spacing" textLength="167.9785" x="430.0278" y="440.4229">[Container: Java and Spring Boot]</text><text fill="#000000" font-family="sans-serif" font-size="14" lengthAdjust="spacing" textLength="202.1934" x="642.7813" y="115.292">Recommendations Database</text><text fill="#000000" font-family="sans-serif" font-size="10" lengthAdjust="spacing" textLength="111.3281" x="688.2139" y="127.876">[Container: MongoDB]</text><path d="M728.8779,66.2969 C728.8779,56.2969 746.8779,56.2969 746.8779,56.2969 C746.8779,56.2969 764.8779,56.2969 764.8779,66.2969 L764.8779,92.2969 C764.8779,102.2969 746.8779,102.2969 746.8779,102.2969 C746.8779,102.2969 728.8779,102.2969 728.8779,92.2969 L728.8779,66.2969 " fill="#26A69A" style="stroke:#181818;stroke-width:1.5;"/><path d="M728.8779,66.2969 C728.8779,76.2969 746.8779,76.2969 746.8779,76.2969 C746.8779,76.2969 764.8779,76.2969 764.8779,66.2969 " fill="none" style="stroke:#181818;stroke-width:1.5;"/><text fill="#000000" font-family="sans-serif" font-size="14" lengthAdjust="spacing" textLength="202.1934" x="642.7813" y="420.8389">Recommendations Database</text><text fill="#000000" font-family="sans-serif" font-size="10" lengthAdjust="spacing" textLength="111.3281" x="688.2139" y="433.4229">[Container: MongoDB]</text><path d="M728.8779,445.7813 C728.8779,435.7813 746.8779,435.7813 746.8779,435.7813 C746.8779,435.7813 764.8779,435.7813 764.8779,445.7813 L764.8779,471.7813 C764.8779,481.7813 746.8779,481.7813 746.8779,481.7813 C746.8779,481.7813 728.8779,481.7813 728.8779,471.7813 L728.8779,445.7813 " fill="#26A69A" style="stroke:#181818;stroke-width:1.5;"/><path d="M728.8779,445.7813 C728.8779,455.7813 746.8779,455.7813 746.8779,455.7813 C746.8779,455.7813 764.8779,455.7813 764.8779,445.7813 " fill="none" style="stroke:#181818;stroke-width:1.5;"/><polygon fill="#004D40" points="216.2144,165.5156,226.2144,169.5156,216.2144,173.5156,220.2144,169.5156" style="stroke:#004D40;stroke-width:1.0;"/><line style="stroke:#004D40;stroke-width:1.0;" x1="33.0879" x2="222.2144" y1="169.5156" y2="169.5156"/><text fill="#000000" font-family="sans-serif" font-size="10" lengthAdjust="spacing" textLength="46.2793" x="107.5115" y="153.5166">Requests</text><text fill="#000000" font-family="sans-serif" font-size="10" lengthAdjust="spacing" textLength="90.6934" x="85.3044" y="165.1572">recommendations</text><polygon fill="#004D40" points="502.0171,202.7969,512.0171,206.7969,502.0171,210.7969,506.0171,206.7969" style="stroke:#004D40;stroke-width:1.0;"/><line style="stroke:#004D40;stroke-width:1.0;" x1="228.2144" x2="508.0171" y1="206.7969" y2="206.7969"/><text fill="#000000" font-family="sans-serif" font-size="10" lengthAdjust="spacing" textLength="39.0234" x="351.604" y="190.7979">Fetches</text><text fill="#000000" font-family="sans-serif" font-size="10" lengthAdjust="spacing" textLength="90.6934" x="325.769" y="202.4385">recommendations</text><polygon fill="#004D40" points="734.8779,251.7188,744.8779,255.7188,734.8779,259.7188,738.8779,255.7188" style="stroke:#004D40;stroke-width:1.0;"/><line style="stroke:#004D40;stroke-width:1.0;" x1="514.0171" x2="740.8779" y1="255.7188" y2="255.7188"/><text fill="#000000" font-family="sans-serif" font-size="10" lengthAdjust="spacing" textLength="47.3438" x="606.7756" y="228.0791">Retrieves</text><text fill="#000000" font-family="sans-serif" font-size="10" lengthAdjust="spacing" textLength="72.7002" x="594.0974" y="239.7197">recommended</text><text fill="#000000" font-family="sans-serif" font-size="10" lengthAdjust="spacing" textLength="27.8027" x="616.5461" y="251.3604">items</text><polygon fill="#004D40" points="525.0171,289,515.0171,293,525.0171,297,521.0171,293" style="stroke:#004D40;stroke-width:1.0;"/><line style="stroke:#004D40;stroke-width:1.0;stroke-dasharray:2.0,2.0;" x1="519.0171" x2="745.8779" y1="293" y2="293"/><text fill="#000000" font-family="sans-serif" font-size="10" lengthAdjust="spacing" textLength="39.0186" x="610.9382" y="277.001">Returns</text><text fill="#000000" font-family="sans-serif" font-size="10" lengthAdjust="spacing" textLength="90.6934" x="585.1008" y="288.6416">recommendations</text><polygon fill="#004D40" points="239.2144,337.9219,229.2144,341.9219,239.2144,345.9219,235.2144,341.9219" style="stroke:#004D40;stroke-width:1.0;"/><line style="stroke:#004D40;stroke-width:1.0;stroke-dasharray:2.0,2.0;" x1="233.2144" x2="513.0171" y1="341.9219" y2="341.9219"/><text fill="#000000" font-family="sans-serif" font-size="10" lengthAdjust="spacing" textLength="39.0186" x="351.6064" y="314.2822">Returns</text><text fill="#000000" font-family="sans-serif" font-size="10" lengthAdjust="spacing" textLength="72.7002" x="334.7656" y="325.9229">recommended</text><text fill="#000000" font-family="sans-serif" font-size="10" lengthAdjust="spacing" textLength="27.8027" x="357.2144" y="337.5635">items</text><polygon fill="#004D40" points="44.0879,386.8438,34.0879,390.8438,44.0879,394.8438,40.0879,390.8438" style="stroke:#004D40;stroke-width:1.0;"/><line style="stroke:#004D40;stroke-width:1.0;stroke-dasharray:2.0,2.0;" x1="38.0879" x2="227.2144" y1="390.8438" y2="390.8438"/><text fill="#000000" font-family="sans-serif" font-size="10" lengthAdjust="spacing" textLength="42.0703" x="109.616" y="363.2041">Displays</text><text fill="#000000" font-family="sans-serif" font-size="10" lengthAdjust="spacing" textLength="72.7002" x="94.301" y="374.8447">recommended</text><text fill="#000000" font-family="sans-serif" font-size="10" lengthAdjust="spacing" textLength="27.8027" x="116.7498" y="386.4854">items</text></g></svg>