<svg xmlns="http://www.w3.org/2000/svg" xmlns:xlink="http://www.w3.org/1999/xlink" contentStyleType="text/css" height="564px" preserveAspectRatio="none" style="width:835px;height:564px;background:#FFFFFF;" version="1.1" viewBox="0 0 835 564" width="835px" zoomAndPan="magnify"><title>Accounts - Dynamic</title><defs/><g><text fill="#000000" font-family="sans-serif" font-size="14" font-weight="bold" lengthAdjust="spacing" textLength="155.415" x="338.8428" y="27.9951">Accounts - Dynamic</text><line style="stroke:#181818;stroke-width:0.5;stroke-dasharray:5.0,5.0;" x1="33" x2="33" y1="130.2344" y2="471.7656"/><line style="stroke:#181818;stroke-width:0.5;stroke-dasharray:5.0,5.0;" x1="154.1758" x2="154.1758" y1="130.2344" y2="471.7656"/><line style="stroke:#181818;stroke-width:0.5;stroke-dasharray:5.0,5.0;" x1="338.2764" x2="338.2764" y1="130.2344" y2="471.7656"/><line style="stroke:#181818;stroke-width:0.5;stroke-dasharray:5.0,5.0;" x1="510.2549" x2="510.2549" y1="130.2344" y2="471.7656"/><line style="stroke:#181818;stroke-width:0.5;stroke-dasharray:5.0,5.0;" x1="709.5723" x2="709.5723" y1="130.2344" y2="471.7656"/><text fill="#000000" font-family="sans-serif" font-size="14" lengthAdjust="spacing" textLength="50.1758" x="5" y="115.292">Reader</text><text fill="#000000" font-family="sans-serif" font-size="10" lengthAdjust="spacing" textLength="41.7627" x="9.2065" y="127.876">[Person]</text><ellipse cx="33.0879" cy="50.7969" fill="#28B463" rx="8" ry="8" style="stroke:#181818;stroke-width:0.5;"/><path d="M33.0879,58.7969 L33.0879,85.7969 M20.0879,66.7969 L46.0879,66.7969 M33.0879,85.7969 L20.0879,100.7969 M33.0879,85.7969 L46.0879,100.7969 " fill="none" style="stroke:#181818;stroke-width:0.5;"/><text fill="#000000" font-family="sans-serif" font-size="14" lengthAdjust="spacing" textLength="50.1758" x="5" y="483.7607">Reader</text><text fill="#000000" font-family="sans-serif" font-size="10" lengthAdjust="spacing" textLength="41.7627" x="9.2065" y="496.3447">[Person]</text><ellipse cx="33.0879" cy="507.2031" fill="#28B463" rx="8" ry="8" style="stroke:#181818;stroke-width:0.5;"/><path d="M33.0879,515.2031 L33.0879,542.2031 M20.0879,523.2031 L46.0879,523.2031 M33.0879,542.2031 L20.0879,557.2031 M33.0879,542.2031 L46.0879,557.2031 " fill="none" style="stroke:#181818;stroke-width:0.5;"/><rect fill="#27AE60" height="41.9375" rx="2.5" ry="2.5" style="stroke:#1B7943;stroke-width:0.5;" width="167.1006" x="71.1758" y="87.2969"/><text fill="#FFFFFF" font-family="sans-serif" font-size="14" lengthAdjust="spacing" textLength="95.4229" x="107.0146" y="107.292">Accounts SPA</text><text fill="#FFFFFF" font-family="sans-serif" font-size="10" lengthAdjust="spacing" textLength="153.1006" x="78.1758" y="119.876">[Container: React Component]</text><rect fill="#27AE60" height="41.9375" rx="2.5" ry="2.5" style="stroke:#1B7943;stroke-width:0.5;" width="167.1006" x="71.1758" y="470.7656"/><text fill="#FFFFFF" font-family="sans-serif" font-size="14" lengthAdjust="spacing" textLength="95.4229" x="107.0146" y="490.7607">Accounts SPA</text><text fill="#FFFFFF" font-family="sans-serif" font-size="10" lengthAdjust="spacing" textLength="153.1006" x="78.1758" y="503.3447">[Container: React Component]</text><rect fill="#27AE60" height="41.9375" rx="2.5" ry="2.5" style="stroke:#1B7943;stroke-width:0.5;" width="181.9785" x="248.2764" y="87.2969"/><text fill="#FFFFFF" font-family="sans-serif" font-size="14" lengthAdjust="spacing" textLength="156.6523" x="260.9395" y="107.292">Accounts Microservice</text><text fill="#FFFFFF" font-family="sans-serif" font-size="10" lengthAdjust="spacing" textLength="167.9785" x="255.2764" y="119.876">[Container: Java and Spring Boot]</text><rect fill="#27AE60" height="41.9375" rx="2.5" ry="2.5" style="stroke:#1B7943;stroke-width:0.5;" width="181.9785" x="248.2764" y="470.7656"/><text fill="#FFFFFF" font-family="sans-serif" font-size="14" lengthAdjust="spacing" textLength="156.6523" x="260.9395" y="490.7607">Accounts Microservice</text><text fill="#FFFFFF" font-family="sans-serif" font-size="10" lengthAdjust="spacing" textLength="167.9785" x="255.2764" y="503.3447">[Container: Java and Spring Boot]</text><text fill="#000000" font-family="sans-serif" font-size="14" lengthAdjust="spacing" textLength="135.3174" x="440.2549" y="115.292">Accounts Database</text><text fill="#000000" font-family="sans-serif" font-size="10" lengthAdjust="spacing" textLength="111.3281" x="452.2495" y="127.876">[Container: MongoDB]</text><path d="M492.9136,66.2969 C492.9136,56.2969 510.9136,56.2969 510.9136,56.2969 C510.9136,56.2969 528.9136,56.2969 528.9136,66.2969 L528.9136,92.2969 C528.9136,102.2969 510.9136,102.2969 510.9136,102.2969 C510.9136,102.2969 492.9136,102.2969 492.9136,92.2969 L492.9136,66.2969 " fill="#8E44AD" style="stroke:#181818;stroke-width:1.5;"/><path d="M492.9136,66.2969 C492.9136,76.2969 510.9136,76.2969 510.9136,76.2969 C510.9136,76.2969 528.9136,76.2969 528.9136,66.2969 " fill="none" style="stroke:#181818;stroke-width:1.5;"/><text fill="#000000" font-family="sans-serif" font-size="14" lengthAdjust="spacing" textLength="135.3174" x="440.2549" y="483.7607">Accounts Database</text><text fill="#000000" font-family="sans-serif" font-size="10" lengthAdjust="spacing" textLength="111.3281" x="452.2495" y="496.3447">[Container: MongoDB]</text><path d="M492.9136,508.7031 C492.9136,498.7031 510.9136,498.7031 510.9136,498.7031 C510.9136,498.7031 528.9136,498.7031 528.9136,508.7031 L528.9136,534.7031 C528.9136,544.7031 510.9136,544.7031 510.9136,544.7031 C510.9136,544.7031 492.9136,544.7031 492.9136,534.7031 L492.9136,508.7031 " fill="#8E44AD" style="stroke:#181818;stroke-width:1.5;"/><path d="M492.9136,508.7031 C492.9136,518.7031 510.9136,518.7031 510.9136,518.7031 C510.9136,518.7031 528.9136,518.7031 528.9136,508.7031 " fill="none" style="stroke:#181818;stroke-width:1.5;"/><rect fill="#27AE60" height="41.9375" rx="2.5" ry="2.5" style="stroke:#1B7943;stroke-width:0.5;" width="237.5283" x="591.5723" y="87.2969"/><text fill="#FFFFFF" font-family="sans-serif" font-size="14" lengthAdjust="spacing" textLength="223.5283" x="598.5723" y="107.292">Recommendations Microservice</text><text fill="#FFFFFF" font-family="sans-serif" font-size="10" lengthAdjust="spacing" textLength="167.9785" x="626.3472" y="119.876">[Container: Java and Spring Boot]</text><rect fill="#27AE60" height="41.9375" rx="2.5" ry="2.5" style="stroke:#1B7943;stroke-width:0.5;" width="237.5283" x="591.5723" y="470.7656"/><text fill="#FFFFFF" font-family="sans-serif" font-size="14" lengthAdjust="spacing" textLength="223.5283" x="598.5723" y="490.7607">Recommendations Microservice</text><text fill="#FFFFFF" font-family="sans-serif" font-size="10" lengthAdjust="spacing" textLength="167.9785" x="626.3472" y="503.3447">[Container: Java and Spring Boot]</text><polygon fill="#2980B9" points="142.7261,165.5156,152.7261,169.5156,142.7261,173.5156,146.7261,169.5156" style="stroke:#2980B9;stroke-width:1.0;"/><line style="stroke:#2980B9;stroke-width:1.0;" x1="33.0879" x2="148.7261" y1="169.5156" y2="169.5156"/><text fill="#000000" font-family="sans-serif" font-size="10" lengthAdjust="spacing" textLength="40.1758" x="52.3103" y="153.5166">Initiates</text><text fill="#000000" font-family="sans-serif" font-size="10" lengthAdjust="spacing" textLength="3.1787" x="92.4861" y="153.5166">&#160;</text><text fill="#000000" font-family="sans-serif" font-size="10" lengthAdjust="spacing" textLength="39.8389" x="95.6648" y="153.5166">account</text><text fill="#000000" font-family="sans-serif" font-size="10" lengthAdjust="spacing" textLength="57.915" x="64.9495" y="165.1572">registration</text><polygon fill="#2980B9" points="327.2656,202.7969,337.2656,206.7969,327.2656,210.7969,331.2656,206.7969" style="stroke:#2980B9;stroke-width:1.0;"/><line style="stroke:#2980B9;stroke-width:1.0;" x1="154.7261" x2="333.2656" y1="206.7969" y2="206.7969"/><text fill="#000000" font-family="sans-serif" font-size="10" lengthAdjust="spacing" textLength="46.2793" x="211.9324" y="190.7979">Requests</text><text fill="#000000" font-family="sans-serif" font-size="10" lengthAdjust="spacing" textLength="3.1787" x="258.2117" y="190.7979">&#160;</text><text fill="#000000" font-family="sans-serif" font-size="10" lengthAdjust="spacing" textLength="20.6689" x="261.3904" y="190.7979">new</text><text fill="#000000" font-family="sans-serif" font-size="10" lengthAdjust="spacing" textLength="39.8389" x="204.9646" y="202.4385">account</text><text fill="#000000" font-family="sans-serif" font-size="10" lengthAdjust="spacing" textLength="3.1787" x="244.8035" y="202.4385">&#160;</text><text fill="#000000" font-family="sans-serif" font-size="10" lengthAdjust="spacing" textLength="41.0449" x="247.9822" y="202.4385">creation</text><polygon fill="#2980B9" points="498.9136,240.0781,508.9136,244.0781,498.9136,248.0781,502.9136,244.0781" style="stroke:#2980B9;stroke-width:1.0;"/><line style="stroke:#2980B9;stroke-width:1.0;" x1="339.2656" x2="504.9136" y1="244.0781" y2="244.0781"/><text fill="#000000" font-family="sans-serif" font-size="10" lengthAdjust="spacing" textLength="31.8604" x="375.7268" y="228.0791">Stores</text><text fill="#000000" font-family="sans-serif" font-size="10" lengthAdjust="spacing" textLength="3.1787" x="407.5872" y="228.0791">&#160;</text><text fill="#000000" font-family="sans-serif" font-size="10" lengthAdjust="spacing" textLength="20.6689" x="410.7659" y="228.0791">new</text><text fill="#000000" font-family="sans-serif" font-size="10" lengthAdjust="spacing" textLength="3.1787" x="431.4348" y="228.0791">&#160;</text><text fill="#000000" font-family="sans-serif" font-size="10" lengthAdjust="spacing" textLength="39.8389" x="434.6135" y="228.0791">account</text><text fill="#000000" font-family="sans-serif" font-size="10" lengthAdjust="spacing" textLength="22.5244" x="413.8274" y="239.7197">data</text><polygon fill="#2980B9" points="350.2656,277.3594,340.2656,281.3594,350.2656,285.3594,346.2656,281.3594" style="stroke:#2980B9;stroke-width:1.0;"/><line style="stroke:#2980B9;stroke-width:1.0;stroke-dasharray:2.0,2.0;" x1="344.2656" x2="509.9136" y1="281.3594" y2="281.3594"/><text fill="#000000" font-family="sans-serif" font-size="10" lengthAdjust="spacing" textLength="44.7998" x="381.1809" y="265.3604">Confirms</text><text fill="#000000" font-family="sans-serif" font-size="10" lengthAdjust="spacing" textLength="3.1787" x="425.9807" y="265.3604">&#160;</text><text fill="#000000" font-family="sans-serif" font-size="10" lengthAdjust="spacing" textLength="39.8389" x="429.1594" y="265.3604">account</text><text fill="#000000" font-family="sans-serif" font-size="10" lengthAdjust="spacing" textLength="41.0449" x="404.5671" y="277.001">creation</text><polygon fill="#2980B9" points="698.3364,326.2813,708.3364,330.2813,698.3364,334.2813,702.3364,330.2813" style="stroke:#2980B9;stroke-width:1.0;"/><line style="stroke:#2980B9;stroke-width:1.0;" x1="339.2656" x2="704.3364" y1="330.2813" y2="330.2813"/><text fill="#000000" font-family="sans-serif" font-size="10" lengthAdjust="spacing" textLength="41.4258" x="504.0881" y="302.6416">Updates</text><text fill="#000000" font-family="sans-serif" font-size="10" lengthAdjust="spacing" textLength="90.6934" x="479.4543" y="314.2822">recommendations</text><text fill="#000000" font-family="sans-serif" font-size="10" lengthAdjust="spacing" textLength="13.75" x="493.5071" y="325.9229">for</text><text fill="#000000" font-family="sans-serif" font-size="10" lengthAdjust="spacing" textLength="3.1787" x="507.2571" y="325.9229">&#160;</text><text fill="#000000" font-family="sans-serif" font-size="10" lengthAdjust="spacing" textLength="20.6689" x="510.4358" y="325.9229">new</text><text fill="#000000" font-family="sans-serif" font-size="10" lengthAdjust="spacing" textLength="3.1787" x="531.1047" y="325.9229">&#160;</text><text fill="#000000" font-family="sans-serif" font-size="10" lengthAdjust="spacing" textLength="21.8115" x="534.2834" y="325.9229">user</text><polygon fill="#2980B9" points="350.2656,375.2031,340.2656,379.2031,350.2656,383.2031,346.2656,379.2031" style="stroke:#2980B9;stroke-width:1.0;"/><line style="stroke:#2980B9;stroke-width:1.0;stroke-dasharray:2.0,2.0;" x1="344.2656" x2="709.3364" y1="379.2031" y2="379.2031"/><text fill="#000000" font-family="sans-serif" font-size="10" lengthAdjust="spacing" textLength="71.7529" x="488.9246" y="351.5635">Acknowledges</text><text fill="#000000" font-family="sans-serif" font-size="10" lengthAdjust="spacing" textLength="85.4834" x="482.0593" y="363.2041">recommendation</text><text fill="#000000" font-family="sans-serif" font-size="10" lengthAdjust="spacing" textLength="35.2344" x="507.1838" y="374.8447">update</text><polygon fill="#2980B9" points="165.7261,412.4844,155.7261,416.4844,165.7261,420.4844,161.7261,416.4844" style="stroke:#2980B9;stroke-width:1.0;"/><line style="stroke:#2980B9;stroke-width:1.0;stroke-dasharray:2.0,2.0;" x1="159.7261" x2="338.2656" y1="416.4844" y2="416.4844"/><text fill="#000000" font-family="sans-serif" font-size="10" lengthAdjust="spacing" textLength="30.3955" x="210.2893" y="400.4854">Sends</text><text fill="#000000" font-family="sans-serif" font-size="10" lengthAdjust="spacing" textLength="3.1787" x="240.6848" y="400.4854">&#160;</text><text fill="#000000" font-family="sans-serif" font-size="10" lengthAdjust="spacing" textLength="39.8389" x="243.8635" y="400.4854">account</text><text fill="#000000" font-family="sans-serif" font-size="10" lengthAdjust="spacing" textLength="33.3154" x="230.3381" y="412.126">details</text><polygon fill="#2980B9" points="44.0879,449.7656,34.0879,453.7656,44.0879,457.7656,40.0879,453.7656" style="stroke:#2980B9;stroke-width:1.0;"/><line style="stroke:#2980B9;stroke-width:1.0;stroke-dasharray:2.0,2.0;" x1="38.0879" x2="153.7261" y1="453.7656" y2="453.7656"/><text fill="#000000" font-family="sans-serif" font-size="10" lengthAdjust="spacing" textLength="42.0703" x="52.1272" y="437.7666">Displays</text><text fill="#000000" font-family="sans-serif" font-size="10" lengthAdjust="spacing" textLength="3.1787" x="94.1975" y="437.7666">&#160;</text><text fill="#000000" font-family="sans-serif" font-size="10" lengthAdjust="spacing" textLength="38.3105" x="97.3762" y="437.7666">created</text><text fill="#000000" font-family="sans-serif" font-size="10" lengthAdjust="spacing" textLength="39.8389" x="55.7405" y="449.4072">account</text><text fill="#000000" font-family="sans-serif" font-size="10" lengthAdjust="spacing" textLength="3.1787" x="95.5793" y="449.4072">&#160;</text><text fill="#000000" font-family="sans-serif" font-size="10" lengthAdjust="spacing" textLength="33.3154" x="98.7581" y="449.4072">details</text></g></svg>