<svg xmlns="http://www.w3.org/2000/svg" xmlns:xlink="http://www.w3.org/1999/xlink" contentStyleType="text/css" height="564px" preserveAspectRatio="none" style="width:915px;height:564px;background:#FFFFFF;" version="1.1" viewBox="0 0 915 564" width="915px" zoomAndPan="magnify"><title>Accounts - Dynamic</title><defs/><g><text fill="#000000" font-family="sans-serif" font-size="14" font-weight="bold" lengthAdjust="spacing" textLength="155.415" x="378.8931" y="27.9951">Accounts - Dynamic</text><line style="stroke:#181818;stroke-width:0.5;stroke-dasharray:5.0,5.0;" x1="33" x2="33" y1="130.2344" y2="471.7656"/><line style="stroke:#181818;stroke-width:0.5;stroke-dasharray:5.0,5.0;" x1="194.1758" x2="194.1758" y1="130.2344" y2="471.7656"/><line style="stroke:#181818;stroke-width:0.5;stroke-dasharray:5.0,5.0;" x1="418.377" x2="418.377" y1="130.2344" y2="471.7656"/><line style="stroke:#181818;stroke-width:0.5;stroke-dasharray:5.0,5.0;" x1="590.3555" x2="590.3555" y1="130.2344" y2="471.7656"/><line style="stroke:#181818;stroke-width:0.5;stroke-dasharray:5.0,5.0;" x1="789.6729" x2="789.6729" y1="130.2344" y2="471.7656"/><text fill="#000000" font-family="sans-serif" font-size="14" lengthAdjust="spacing" textLength="50.1758" x="5" y="115.292">Reader</text><text fill="#000000" font-family="sans-serif" font-size="10" lengthAdjust="spacing" textLength="41.7627" x="9.2065" y="127.876">[Person]</text><ellipse cx="33.0879" cy="50.7969" fill="#00796B" rx="8" ry="8" style="stroke:#181818;stroke-width:0.5;"/><path d="M33.0879,58.7969 L33.0879,85.7969 M20.0879,66.7969 L46.0879,66.7969 M33.0879,85.7969 L20.0879,100.7969 M33.0879,85.7969 L46.0879,100.7969 " fill="none" style="stroke:#181818;stroke-width:0.5;"/><text fill="#000000" font-family="sans-serif" font-size="14" lengthAdjust="spacing" textLength="50.1758" x="5" y="483.7607">Reader</text><text fill="#000000" font-family="sans-serif" font-size="10" lengthAdjust="spacing" textLength="41.7627" x="9.2065" y="496.3447">[Person]</text><ellipse cx="33.0879" cy="507.2031" fill="#00796B" rx="8" ry="8" style="stroke:#181818;stroke-width:0.5;"/><path d="M33.0879,515.2031 L33.0879,542.2031 M20.0879,523.2031 L46.0879,523.2031 M33.0879,542.2031 L20.0879,557.2031 M33.0879,542.2031 L46.0879,557.2031 " fill="none" style="stroke:#181818;stroke-width:0.5;"/><rect fill="#26A69A" height="41.9375" rx="2.5" ry="2.5" style="stroke:#1A746B;stroke-width:0.5;" width="247.2012" x="71.1758" y="87.2969"/><text fill="#FFFFFF" font-family="sans-serif" font-size="14" lengthAdjust="spacing" textLength="233.2012" x="78.1758" y="107.292">Accounts Single Page Application</text><text fill="#FFFFFF" font-family="sans-serif" font-size="10" lengthAdjust="spacing" textLength="153.1006" x="118.2261" y="119.876">[Container: React Component]</text><rect fill="#26A69A" height="41.9375" rx="2.5" ry="2.5" style="stroke:#1A746B;stroke-width:0.5;" width="247.2012" x="71.1758" y="470.7656"/><text fill="#FFFFFF" font-family="sans-serif" font-size="14" lengthAdjust="spacing" textLength="233.2012" x="78.1758" y="490.7607">Accounts Single Page Application</text><text fill="#FFFFFF" font-family="sans-serif" font-size="10" lengthAdjust="spacing" textLength="153.1006" x="118.2261" y="503.3447">[Container: React Component]</text><rect fill="#26A69A" height="41.9375" rx="2.5" ry="2.5" style="stroke:#1A746B;stroke-width:0.5;" width="181.9785" x="328.377" y="87.2969"/><text fill="#FFFFFF" font-family="sans-serif" font-size="14" lengthAdjust="spacing" textLength="156.6523" x="341.04" y="107.292">Accounts Microservice</text><text fill="#FFFFFF" font-family="sans-serif" font-size="10" lengthAdjust="spacing" textLength="167.9785" x="335.377" y="119.876">[Container: Java and Spring Boot]</text><rect fill="#26A69A" height="41.9375" rx="2.5" ry="2.5" style="stroke:#1A746B;stroke-width:0.5;" width="181.9785" x="328.377" y="470.7656"/><text fill="#FFFFFF" font-family="sans-serif" font-size="14" lengthAdjust="spacing" textLength="156.6523" x="341.04" y="490.7607">Accounts Microservice</text><text fill="#FFFFFF" font-family="sans-serif" font-size="10" lengthAdjust="spacing" textLength="167.9785" x="335.377" y="503.3447">[Container: Java and Spring Boot]</text><text fill="#000000" font-family="sans-serif" font-size="14" lengthAdjust="spacing" textLength="135.3174" x="520.3555" y="115.292">Accounts Database</text><text fill="#000000" font-family="sans-serif" font-size="10" lengthAdjust="spacing" textLength="111.3281" x="532.3501" y="127.876">[Container: MongoDB]</text><path d="M573.0142,66.2969 C573.0142,56.2969 591.0142,56.2969 591.0142,56.2969 C591.0142,56.2969 609.0142,56.2969 609.0142,66.2969 L609.0142,92.2969 C609.0142,102.2969 591.0142,102.2969 591.0142,102.2969 C591.0142,102.2969 573.0142,102.2969 573.0142,92.2969 L573.0142,66.2969 " fill="#26A69A" style="stroke:#181818;stroke-width:1.5;"/><path d="M573.0142,66.2969 C573.0142,76.2969 591.0142,76.2969 591.0142,76.2969 C591.0142,76.2969 609.0142,76.2969 609.0142,66.2969 " fill="none" style="stroke:#181818;stroke-width:1.5;"/><text fill="#000000" font-family="sans-serif" font-size="14" lengthAdjust="spacing" textLength="135.3174" x="520.3555" y="483.7607">Accounts Database</text><text fill="#000000" font-family="sans-serif" font-size="10" lengthAdjust="spacing" textLength="111.3281" x="532.3501" y="496.3447">[Container: MongoDB]</text><path d="M573.0142,508.7031 C573.0142,498.7031 591.0142,498.7031 591.0142,498.7031 C591.0142,498.7031 609.0142,498.7031 609.0142,508.7031 L609.0142,534.7031 C609.0142,544.7031 591.0142,544.7031 591.0142,544.7031 C591.0142,544.7031 573.0142,544.7031 573.0142,534.7031 L573.0142,508.7031 " fill="#26A69A" style="stroke:#181818;stroke-width:1.5;"/><path d="M573.0142,508.7031 C573.0142,518.7031 591.0142,518.7031 591.0142,518.7031 C591.0142,518.7031 609.0142,518.7031 609.0142,508.7031 " fill="none" style="stroke:#181818;stroke-width:1.5;"/><rect fill="#26A69A" height="41.9375" rx="2.5" ry="2.5" style="stroke:#1A746B;stroke-width:0.5;" width="237.5283" x="671.6729" y="87.2969"/><text fill="#FFFFFF" font-family="sans-serif" font-size="14" lengthAdjust="spacing" textLength="223.5283" x="678.6729" y="107.292">Recommendations Microservice</text><text fill="#FFFFFF" font-family="sans-serif" font-size="10" lengthAdjust="spacing" textLength="167.9785" x="706.4478" y="119.876">[Container: Java and Spring Boot]</text><rect fill="#26A69A" height="41.9375" rx="2.5" ry="2.5" style="stroke:#1A746B;stroke-width:0.5;" width="237.5283" x="671.6729" y="470.7656"/><text fill="#FFFFFF" font-family="sans-serif" font-size="14" lengthAdjust="spacing" textLength="223.5283" x="678.6729" y="490.7607">Recommendations Microservice</text><text fill="#FFFFFF" font-family="sans-serif" font-size="10" lengthAdjust="spacing" textLength="167.9785" x="706.4478" y="503.3447">[Container: Java and Spring Boot]</text><polygon fill="#004D40" points="182.7764,165.5156,192.7764,169.5156,182.7764,173.5156,186.7764,169.5156" style="stroke:#004D40;stroke-width:1.0;"/><line style="stroke:#004D40;stroke-width:1.0;" x1="33.0879" x2="188.7764" y1="169.5156" y2="169.5156"/><text fill="#000000" font-family="sans-serif" font-size="10" lengthAdjust="spacing" textLength="40.1758" x="72.3354" y="153.5166">Initiates</text><text fill="#000000" font-family="sans-serif" font-size="10" lengthAdjust="spacing" textLength="3.1787" x="112.5112" y="153.5166">&#160;</text><text fill="#000000" font-family="sans-serif" font-size="10" lengthAdjust="spacing" textLength="39.8389" x="115.6899" y="153.5166">account</text><text fill="#000000" font-family="sans-serif" font-size="10" lengthAdjust="spacing" textLength="57.915" x="84.9746" y="165.1572">registration</text><polygon fill="#004D40" points="407.3662,202.7969,417.3662,206.7969,407.3662,210.7969,411.3662,206.7969" style="stroke:#004D40;stroke-width:1.0;"/><line style="stroke:#004D40;stroke-width:1.0;" x1="194.7764" x2="413.3662" y1="206.7969" y2="206.7969"/><text fill="#000000" font-family="sans-serif" font-size="10" lengthAdjust="spacing" textLength="46.2793" x="272.0078" y="190.7979">Requests</text><text fill="#000000" font-family="sans-serif" font-size="10" lengthAdjust="spacing" textLength="3.1787" x="318.2871" y="190.7979">&#160;</text><text fill="#000000" font-family="sans-serif" font-size="10" lengthAdjust="spacing" textLength="20.6689" x="321.4658" y="190.7979">new</text><text fill="#000000" font-family="sans-serif" font-size="10" lengthAdjust="spacing" textLength="39.8389" x="265.04" y="202.4385">account</text><text fill="#000000" font-family="sans-serif" font-size="10" lengthAdjust="spacing" textLength="3.1787" x="304.8789" y="202.4385">&#160;</text><text fill="#000000" font-family="sans-serif" font-size="10" lengthAdjust="spacing" textLength="41.0449" x="308.0576" y="202.4385">creation</text><polygon fill="#004D40" points="579.0142,240.0781,589.0142,244.0781,579.0142,248.0781,583.0142,244.0781" style="stroke:#004D40;stroke-width:1.0;"/><line style="stroke:#004D40;stroke-width:1.0;" x1="419.3662" x2="585.0142" y1="244.0781" y2="244.0781"/><text fill="#000000" font-family="sans-serif" font-size="10" lengthAdjust="spacing" textLength="31.8604" x="455.8274" y="228.0791">Stores</text><text fill="#000000" font-family="sans-serif" font-size="10" lengthAdjust="spacing" textLength="3.1787" x="487.6877" y="228.0791">&#160;</text><text fill="#000000" font-family="sans-serif" font-size="10" lengthAdjust="spacing" textLength="20.6689" x="490.8665" y="228.0791">new</text><text fill="#000000" font-family="sans-serif" font-size="10" lengthAdjust="spacing" textLength="3.1787" x="511.5354" y="228.0791">&#160;</text><text fill="#000000" font-family="sans-serif" font-size="10" lengthAdjust="spacing" textLength="39.8389" x="514.7141" y="228.0791">account</text><text fill="#000000" font-family="sans-serif" font-size="10" lengthAdjust="spacing" textLength="22.5244" x="493.928" y="239.7197">data</text><polygon fill="#004D40" points="430.3662,277.3594,420.3662,281.3594,430.3662,285.3594,426.3662,281.3594" style="stroke:#004D40;stroke-width:1.0;"/><line style="stroke:#004D40;stroke-width:1.0;stroke-dasharray:2.0,2.0;" x1="424.3662" x2="590.0142" y1="281.3594" y2="281.3594"/><text fill="#000000" font-family="sans-serif" font-size="10" lengthAdjust="spacing" textLength="44.7998" x="461.2815" y="265.3604">Confirms</text><text fill="#000000" font-family="sans-serif" font-size="10" lengthAdjust="spacing" textLength="3.1787" x="506.0813" y="265.3604">&#160;</text><text fill="#000000" font-family="sans-serif" font-size="10" lengthAdjust="spacing" textLength="39.8389" x="509.26" y="265.3604">account</text><text fill="#000000" font-family="sans-serif" font-size="10" lengthAdjust="spacing" textLength="41.0449" x="484.6677" y="277.001">creation</text><polygon fill="#004D40" points="778.437,326.2813,788.437,330.2813,778.437,334.2813,782.437,330.2813" style="stroke:#004D40;stroke-width:1.0;"/><line style="stroke:#004D40;stroke-width:1.0;" x1="419.3662" x2="784.437" y1="330.2813" y2="330.2813"/><text fill="#000000" font-family="sans-serif" font-size="10" lengthAdjust="spacing" textLength="41.4258" x="584.1887" y="302.6416">Updates</text><text fill="#000000" font-family="sans-serif" font-size="10" lengthAdjust="spacing" textLength="90.6934" x="559.5549" y="314.2822">recommendations</text><text fill="#000000" font-family="sans-serif" font-size="10" lengthAdjust="spacing" textLength="13.75" x="573.6077" y="325.9229">for</text><text fill="#000000" font-family="sans-serif" font-size="10" lengthAdjust="spacing" textLength="3.1787" x="587.3577" y="325.9229">&#160;</text><text fill="#000000" font-family="sans-serif" font-size="10" lengthAdjust="spacing" textLength="20.6689" x="590.5364" y="325.9229">new</text><text fill="#000000" font-family="sans-serif" font-size="10" lengthAdjust="spacing" textLength="3.1787" x="611.2053" y="325.9229">&#160;</text><text fill="#000000" font-family="sans-serif" font-size="10" lengthAdjust="spacing" textLength="21.8115" x="614.384" y="325.9229">user</text><polygon fill="#004D40" points="430.3662,375.2031,420.3662,379.2031,430.3662,383.2031,426.3662,379.2031" style="stroke:#004D40;stroke-width:1.0;"/><line style="stroke:#004D40;stroke-width:1.0;stroke-dasharray:2.0,2.0;" x1="424.3662" x2="789.437" y1="379.2031" y2="379.2031"/><text fill="#000000" font-family="sans-serif" font-size="10" lengthAdjust="spacing" textLength="71.7529" x="569.0251" y="351.5635">Acknowledges</text><text fill="#000000" font-family="sans-serif" font-size="10" lengthAdjust="spacing" textLength="85.4834" x="562.1599" y="363.2041">recommendation</text><text fill="#000000" font-family="sans-serif" font-size="10" lengthAdjust="spacing" textLength="35.2344" x="587.2844" y="374.8447">update</text><polygon fill="#004D40" points="205.7764,412.4844,195.7764,416.4844,205.7764,420.4844,201.7764,416.4844" style="stroke:#004D40;stroke-width:1.0;"/><line style="stroke:#004D40;stroke-width:1.0;stroke-dasharray:2.0,2.0;" x1="199.7764" x2="418.3662" y1="416.4844" y2="416.4844"/><text fill="#000000" font-family="sans-serif" font-size="10" lengthAdjust="spacing" textLength="30.3955" x="270.3647" y="400.4854">Sends</text><text fill="#000000" font-family="sans-serif" font-size="10" lengthAdjust="spacing" textLength="3.1787" x="300.7603" y="400.4854">&#160;</text><text fill="#000000" font-family="sans-serif" font-size="10" lengthAdjust="spacing" textLength="39.8389" x="303.939" y="400.4854">account</text><text fill="#000000" font-family="sans-serif" font-size="10" lengthAdjust="spacing" textLength="33.3154" x="290.4136" y="412.126">details</text><polygon fill="#004D40" points="44.0879,449.7656,34.0879,453.7656,44.0879,457.7656,40.0879,453.7656" style="stroke:#004D40;stroke-width:1.0;"/><line style="stroke:#004D40;stroke-width:1.0;stroke-dasharray:2.0,2.0;" x1="38.0879" x2="193.7764" y1="453.7656" y2="453.7656"/><text fill="#000000" font-family="sans-serif" font-size="10" lengthAdjust="spacing" textLength="42.0703" x="72.1523" y="437.7666">Displays</text><text fill="#000000" font-family="sans-serif" font-size="10" lengthAdjust="spacing" textLength="3.1787" x="114.2227" y="437.7666">&#160;</text><text fill="#000000" font-family="sans-serif" font-size="10" lengthAdjust="spacing" textLength="38.3105" x="117.4014" y="437.7666">created</text><text fill="#000000" font-family="sans-serif" font-size="10" lengthAdjust="spacing" textLength="39.8389" x="75.7656" y="449.4072">account</text><text fill="#000000" font-family="sans-serif" font-size="10" lengthAdjust="spacing" textLength="3.1787" x="115.6045" y="449.4072">&#160;</text><text fill="#000000" font-family="sans-serif" font-size="10" lengthAdjust="spacing" textLength="33.3154" x="118.7832" y="449.4072">details</text></g></svg>