<svg xmlns="http://www.w3.org/2000/svg" xmlns:xlink="http://www.w3.org/1999/xlink" contentStyleType="text/css" height="454px" preserveAspectRatio="none" style="width:702px;height:454px;background:#FFFFFF;" version="1.1" viewBox="0 0 702 454" width="702px" zoomAndPan="magnify"><title>Products - Dynamic</title><defs/><g><text fill="#000000" font-family="sans-serif" font-size="14" font-weight="bold" lengthAdjust="spacing" textLength="153.501" x="275.7769" y="27.9951">Products - Dynamic</text><line style="stroke:#181818;stroke-width:0.5;stroke-dasharray:5.0,5.0;" x1="55" x2="55" y1="130.2344" y2="362.2813"/><line style="stroke:#181818;stroke-width:0.5;stroke-dasharray:5.0,5.0;" x1="238.6826" x2="238.6826" y1="130.2344" y2="362.2813"/><line style="stroke:#181818;stroke-width:0.5;stroke-dasharray:5.0,5.0;" x1="460.8213" x2="460.8213" y1="130.2344" y2="362.2813"/><line style="stroke:#181818;stroke-width:0.5;stroke-dasharray:5.0,5.0;" x1="631.7998" x2="631.7998" y1="130.2344" y2="362.2813"/><text fill="#000000" font-family="sans-serif" font-size="14" lengthAdjust="spacing" textLength="95.6826" x="5" y="115.292">Administrator</text><text fill="#000000" font-family="sans-serif" font-size="10" lengthAdjust="spacing" textLength="41.7627" x="31.96" y="127.876">[Person]</text><ellipse cx="55.8413" cy="50.7969" fill="#00796B" rx="8" ry="8" style="stroke:#181818;stroke-width:0.5;"/><path d="M55.8413,58.7969 L55.8413,85.7969 M42.8413,66.7969 L68.8413,66.7969 M55.8413,85.7969 L42.8413,100.7969 M55.8413,85.7969 L68.8413,100.7969 " fill="none" style="stroke:#181818;stroke-width:0.5;"/><text fill="#000000" font-family="sans-serif" font-size="14" lengthAdjust="spacing" textLength="95.6826" x="5" y="374.2764">Administrator</text><text fill="#000000" font-family="sans-serif" font-size="10" lengthAdjust="spacing" textLength="41.7627" x="31.96" y="386.8604">[Person]</text><ellipse cx="55.8413" cy="397.7188" fill="#00796B" rx="8" ry="8" style="stroke:#181818;stroke-width:0.5;"/><path d="M55.8413,405.7188 L55.8413,432.7188 M42.8413,413.7188 L68.8413,413.7188 M55.8413,432.7188 L42.8413,447.7188 M55.8413,432.7188 L68.8413,447.7188 " fill="none" style="stroke:#181818;stroke-width:0.5;"/><rect fill="#26A69A" height="41.9375" rx="2.5" ry="2.5" style="stroke:#1A746B;stroke-width:0.5;" width="244.1387" x="116.6826" y="87.2969"/><text fill="#FFFFFF" font-family="sans-serif" font-size="14" lengthAdjust="spacing" textLength="230.1387" x="123.6826" y="107.292">Products Single Page Application</text><text fill="#FFFFFF" font-family="sans-serif" font-size="10" lengthAdjust="spacing" textLength="153.1006" x="162.2017" y="119.876">[Container: React Component]</text><rect fill="#26A69A" height="41.9375" rx="2.5" ry="2.5" style="stroke:#1A746B;stroke-width:0.5;" width="244.1387" x="116.6826" y="361.2813"/><text fill="#FFFFFF" font-family="sans-serif" font-size="14" lengthAdjust="spacing" textLength="230.1387" x="123.6826" y="381.2764">Products Single Page Application</text><text fill="#FFFFFF" font-family="sans-serif" font-size="10" lengthAdjust="spacing" textLength="153.1006" x="162.2017" y="393.8604">[Container: React Component]</text><rect fill="#26A69A" height="41.9375" rx="2.5" ry="2.5" style="stroke:#1A746B;stroke-width:0.5;" width="181.9785" x="370.8213" y="87.2969"/><text fill="#FFFFFF" font-family="sans-serif" font-size="14" lengthAdjust="spacing" textLength="153.5898" x="385.0156" y="107.292">Products Microservice</text><text fill="#FFFFFF" font-family="sans-serif" font-size="10" lengthAdjust="spacing" textLength="167.9785" x="377.8213" y="119.876">[Container: Java and Spring Boot]</text><rect fill="#26A69A" height="41.9375" rx="2.5" ry="2.5" style="stroke:#1A746B;stroke-width:0.5;" width="181.9785" x="370.8213" y="361.2813"/><text fill="#FFFFFF" font-family="sans-serif" font-size="14" lengthAdjust="spacing" textLength="153.5898" x="385.0156" y="381.2764">Products Microservice</text><text fill="#FFFFFF" font-family="sans-serif" font-size="10" lengthAdjust="spacing" textLength="167.9785" x="377.8213" y="393.8604">[Container: Java and Spring Boot]</text><text fill="#000000" font-family="sans-serif" font-size="14" lengthAdjust="spacing" textLength="132.2549" x="562.7998" y="115.292">Products Database</text><text fill="#000000" font-family="sans-serif" font-size="10" lengthAdjust="spacing" textLength="111.3281" x="573.2632" y="127.876">[Container: MongoDB]</text><path d="M613.9272,66.2969 C613.9272,56.2969 631.9272,56.2969 631.9272,56.2969 C631.9272,56.2969 649.9272,56.2969 649.9272,66.2969 L649.9272,92.2969 C649.9272,102.2969 631.9272,102.2969 631.9272,102.2969 C631.9272,102.2969 613.9272,102.2969 613.9272,92.2969 L613.9272,66.2969 " fill="#26A69A" style="stroke:#181818;stroke-width:1.5;"/><path d="M613.9272,66.2969 C613.9272,76.2969 631.9272,76.2969 631.9272,76.2969 C631.9272,76.2969 649.9272,76.2969 649.9272,66.2969 " fill="none" style="stroke:#181818;stroke-width:1.5;"/><text fill="#000000" font-family="sans-serif" font-size="14" lengthAdjust="spacing" textLength="132.2549" x="562.7998" y="374.2764">Products Database</text><text fill="#000000" font-family="sans-serif" font-size="10" lengthAdjust="spacing" textLength="111.3281" x="573.2632" y="386.8604">[Container: MongoDB]</text><path d="M613.9272,399.2188 C613.9272,389.2188 631.9272,389.2188 631.9272,389.2188 C631.9272,389.2188 649.9272,389.2188 649.9272,399.2188 L649.9272,425.2188 C649.9272,435.2188 631.9272,435.2188 631.9272,435.2188 C631.9272,435.2188 613.9272,435.2188 613.9272,425.2188 L613.9272,399.2188 " fill="#26A69A" style="stroke:#181818;stroke-width:1.5;"/><path d="M613.9272,399.2188 C613.9272,409.2188 631.9272,409.2188 631.9272,409.2188 C631.9272,409.2188 649.9272,409.2188 649.9272,399.2188 " fill="none" style="stroke:#181818;stroke-width:1.5;"/><polygon fill="#004D40" points="226.752,165.5156,236.752,169.5156,226.752,173.5156,230.752,169.5156" style="stroke:#004D40;stroke-width:1.0;"/><line style="stroke:#004D40;stroke-width:1.0;" x1="55.8413" x2="232.752" y1="169.5156" y2="169.5156"/><text fill="#000000" font-family="sans-serif" font-size="10" lengthAdjust="spacing" textLength="40.1758" x="113.4319" y="153.5166">Initiates</text><text fill="#000000" font-family="sans-serif" font-size="10" lengthAdjust="spacing" textLength="3.1787" x="153.6077" y="153.5166">&#160;</text><text fill="#000000" font-family="sans-serif" font-size="10" lengthAdjust="spacing" textLength="24.375" x="156.7864" y="153.5166">book</text><text fill="#000000" font-family="sans-serif" font-size="10" lengthAdjust="spacing" textLength="40.9473" x="126.823" y="165.1572">removal</text><polygon fill="#004D40" points="449.8105,202.7969,459.8105,206.7969,449.8105,210.7969,453.8105,206.7969" style="stroke:#004D40;stroke-width:1.0;"/><line style="stroke:#004D40;stroke-width:1.0;" x1="238.752" x2="455.8105" y1="206.7969" y2="206.7969"/><text fill="#000000" font-family="sans-serif" font-size="10" lengthAdjust="spacing" textLength="49.6924" x="311.6582" y="190.7979">Processes</text><text fill="#000000" font-family="sans-serif" font-size="10" lengthAdjust="spacing" textLength="3.1787" x="361.3506" y="190.7979">&#160;</text><text fill="#000000" font-family="sans-serif" font-size="10" lengthAdjust="spacing" textLength="24.375" x="364.5293" y="190.7979">book</text><text fill="#000000" font-family="sans-serif" font-size="10" lengthAdjust="spacing" textLength="40.9473" x="329.8076" y="202.4385">removal</text><polygon fill="#004D40" points="619.9272,228.4375,629.9272,232.4375,619.9272,236.4375,623.9272,232.4375" style="stroke:#004D40;stroke-width:1.0;"/><line style="stroke:#004D40;stroke-width:1.0;" x1="461.8105" x2="625.9272" y1="232.4375" y2="232.4375"/><text fill="#000000" font-family="sans-serif" font-size="10" lengthAdjust="spacing" textLength="46.2402" x="497.1204" y="228.0791">Removes</text><text fill="#000000" font-family="sans-serif" font-size="10" lengthAdjust="spacing" textLength="3.1787" x="543.3606" y="228.0791">&#160;</text><text fill="#000000" font-family="sans-serif" font-size="10" lengthAdjust="spacing" textLength="24.375" x="546.5393" y="228.0791">book</text><text fill="#000000" font-family="sans-serif" font-size="10" lengthAdjust="spacing" textLength="3.1787" x="570.9143" y="228.0791">&#160;</text><text fill="#000000" font-family="sans-serif" font-size="10" lengthAdjust="spacing" textLength="22.5244" x="574.093" y="228.0791">data</text><polygon fill="#004D40" points="472.8105,265.7188,462.8105,269.7188,472.8105,273.7188,468.8105,269.7188" style="stroke:#004D40;stroke-width:1.0;"/><line style="stroke:#004D40;stroke-width:1.0;stroke-dasharray:2.0,2.0;" x1="466.8105" x2="630.9272" y1="269.7188" y2="269.7188"/><text fill="#000000" font-family="sans-serif" font-size="10" lengthAdjust="spacing" textLength="44.7998" x="510.6921" y="253.7197">Confirms</text><text fill="#000000" font-family="sans-serif" font-size="10" lengthAdjust="spacing" textLength="3.1787" x="555.4919" y="253.7197">&#160;</text><text fill="#000000" font-family="sans-serif" font-size="10" lengthAdjust="spacing" textLength="24.375" x="558.6707" y="253.7197">book</text><text fill="#000000" font-family="sans-serif" font-size="10" lengthAdjust="spacing" textLength="40.9473" x="526.3953" y="265.3604">removal</text><polygon fill="#004D40" points="249.752,303,239.752,307,249.752,311,245.752,307" style="stroke:#004D40;stroke-width:1.0;"/><line style="stroke:#004D40;stroke-width:1.0;stroke-dasharray:2.0,2.0;" x1="243.752" x2="460.8105" y1="307" y2="307"/><text fill="#000000" font-family="sans-serif" font-size="10" lengthAdjust="spacing" textLength="39.0186" x="308.709" y="291.001">Returns</text><text fill="#000000" font-family="sans-serif" font-size="10" lengthAdjust="spacing" textLength="3.1787" x="347.7275" y="291.001">&#160;</text><text fill="#000000" font-family="sans-serif" font-size="10" lengthAdjust="spacing" textLength="40.9473" x="350.9063" y="291.001">removal</text><text fill="#000000" font-family="sans-serif" font-size="10" lengthAdjust="spacing" textLength="30.7275" x="334.9175" y="302.6416">status</text><polygon fill="#004D40" points="66.8413,340.2813,56.8413,344.2813,66.8413,348.2813,62.8413,344.2813" style="stroke:#004D40;stroke-width:1.0;"/><line style="stroke:#004D40;stroke-width:1.0;stroke-dasharray:2.0,2.0;" x1="60.8413" x2="237.752" y1="344.2813" y2="344.2813"/><text fill="#000000" font-family="sans-serif" font-size="10" lengthAdjust="spacing" textLength="42.0703" x="104.1985" y="328.2822">Displays</text><text fill="#000000" font-family="sans-serif" font-size="10" lengthAdjust="spacing" textLength="3.1787" x="146.2688" y="328.2822">&#160;</text><text fill="#000000" font-family="sans-serif" font-size="10" lengthAdjust="spacing" textLength="40.9473" x="149.4475" y="328.2822">removal</text><text fill="#000000" font-family="sans-serif" font-size="10" lengthAdjust="spacing" textLength="33.3154" x="130.6389" y="339.9229">details</text></g></svg>