<svg xmlns="http://www.w3.org/2000/svg" xmlns:xlink="http://www.w3.org/1999/xlink" contentStyleType="text/css" height="454px" preserveAspectRatio="none" style="width:625px;height:454px;background:#FFFFFF;" version="1.1" viewBox="0 0 625 454" width="625px" zoomAndPan="magnify"><title>Products - Dynamic</title><defs/><g><text fill="#000000" font-family="sans-serif" font-size="14" font-weight="bold" lengthAdjust="spacing" textLength="153.501" x="237.2578" y="27.9951">Products - Dynamic</text><line style="stroke:#181818;stroke-width:0.5;stroke-dasharray:5.0,5.0;" x1="55" x2="55" y1="130.2344" y2="362.2813"/><line style="stroke:#181818;stroke-width:0.5;stroke-dasharray:5.0,5.0;" x1="199.6826" x2="199.6826" y1="130.2344" y2="362.2813"/><line style="stroke:#181818;stroke-width:0.5;stroke-dasharray:5.0,5.0;" x1="383.7832" x2="383.7832" y1="130.2344" y2="362.2813"/><line style="stroke:#181818;stroke-width:0.5;stroke-dasharray:5.0,5.0;" x1="554.7617" x2="554.7617" y1="130.2344" y2="362.2813"/><text fill="#000000" font-family="sans-serif" font-size="14" lengthAdjust="spacing" textLength="95.6826" x="5" y="115.292">Administrator</text><text fill="#000000" font-family="sans-serif" font-size="10" lengthAdjust="spacing" textLength="41.7627" x="31.96" y="127.876">[Person]</text><ellipse cx="55.8413" cy="50.7969" fill="#00796B" rx="8" ry="8" style="stroke:#181818;stroke-width:0.5;"/><path d="M55.8413,58.7969 L55.8413,85.7969 M42.8413,66.7969 L68.8413,66.7969 M55.8413,85.7969 L42.8413,100.7969 M55.8413,85.7969 L68.8413,100.7969 " fill="none" style="stroke:#181818;stroke-width:0.5;"/><text fill="#000000" font-family="sans-serif" font-size="14" lengthAdjust="spacing" textLength="95.6826" x="5" y="374.2764">Administrator</text><text fill="#000000" font-family="sans-serif" font-size="10" lengthAdjust="spacing" textLength="41.7627" x="31.96" y="386.8604">[Person]</text><ellipse cx="55.8413" cy="397.7188" fill="#00796B" rx="8" ry="8" style="stroke:#181818;stroke-width:0.5;"/><path d="M55.8413,405.7188 L55.8413,432.7188 M42.8413,413.7188 L68.8413,413.7188 M55.8413,432.7188 L42.8413,447.7188 M55.8413,432.7188 L68.8413,447.7188 " fill="none" style="stroke:#181818;stroke-width:0.5;"/><rect fill="#26A69A" height="41.9375" rx="2.5" ry="2.5" style="stroke:#1A746B;stroke-width:0.5;" width="167.1006" x="116.6826" y="87.2969"/><text fill="#FFFFFF" font-family="sans-serif" font-size="14" lengthAdjust="spacing" textLength="92.3604" x="154.0527" y="107.292">Products SPA</text><text fill="#FFFFFF" font-family="sans-serif" font-size="10" lengthAdjust="spacing" textLength="153.1006" x="123.6826" y="119.876">[Container: React Component]</text><rect fill="#26A69A" height="41.9375" rx="2.5" ry="2.5" style="stroke:#1A746B;stroke-width:0.5;" width="167.1006" x="116.6826" y="361.2813"/><text fill="#FFFFFF" font-family="sans-serif" font-size="14" lengthAdjust="spacing" textLength="92.3604" x="154.0527" y="381.2764">Products SPA</text><text fill="#FFFFFF" font-family="sans-serif" font-size="10" lengthAdjust="spacing" textLength="153.1006" x="123.6826" y="393.8604">[Container: React Component]</text><rect fill="#26A69A" height="41.9375" rx="2.5" ry="2.5" style="stroke:#1A746B;stroke-width:0.5;" width="181.9785" x="293.7832" y="87.2969"/><text fill="#FFFFFF" font-family="sans-serif" font-size="14" lengthAdjust="spacing" textLength="153.5898" x="307.9775" y="107.292">Products Microservice</text><text fill="#FFFFFF" font-family="sans-serif" font-size="10" lengthAdjust="spacing" textLength="167.9785" x="300.7832" y="119.876">[Container: Java and Spring Boot]</text><rect fill="#26A69A" height="41.9375" rx="2.5" ry="2.5" style="stroke:#1A746B;stroke-width:0.5;" width="181.9785" x="293.7832" y="361.2813"/><text fill="#FFFFFF" font-family="sans-serif" font-size="14" lengthAdjust="spacing" textLength="153.5898" x="307.9775" y="381.2764">Products Microservice</text><text fill="#FFFFFF" font-family="sans-serif" font-size="10" lengthAdjust="spacing" textLength="167.9785" x="300.7832" y="393.8604">[Container: Java and Spring Boot]</text><text fill="#000000" font-family="sans-serif" font-size="14" lengthAdjust="spacing" textLength="132.2549" x="485.7617" y="115.292">Products Database</text><text fill="#000000" font-family="sans-serif" font-size="10" lengthAdjust="spacing" textLength="111.3281" x="496.2251" y="127.876">[Container: MongoDB]</text><path d="M536.8892,66.2969 C536.8892,56.2969 554.8892,56.2969 554.8892,56.2969 C554.8892,56.2969 572.8892,56.2969 572.8892,66.2969 L572.8892,92.2969 C572.8892,102.2969 554.8892,102.2969 554.8892,102.2969 C554.8892,102.2969 536.8892,102.2969 536.8892,92.2969 L536.8892,66.2969 " fill="#26A69A" style="stroke:#181818;stroke-width:1.5;"/><path d="M536.8892,66.2969 C536.8892,76.2969 554.8892,76.2969 554.8892,76.2969 C554.8892,76.2969 572.8892,76.2969 572.8892,66.2969 " fill="none" style="stroke:#181818;stroke-width:1.5;"/><text fill="#000000" font-family="sans-serif" font-size="14" lengthAdjust="spacing" textLength="132.2549" x="485.7617" y="374.2764">Products Database</text><text fill="#000000" font-family="sans-serif" font-size="10" lengthAdjust="spacing" textLength="111.3281" x="496.2251" y="386.8604">[Container: MongoDB]</text><path d="M536.8892,399.2188 C536.8892,389.2188 554.8892,389.2188 554.8892,389.2188 C554.8892,389.2188 572.8892,389.2188 572.8892,399.2188 L572.8892,425.2188 C572.8892,435.2188 554.8892,435.2188 554.8892,435.2188 C554.8892,435.2188 536.8892,435.2188 536.8892,425.2188 L536.8892,399.2188 " fill="#26A69A" style="stroke:#181818;stroke-width:1.5;"/><path d="M536.8892,399.2188 C536.8892,409.2188 554.8892,409.2188 554.8892,409.2188 C554.8892,409.2188 572.8892,409.2188 572.8892,399.2188 " fill="none" style="stroke:#181818;stroke-width:1.5;"/><polygon fill="#004D40" points="188.2329,165.5156,198.2329,169.5156,188.2329,173.5156,192.2329,169.5156" style="stroke:#004D40;stroke-width:1.0;"/><line style="stroke:#004D40;stroke-width:1.0;" x1="55.8413" x2="194.2329" y1="169.5156" y2="169.5156"/><text fill="#000000" font-family="sans-serif" font-size="10" lengthAdjust="spacing" textLength="40.1758" x="94.1724" y="153.5166">Initiates</text><text fill="#000000" font-family="sans-serif" font-size="10" lengthAdjust="spacing" textLength="3.1787" x="134.3481" y="153.5166">&#160;</text><text fill="#000000" font-family="sans-serif" font-size="10" lengthAdjust="spacing" textLength="24.375" x="137.5269" y="153.5166">book</text><text fill="#000000" font-family="sans-serif" font-size="10" lengthAdjust="spacing" textLength="40.9473" x="107.5635" y="165.1572">removal</text><polygon fill="#004D40" points="372.7725,202.7969,382.7725,206.7969,372.7725,210.7969,376.7725,206.7969" style="stroke:#004D40;stroke-width:1.0;"/><line style="stroke:#004D40;stroke-width:1.0;" x1="200.2329" x2="378.7725" y1="206.7969" y2="206.7969"/><text fill="#000000" font-family="sans-serif" font-size="10" lengthAdjust="spacing" textLength="49.6924" x="253.8796" y="190.7979">Processes</text><text fill="#000000" font-family="sans-serif" font-size="10" lengthAdjust="spacing" textLength="3.1787" x="303.572" y="190.7979">&#160;</text><text fill="#000000" font-family="sans-serif" font-size="10" lengthAdjust="spacing" textLength="24.375" x="306.7507" y="190.7979">book</text><text fill="#000000" font-family="sans-serif" font-size="10" lengthAdjust="spacing" textLength="40.9473" x="272.0291" y="202.4385">removal</text><polygon fill="#004D40" points="542.8892,228.4375,552.8892,232.4375,542.8892,236.4375,546.8892,232.4375" style="stroke:#004D40;stroke-width:1.0;"/><line style="stroke:#004D40;stroke-width:1.0;" x1="384.7725" x2="548.8892" y1="232.4375" y2="232.4375"/><text fill="#000000" font-family="sans-serif" font-size="10" lengthAdjust="spacing" textLength="46.2402" x="420.0823" y="228.0791">Removes</text><text fill="#000000" font-family="sans-serif" font-size="10" lengthAdjust="spacing" textLength="3.1787" x="466.3225" y="228.0791">&#160;</text><text fill="#000000" font-family="sans-serif" font-size="10" lengthAdjust="spacing" textLength="24.375" x="469.5012" y="228.0791">book</text><text fill="#000000" font-family="sans-serif" font-size="10" lengthAdjust="spacing" textLength="3.1787" x="493.8762" y="228.0791">&#160;</text><text fill="#000000" font-family="sans-serif" font-size="10" lengthAdjust="spacing" textLength="22.5244" x="497.0549" y="228.0791">data</text><polygon fill="#004D40" points="395.7725,265.7188,385.7725,269.7188,395.7725,273.7188,391.7725,269.7188" style="stroke:#004D40;stroke-width:1.0;"/><line style="stroke:#004D40;stroke-width:1.0;stroke-dasharray:2.0,2.0;" x1="389.7725" x2="553.8892" y1="269.7188" y2="269.7188"/><text fill="#000000" font-family="sans-serif" font-size="10" lengthAdjust="spacing" textLength="44.7998" x="433.6541" y="253.7197">Confirms</text><text fill="#000000" font-family="sans-serif" font-size="10" lengthAdjust="spacing" textLength="3.1787" x="478.4539" y="253.7197">&#160;</text><text fill="#000000" font-family="sans-serif" font-size="10" lengthAdjust="spacing" textLength="24.375" x="481.6326" y="253.7197">book</text><text fill="#000000" font-family="sans-serif" font-size="10" lengthAdjust="spacing" textLength="40.9473" x="449.3572" y="265.3604">removal</text><polygon fill="#004D40" points="211.2329,303,201.2329,307,211.2329,311,207.2329,307" style="stroke:#004D40;stroke-width:1.0;"/><line style="stroke:#004D40;stroke-width:1.0;stroke-dasharray:2.0,2.0;" x1="205.2329" x2="383.7725" y1="307" y2="307"/><text fill="#000000" font-family="sans-serif" font-size="10" lengthAdjust="spacing" textLength="39.0186" x="250.9304" y="291.001">Returns</text><text fill="#000000" font-family="sans-serif" font-size="10" lengthAdjust="spacing" textLength="3.1787" x="289.949" y="291.001">&#160;</text><text fill="#000000" font-family="sans-serif" font-size="10" lengthAdjust="spacing" textLength="40.9473" x="293.1277" y="291.001">removal</text><text fill="#000000" font-family="sans-serif" font-size="10" lengthAdjust="spacing" textLength="30.7275" x="277.1389" y="302.6416">status</text><polygon fill="#004D40" points="66.8413,340.2813,56.8413,344.2813,66.8413,348.2813,62.8413,344.2813" style="stroke:#004D40;stroke-width:1.0;"/><line style="stroke:#004D40;stroke-width:1.0;stroke-dasharray:2.0,2.0;" x1="60.8413" x2="199.2329" y1="344.2813" y2="344.2813"/><text fill="#000000" font-family="sans-serif" font-size="10" lengthAdjust="spacing" textLength="42.0703" x="84.939" y="328.2822">Displays</text><text fill="#000000" font-family="sans-serif" font-size="10" lengthAdjust="spacing" textLength="3.1787" x="127.0093" y="328.2822">&#160;</text><text fill="#000000" font-family="sans-serif" font-size="10" lengthAdjust="spacing" textLength="40.9473" x="130.188" y="328.2822">removal</text><text fill="#000000" font-family="sans-serif" font-size="10" lengthAdjust="spacing" textLength="33.3154" x="111.3794" y="339.9229">details</text></g></svg>