<svg xmlns="http://www.w3.org/2000/svg" xmlns:xlink="http://www.w3.org/1999/xlink" contentStyleType="text/css" height="375px" preserveAspectRatio="none" style="width:653px;height:375px;background:#FFFFFF;" version="1.1" viewBox="0 0 653 375" width="653px" zoomAndPan="magnify"><title>Recommendations - Dynamic</title><defs/><g><text fill="#000000" font-family="sans-serif" font-size="14" font-weight="bold" lengthAdjust="spacing" textLength="229.1133" x="213.7935" y="27.9951">Recommendations - Dynamic</text><line style="stroke:#181818;stroke-width:0.5;stroke-dasharray:5.0,5.0;" x1="95" x2="95" y1="116.2344" y2="285.3594"/><line style="stroke:#181818;stroke-width:0.5;stroke-dasharray:5.0,5.0;" x1="314.9785" x2="314.9785" y1="116.2344" y2="285.3594"/><line style="stroke:#181818;stroke-width:0.5;stroke-dasharray:5.0,5.0;" x1="548.5068" x2="548.5068" y1="116.2344" y2="285.3594"/><rect fill="#27AE60" height="41.9375" rx="2.5" ry="2.5" style="stroke:#1B7943;stroke-width:0.5;" width="181.9785" x="5" y="73.2969"/><text fill="#FFFFFF" font-family="sans-serif" font-size="14" lengthAdjust="spacing" textLength="156.6523" x="17.6631" y="93.292">Accounts Microservice</text><text fill="#FFFFFF" font-family="sans-serif" font-size="10" lengthAdjust="spacing" textLength="167.9785" x="12" y="105.876">[Container: Java and Spring Boot]</text><rect fill="#27AE60" height="41.9375" rx="2.5" ry="2.5" style="stroke:#1B7943;stroke-width:0.5;" width="181.9785" x="5" y="284.3594"/><text fill="#FFFFFF" font-family="sans-serif" font-size="14" lengthAdjust="spacing" textLength="156.6523" x="17.6631" y="304.3545">Accounts Microservice</text><text fill="#FFFFFF" font-family="sans-serif" font-size="10" lengthAdjust="spacing" textLength="167.9785" x="12" y="316.9385">[Container: Java and Spring Boot]</text><rect fill="#27AE60" height="41.9375" rx="2.5" ry="2.5" style="stroke:#1B7943;stroke-width:0.5;" width="237.5283" x="196.9785" y="73.2969"/><text fill="#FFFFFF" font-family="sans-serif" font-size="14" lengthAdjust="spacing" textLength="223.5283" x="203.9785" y="93.292">Recommendations Microservice</text><text fill="#FFFFFF" font-family="sans-serif" font-size="10" lengthAdjust="spacing" textLength="167.9785" x="231.7534" y="105.876">[Container: Java and Spring Boot]</text><rect fill="#27AE60" height="41.9375" rx="2.5" ry="2.5" style="stroke:#1B7943;stroke-width:0.5;" width="237.5283" x="196.9785" y="284.3594"/><text fill="#FFFFFF" font-family="sans-serif" font-size="14" lengthAdjust="spacing" textLength="223.5283" x="203.9785" y="304.3545">Recommendations Microservice</text><text fill="#FFFFFF" font-family="sans-serif" font-size="10" lengthAdjust="spacing" textLength="167.9785" x="231.7534" y="316.9385">[Container: Java and Spring Boot]</text><text fill="#000000" font-family="sans-serif" font-size="14" lengthAdjust="spacing" textLength="202.1934" x="444.5068" y="101.292">Recommendations Database</text><text fill="#000000" font-family="sans-serif" font-size="10" lengthAdjust="spacing" textLength="111.3281" x="489.9395" y="113.876">[Container: MongoDB]</text><path d="M530.6035,52.2969 C530.6035,42.2969 548.6035,42.2969 548.6035,42.2969 C548.6035,42.2969 566.6035,42.2969 566.6035,52.2969 L566.6035,78.2969 C566.6035,88.2969 548.6035,88.2969 548.6035,88.2969 C548.6035,88.2969 530.6035,88.2969 530.6035,78.2969 L530.6035,52.2969 " fill="#8E44AD" style="stroke:#181818;stroke-width:1.5;"/><path d="M530.6035,52.2969 C530.6035,62.2969 548.6035,62.2969 548.6035,62.2969 C548.6035,62.2969 566.6035,62.2969 566.6035,52.2969 " fill="none" style="stroke:#181818;stroke-width:1.5;"/><text fill="#000000" font-family="sans-serif" font-size="14" lengthAdjust="spacing" textLength="202.1934" x="444.5068" y="297.3545">Recommendations Database</text><text fill="#000000" font-family="sans-serif" font-size="10" lengthAdjust="spacing" textLength="111.3281" x="489.9395" y="309.9385">[Container: MongoDB]</text><path d="M530.6035,322.2969 C530.6035,312.2969 548.6035,312.2969 548.6035,312.2969 C548.6035,312.2969 566.6035,312.2969 566.6035,322.2969 L566.6035,348.2969 C566.6035,358.2969 548.6035,358.2969 548.6035,358.2969 C548.6035,358.2969 530.6035,358.2969 530.6035,348.2969 L530.6035,322.2969 " fill="#8E44AD" style="stroke:#181818;stroke-width:1.5;"/><path d="M530.6035,322.2969 C530.6035,332.2969 548.6035,332.2969 548.6035,332.2969 C548.6035,332.2969 566.6035,332.2969 566.6035,322.2969 " fill="none" style="stroke:#181818;stroke-width:1.5;"/><polygon fill="#2980B9" points="303.7427,163.1563,313.7427,167.1563,303.7427,171.1563,307.7427,167.1563" style="stroke:#2980B9;stroke-width:1.0;"/><line style="stroke:#2980B9;stroke-width:1.0;" x1="95.9893" x2="309.7427" y1="167.1563" y2="167.1563"/><text fill="#000000" font-family="sans-serif" font-size="10" lengthAdjust="spacing" textLength="30.3955" x="178.1731" y="139.5166">Sends</text><text fill="#000000" font-family="sans-serif" font-size="10" lengthAdjust="spacing" textLength="3.1787" x="208.5686" y="139.5166">&#160;</text><text fill="#000000" font-family="sans-serif" font-size="10" lengthAdjust="spacing" textLength="21.8115" x="211.7473" y="139.5166">user</text><text fill="#000000" font-family="sans-serif" font-size="10" lengthAdjust="spacing" textLength="90.6934" x="160.5193" y="151.1572">recommendations</text><text fill="#000000" font-family="sans-serif" font-size="10" lengthAdjust="spacing" textLength="22.5244" x="194.6038" y="162.7979">data</text><polygon fill="#2980B9" points="106.9893,200.4375,96.9893,204.4375,106.9893,208.4375,102.9893,204.4375" style="stroke:#2980B9;stroke-width:1.0;"/><line style="stroke:#2980B9;stroke-width:1.0;stroke-dasharray:2.0,2.0;" x1="100.9893" x2="314.7427" y1="204.4375" y2="204.4375"/><text fill="#000000" font-family="sans-serif" font-size="10" lengthAdjust="spacing" textLength="71.7529" x="157.1379" y="188.4385">Acknowledges</text><text fill="#000000" font-family="sans-serif" font-size="10" lengthAdjust="spacing" textLength="3.1787" x="228.8909" y="188.4385">&#160;</text><text fill="#000000" font-family="sans-serif" font-size="10" lengthAdjust="spacing" textLength="22.5244" x="232.0696" y="188.4385">data</text><text fill="#000000" font-family="sans-serif" font-size="10" lengthAdjust="spacing" textLength="34.9609" x="188.3855" y="200.0791">receipt</text><polygon fill="#2980B9" points="536.6035,237.7188,546.6035,241.7188,536.6035,245.7188,540.6035,241.7188" style="stroke:#2980B9;stroke-width:1.0;"/><line style="stroke:#2980B9;stroke-width:1.0;" x1="315.7427" x2="542.6035" y1="241.7188" y2="241.7188"/><text fill="#000000" font-family="sans-serif" font-size="10" lengthAdjust="spacing" textLength="31.8604" x="416.2429" y="225.7197">Stores</text><text fill="#000000" font-family="sans-serif" font-size="10" lengthAdjust="spacing" textLength="90.6934" x="386.8264" y="237.3604">recommendations</text><polygon fill="#2980B9" points="326.7427,263.3594,316.7427,267.3594,326.7427,271.3594,322.7427,267.3594" style="stroke:#2980B9;stroke-width:1.0;"/><line style="stroke:#2980B9;stroke-width:1.0;stroke-dasharray:2.0,2.0;" x1="320.7427" x2="547.6035" y1="267.3594" y2="267.3594"/><text fill="#000000" font-family="sans-serif" font-size="10" lengthAdjust="spacing" textLength="44.7998" x="389.1897" y="263.001">Confirms</text><text fill="#000000" font-family="sans-serif" font-size="10" lengthAdjust="spacing" textLength="3.1787" x="433.9895" y="263.001">&#160;</text><text fill="#000000" font-family="sans-serif" font-size="10" lengthAdjust="spacing" textLength="37.9883" x="437.1682" y="263.001">storage</text></g></svg>