<svg xmlns="http://www.w3.org/2000/svg" xmlns:xlink="http://www.w3.org/1999/xlink" contentStyleType="text/css" height="363px" preserveAspectRatio="none" style="width:653px;height:363px;background:#FFFFFF;" version="1.1" viewBox="0 0 653 363" width="653px" zoomAndPan="magnify"><title>Recommendations - Dynamic</title><defs/><g><text fill="#000000" font-family="sans-serif" font-size="14" font-weight="bold" lengthAdjust="spacing" textLength="229.1133" x="213.7935" y="27.9951">Recommendations - Dynamic</text><line style="stroke:#181818;stroke-width:0.5;stroke-dasharray:5.0,5.0;" x1="95" x2="95" y1="116.2344" y2="273.7188"/><line style="stroke:#181818;stroke-width:0.5;stroke-dasharray:5.0,5.0;" x1="314.9785" x2="314.9785" y1="116.2344" y2="273.7188"/><line style="stroke:#181818;stroke-width:0.5;stroke-dasharray:5.0,5.0;" x1="548.5068" x2="548.5068" y1="116.2344" y2="273.7188"/><rect fill="#27AE60" height="41.9375" rx="2.5" ry="2.5" style="stroke:#1B7943;stroke-width:0.5;" width="181.9785" x="5" y="73.2969"/><text fill="#FFFFFF" font-family="sans-serif" font-size="14" lengthAdjust="spacing" textLength="122.1855" x="34.8965" y="93.292">Cart Microservice</text><text fill="#FFFFFF" font-family="sans-serif" font-size="10" lengthAdjust="spacing" textLength="167.9785" x="12" y="105.876">[Container: Java and Spring Boot]</text><rect fill="#27AE60" height="41.9375" rx="2.5" ry="2.5" style="stroke:#1B7943;stroke-width:0.5;" width="181.9785" x="5" y="272.7188"/><text fill="#FFFFFF" font-family="sans-serif" font-size="14" lengthAdjust="spacing" textLength="122.1855" x="34.8965" y="292.7139">Cart Microservice</text><text fill="#FFFFFF" font-family="sans-serif" font-size="10" lengthAdjust="spacing" textLength="167.9785" x="12" y="305.2979">[Container: Java and Spring Boot]</text><rect fill="#27AE60" height="41.9375" rx="2.5" ry="2.5" style="stroke:#1B7943;stroke-width:0.5;" width="237.5283" x="196.9785" y="73.2969"/><text fill="#FFFFFF" font-family="sans-serif" font-size="14" lengthAdjust="spacing" textLength="223.5283" x="203.9785" y="93.292">Recommendations Microservice</text><text fill="#FFFFFF" font-family="sans-serif" font-size="10" lengthAdjust="spacing" textLength="167.9785" x="231.7534" y="105.876">[Container: Java and Spring Boot]</text><rect fill="#27AE60" height="41.9375" rx="2.5" ry="2.5" style="stroke:#1B7943;stroke-width:0.5;" width="237.5283" x="196.9785" y="272.7188"/><text fill="#FFFFFF" font-family="sans-serif" font-size="14" lengthAdjust="spacing" textLength="223.5283" x="203.9785" y="292.7139">Recommendations Microservice</text><text fill="#FFFFFF" font-family="sans-serif" font-size="10" lengthAdjust="spacing" textLength="167.9785" x="231.7534" y="305.2979">[Container: Java and Spring Boot]</text><text fill="#000000" font-family="sans-serif" font-size="14" lengthAdjust="spacing" textLength="202.1934" x="444.5068" y="101.292">Recommendations Database</text><text fill="#000000" font-family="sans-serif" font-size="10" lengthAdjust="spacing" textLength="111.3281" x="489.9395" y="113.876">[Container: MongoDB]</text><path d="M530.6035,52.2969 C530.6035,42.2969 548.6035,42.2969 548.6035,42.2969 C548.6035,42.2969 566.6035,42.2969 566.6035,52.2969 L566.6035,78.2969 C566.6035,88.2969 548.6035,88.2969 548.6035,88.2969 C548.6035,88.2969 530.6035,88.2969 530.6035,78.2969 L530.6035,52.2969 " fill="#8E44AD" style="stroke:#181818;stroke-width:1.5;"/><path d="M530.6035,52.2969 C530.6035,62.2969 548.6035,62.2969 548.6035,62.2969 C548.6035,62.2969 566.6035,62.2969 566.6035,52.2969 " fill="none" style="stroke:#181818;stroke-width:1.5;"/><text fill="#000000" font-family="sans-serif" font-size="14" lengthAdjust="spacing" textLength="202.1934" x="444.5068" y="285.7139">Recommendations Database</text><text fill="#000000" font-family="sans-serif" font-size="10" lengthAdjust="spacing" textLength="111.3281" x="489.9395" y="298.2979">[Container: MongoDB]</text><path d="M530.6035,310.6563 C530.6035,300.6563 548.6035,300.6563 548.6035,300.6563 C548.6035,300.6563 566.6035,300.6563 566.6035,310.6563 L566.6035,336.6563 C566.6035,346.6563 548.6035,346.6563 548.6035,346.6563 C548.6035,346.6563 530.6035,346.6563 530.6035,336.6563 L530.6035,310.6563 " fill="#8E44AD" style="stroke:#181818;stroke-width:1.5;"/><path d="M530.6035,310.6563 C530.6035,320.6563 548.6035,320.6563 548.6035,320.6563 C548.6035,320.6563 566.6035,320.6563 566.6035,310.6563 " fill="none" style="stroke:#181818;stroke-width:1.5;"/><polygon fill="#2980B9" points="303.7427,151.5156,313.7427,155.5156,303.7427,159.5156,307.7427,155.5156" style="stroke:#2980B9;stroke-width:1.0;"/><line style="stroke:#2980B9;stroke-width:1.0;" x1="95.9893" x2="309.7427" y1="155.5156" y2="155.5156"/><text fill="#000000" font-family="sans-serif" font-size="10" lengthAdjust="spacing" textLength="37.959" x="169.6355" y="139.5166">Notifies</text><text fill="#000000" font-family="sans-serif" font-size="10" lengthAdjust="spacing" textLength="3.1787" x="207.5945" y="139.5166">&#160;</text><text fill="#000000" font-family="sans-serif" font-size="10" lengthAdjust="spacing" textLength="31.3232" x="210.7732" y="139.5166">added</text><text fill="#000000" font-family="sans-serif" font-size="10" lengthAdjust="spacing" textLength="27.8027" x="173.9373" y="151.1572">items</text><text fill="#000000" font-family="sans-serif" font-size="10" lengthAdjust="spacing" textLength="3.1787" x="201.74" y="151.1572">&#160;</text><text fill="#000000" font-family="sans-serif" font-size="10" lengthAdjust="spacing" textLength="10.0391" x="204.9187" y="151.1572">to</text><text fill="#000000" font-family="sans-serif" font-size="10" lengthAdjust="spacing" textLength="3.1787" x="214.9578" y="151.1572">&#160;</text><text fill="#000000" font-family="sans-serif" font-size="10" lengthAdjust="spacing" textLength="19.6582" x="218.1365" y="151.1572">cart</text><polygon fill="#2980B9" points="106.9893,188.7969,96.9893,192.7969,106.9893,196.7969,102.9893,192.7969" style="stroke:#2980B9;stroke-width:1.0;"/><line style="stroke:#2980B9;stroke-width:1.0;stroke-dasharray:2.0,2.0;" x1="100.9893" x2="314.7427" y1="192.7969" y2="192.7969"/><text fill="#000000" font-family="sans-serif" font-size="10" lengthAdjust="spacing" textLength="71.7529" x="169.9895" y="176.7979">Acknowledges</text><text fill="#000000" font-family="sans-serif" font-size="10" lengthAdjust="spacing" textLength="56.2354" x="177.7483" y="188.4385">notification</text><polygon fill="#2980B9" points="536.6035,226.0781,546.6035,230.0781,536.6035,234.0781,540.6035,230.0781" style="stroke:#2980B9;stroke-width:1.0;"/><line style="stroke:#2980B9;stroke-width:1.0;" x1="315.7427" x2="542.6035" y1="230.0781" y2="230.0781"/><text fill="#000000" font-family="sans-serif" font-size="10" lengthAdjust="spacing" textLength="31.8604" x="393.8625" y="214.0791">Stores</text><text fill="#000000" font-family="sans-serif" font-size="10" lengthAdjust="spacing" textLength="3.1787" x="425.7229" y="214.0791">&#160;</text><text fill="#000000" font-family="sans-serif" font-size="10" lengthAdjust="spacing" textLength="41.582" x="428.9016" y="214.0791">updated</text><text fill="#000000" font-family="sans-serif" font-size="10" lengthAdjust="spacing" textLength="90.6934" x="386.8264" y="225.7197">recommendations</text><polygon fill="#2980B9" points="326.7427,251.7188,316.7427,255.7188,326.7427,259.7188,322.7427,255.7188" style="stroke:#2980B9;stroke-width:1.0;"/><line style="stroke:#2980B9;stroke-width:1.0;stroke-dasharray:2.0,2.0;" x1="320.7427" x2="547.6035" y1="255.7188" y2="255.7188"/><text fill="#000000" font-family="sans-serif" font-size="10" lengthAdjust="spacing" textLength="44.7998" x="389.1897" y="251.3604">Confirms</text><text fill="#000000" font-family="sans-serif" font-size="10" lengthAdjust="spacing" textLength="3.1787" x="433.9895" y="251.3604">&#160;</text><text fill="#000000" font-family="sans-serif" font-size="10" lengthAdjust="spacing" textLength="37.9883" x="437.1682" y="251.3604">storage</text></g></svg>